<mxfile host="app.diagrams.net" agent="Mozilla/5.0 (Windows NT 10.0; Win64; x64) AppleWebKit/537.36 (KHTML, like Gecko) Chrome/131.0.0.0 Safari/537.36 Edg/131.0.0.0" version="25.0.1">
  <diagram name="Page-1" id="x2Igrgx8C4z-Le0oGUw-">
    <mxGraphModel dx="1898" dy="609" grid="1" gridSize="10" guides="1" tooltips="1" connect="1" arrows="1" fold="1" page="1" pageScale="1" pageWidth="850" pageHeight="1100" background="none" math="0" shadow="0">
      <root>
        <mxCell id="0" />
        <mxCell id="1" parent="0" />
        <mxCell id="eQoUt7WW08yLKn_f3m6--23" value="Clean&lt;div&gt;&amp;amp;&lt;/div&gt;&lt;div&gt;Standardize&lt;/div&gt;" style="text;html=1;align=center;verticalAlign=middle;whiteSpace=wrap;rounded=0;" parent="1" vertex="1">
          <mxGeometry x="-537.8846485926438" y="222.04545454545456" width="50.42307028147125" height="25.22727272727273" as="geometry" />
        </mxCell>
        <mxCell id="eQoUt7WW08yLKn_f3m6--33" value="Transformations" style="text;html=1;align=center;verticalAlign=middle;whiteSpace=wrap;rounded=0;" parent="1" vertex="1">
          <mxGeometry x="-417.70966442180395" y="222.04545454545456" width="50.42307028147125" height="25.22727272727273" as="geometry" />
        </mxCell>
        <mxCell id="eQoUt7WW08yLKn_f3m6--51" value="" style="endArrow=none;dashed=1;html=1;dashPattern=1 3;strokeWidth=2;rounded=0;" parent="1" edge="1">
          <mxGeometry width="50" height="50" relative="1" as="geometry">
            <mxPoint x="-686.632705922984" y="560" as="sourcePoint" />
            <mxPoint x="-686.632705922984" y="190" as="targetPoint" />
          </mxGeometry>
        </mxCell>
        <mxCell id="eQoUt7WW08yLKn_f3m6--53" value="" style="endArrow=none;dashed=1;html=1;dashPattern=1 3;strokeWidth=2;rounded=0;" parent="1" edge="1">
          <mxGeometry width="50" height="50" relative="1" as="geometry">
            <mxPoint x="-170.00045357739026" y="551.44" as="sourcePoint" />
            <mxPoint x="-170.00045357739026" y="181.44" as="targetPoint" />
          </mxGeometry>
        </mxCell>
        <mxCell id="eQoUt7WW08yLKn_f3m6--8" value="&lt;b&gt;Source&lt;/b&gt;" style="text;html=1;align=center;verticalAlign=middle;whiteSpace=wrap;rounded=0;" parent="1" vertex="1">
          <mxGeometry x="-807.62" y="423.8681818181819" width="75.63460542220687" height="25.22727272727273" as="geometry" />
        </mxCell>
        <mxCell id="eQoUt7WW08yLKn_f3m6--18" value="Raw Data" style="text;html=1;align=center;verticalAlign=middle;whiteSpace=wrap;rounded=0;" parent="1" vertex="1">
          <mxGeometry x="-593.9971219708743" y="423.8636363636364" width="73.27312496402463" height="25.22727272727273" as="geometry" />
        </mxCell>
        <mxCell id="eQoUt7WW08yLKn_f3m6--34" style="edgeStyle=orthogonalEdgeStyle;rounded=0;orthogonalLoop=1;jettySize=auto;html=1;" parent="1" source="eQoUt7WW08yLKn_f3m6--20" edge="1">
          <mxGeometry relative="1" as="geometry">
            <mxPoint x="-526.9596500316584" y="289.3181818181818" as="targetPoint" />
            <Array as="points">
              <mxPoint x="-557.213492200541" y="289.3181818181818" />
              <mxPoint x="-534.523110573879" y="289.3181818181818" />
            </Array>
          </mxGeometry>
        </mxCell>
        <mxCell id="eQoUt7WW08yLKn_f3m6--20" value="" style="shape=image;verticalLabelPosition=bottom;labelBackgroundColor=default;verticalAlign=top;aspect=fixed;imageAspect=0;image=data:image/jpeg,/9j/4AAQSkZJRgABAQAAAQABAAD/2wBDAAsJCQcJCQcJCQkJCwkJCQkJCQsJCwsMCwsLDA0QDBEODQ4MEhkSJRodJR0ZHxwpKRYlNzU2GioyPi0pMBk7IRP/2wBDAQcICAsJCxULCxUsHRkdLCwsLCwsLCwsLCwsLCwsLCwsLCwsLCwsLCwsLCwsLCwsLCwsLCwsLCwsLCwsLCwsLCz/wAARCADYAZYDASIAAhEBAxEB/8QAGwABAAMAAwEAAAAAAAAAAAAAAAEFBgMEBwL/xABGEAABAgIDCgsGBQIGAwAAAAAAAQIDBAURIRIUFTFUkZKx0dI0NUFSU3JzdIGTwQYTMjNRsiIjYXGzQqEkRHXC4fBDYmP/xAAaAQEAAwEBAQAAAAAAAAAAAAAAAQQFBgMC/8QAKxEBAAECAwYFBQEAAAAAAAAAAAECAwQVUgURM1GB8BMUMnHBEiEiMaFB/9oADAMBAAIRAxEAPwD1sAAAAAAAAAADIe01LxUiPoyXcjWI1t9uREVXOcl0kNFXkSys155tTaqtLUpXlDs1yiAV9aitSABNaitSABNaitSABNaitSABNaitSABNaitSABNaitSABNaitSABNaitSABNaitSABNaitSABNaitbSB9QJrUVqhB8PdXYniBDnKtiYqz5rUABWorUADV+zFNRkjwaLmXNdBiNVso6pEdDe233aqmOvk/Y2p5ZRC1UtQ9WWwsy1oepgAAAAAAAAAAAAAAAAAAAAAAAADzWmuNqU7y7Uh6Uea01xtSneXakArwABIIAEggASCAAJIAAAACSAAJIJAgAAAABJAAAfUHw51VgB7lX8KHxViAAAAAAAO7RHG1D99g6z1M8sojjah++wdZ6mAAAAAAAAAAAAAAAAAAAAAAAAAPPKYlJ19KUm9sFVY6YcrVu4KVpUnI51Z6GYqkqsIT/bLqQCivGfydfMgb4vGfydfMgb5ZeA8AhW3jP5OvmQN8XjP5OvmQN8svAeAFbeM/k6+ZA3xeM/k6+ZA3yy8B4AVt4z+Tr5kDfF4z+Tr5kDfLLwHgBW3jP5OvmQN8XjP5OvmQN8svAeAFbeM/k6+ZA3xeM/k6+ZA3yy8B4AVt4z+Tr5kDfF4z+Tr5kDfLLwHgBW3jP5OvmQN8m8Z/J18yBvljZ9BZ9AK28Z/J18yBvi8Z/J18yBvll4DwArbxn8nXzIG+Lxn8nXzIG+WXgPACtvGfydfMgb4vGfydfMgb5ZHyqoEq10nSCWJLrb/APSBvnHeE/k6+ZA3y0sFloFZeNIZOvmQN8XjSGTr5kDfLOwWAVl40hk6+ZA3xeNIZOvmQN8s7BYBV3jSGTr5kDfF40hk6+ZA3y0qQVIBwUVJTzaUop74CtaybhOct3CWpK8dSOr/ALHpZhKP4fRveYfqbsAAAAAAAAAAAAAAAAAAAAAAAAAYqkuMJ/tl1IbUxVJcYT/bLqQDqCpVxAraWVyNlalVPxRa1RVrxN+hYsWvGuRRv/bxu3PDompZ3LvoouXc1TMXTuc7SUXTuc7ScamUzqZ2Yxpae5dzVFy7mqZi6dznaThdO5ztJxOUzq/icxjS09y7mqLl3NUzF07nO0nC6dznaThlM6v4ZjGlp7l3NUXLuapmLp3OdpO2i6dznaThlM6v4ZjGlp7l3NUXLuapmLp3OdpO2i6dznaThlM6v4ZjGlp7l3NUXLuapmLp3OdpO2i6dznaTiMpnV/DMY0tPU5OQ+VVExqiGZunVL+J2LnO2m79mUR0ZbpEX/AsX8SV8rfqU8Xg5w0RO/fvWcNifHmY3blTdN5yE3TechvvdwujZotHu4XRs0WlBcYC6bzkF0znJnN/7uF0bNFo93C6Nmi0Dz9XsT+pM58Xbecmc9E93C6Nmi0e6hdGzRaB53dN5yZybptv4kznofuoXRs0Wj3UK38tmi0Dzu6bzkzk3Tecmc9D91C6Nmi0e6hdGzRaB53dN5yZybpvOTOeh+6hdGzRaPdQujZotA87um85D6PQfdwujZotMHM8Im7E4RGxddwHJR/D6N7zD9TdmEo/jCje8w/U3ZEgAAkAAAAAAAAAAAAAAAAAAAAADFUlxhP9supDamKpLjCf7ZdSAdQraW+GV60XUwsitpb4ZXrRdTS/gOPSp4vhSqQAdU50AAEggACSAAAAAABIuJf2U3vsx89e4s1tMEuJTe+zHz17izW0xdq+ilqbN9VXs1YAMBsgAAAAAPqB9QAAAAAB/wAGAmeEzfeI/wB7jfmAmeEzfeI/3uA5KP4fRveYfqbswlH8YUb3mH6m7EoAAEgAAAAAAAAAAWCwABYLAAFgsAAWCwABYYqkuMJ/tl1IbUxVJcYT/bLqQDqWFbS3wyvWi6mlkVtLfDK9aLqYX8Bx6VPF8KVSLADqnOlgsAAWCwABYLAAFgsAAWCwAJFxL+xvfZj569xZraYJcS/sb32Y+cvcWa2mLtX0UtTZvqn2auwWAGA2SwWAALBYAAsFloH1AWCwABYLAABgJnhM33iP97jf/wDBgJnhM33iP97gOSj+H0b3mH6m7sMJR/GFG95h+puxKCwWABJYLAAFgsAAWCwABYAAAFotAEkWk2gQBaLQAFotAGKpLjCf7ZdSG1tMVSXGE/2y6kA6hW0t8Mr1ouppZWlbS3wyvWi6ml/AcelTxfClUgC06pzoBaLQAFotAAWi0ABaLQAFo/fFjAhyoiOVbEqWtTeey7q46qmJZCGqZ2nnMeKr7GrUxK/H9T0T2U+cn+nwv9pj7Xp3UUS0Nl3IruVxS14FotOebwBaLQAFotAD6i0W2gCSLSbQIAtFoAwEzwmb7xH+9xv/APgwEzwmb7xH+9wHJR/GFG95h+puzCUfw+je8w/U3dolABaLQkAtFoAC0WgALRaBIFoAgAACSAAAAAAADFUlxhP9supDamKpLjCf7ZdSAdQraW+GV60XU0sivpOHFiNlkhse+pYircIq1Vo3HUXsDMRfpmVTF/e1KnBzXrN9BG0FF7TfQRtBTp/Fo5w5/wCirk4Qc17TfQRtBRe030EbQUeLRzg+irk4Qc17TfQRtBRe030EbQUeJRzg+irk4Qc17TfQRtBRe030EbQUeJRzg+irk4Qc17TfQRtBRe03Z+RG0HDxKOcH0VcnF48nKdWLGu62N+Gu1fqc8aDPLW1stMVcqpDdb+mI4Ek55P8ALTHlv2HtRXb/AHNUKd+bk/jTTLgXF4Kek+yfzU/0+D/sPPFlJ6rgsxiX/wAbth6D7MxIUvERY8RkJLxhMriuRv4vw2VqZG2K6aqKYpne0tjUVU1VTVG77NiDrX/RuWSvnQ9ov+jctlfOh7Tm3SuyDrX/AEblsr50PaL/AKNy2V86HtA7IOtf9G5bK+dD2i/6Ny2V86HtA7I+p1r/AKNy2V86HtF/0bb/AI2V86HtA7JJ1b/o3LZXzoe0X/RuWyvnQ9oHZB1r/o3LZXzoe0X/AEblsr50PaB2TATPCZvvEf73G2v+jcslvOh7TETCtdMTTmqitdHjKipaior1VFQlDlo/jCje8w/U3ZhKP4wo3vMP1N2RIAAJAAAAAAAASCAAsFgACwWAALBYAAsFgACwxVJcYT/bLqQ2piqS4wn+2XUgHUsOpOzUSVSCsNrF94r0ddov9NzVVUp2ytpb4ZXrRdTS5hKKbl6Kao3wrYmuaLczTO5w4VmujgZnbRhWa6ODmdtK8HR+TsaIYfmr271SsMKzXRwcztowrNdHBzO2leB5Oxog81e1SsMKzPRwcztowrNdHBzO2leB5Oxog81e1SsMKzPRwcztowrM9HBzO2leSPJ2NEHmr2qXfwrM9HBzO2nDFpyaaty2FLqv9Sq12bGV8aLc/hav4lxr9P0OsetGAsT+6IVL20b0fjTVK0w5O9FLaL94Ycneil9F+8VRJ6ZfhtEK2Y4nXK0WnJ1EX8qXxc1+8WM3OxpeUlZhjIbnxVho5Ho5US6h3VlSmZXF4KXlJ8W0d1oP8KFHE4SzTdtxFMfefhewuLv1WrszVO+I+XBhuc6GW0X7ww5O9FLaD94qwXsvw2iFDMMTrlZ4cnehltB+8Thyd6GW0H7xVgeQw2iDMMTrlaYcnehltB+8MOTvQy2g/eKsDyGG0QZhidcrTDk70MtoP3hhydt/JltB+8VYHkMNogzDE65WmHJ3oZbQfvDDk70MtoP3irA8hhtEGYYnXK0w5O9DLaD94YbnehltB+8VYGX4bRBmGJ1ytFpycqX8mWxc1+8XsNyvhwnqiIr4bHKiYkVzUWwxq4l/Y2ED5Et2ML7EMXauGtWaaZt07t+9t7JxN29VVFyrfu3O7R/D6N7zD9Td2GEo/jCje8w/U3Zgy3iwWABJYLAAFgsAAWCwABYAAAAAAAAAAAAAGKpLjCf7ZdSG1MVSXGE/2y6kA6hW0t8Mr1ouppZFbS3wyvWi6ml/AcelTxfClUgA6pzoAAAAtAnWcMWLcfhb8SpyciExYvu0qT4lSz9P1OpbjXHjPWijf95Vb97d+MHrjAB7s8ABKELizl5SfFlH9aD/AAoUa4s5eUnxZR/Wg/woZuL41n3+GphODe9vlSciAciA0mYAAAAAgAAAAAAAEoX0NhA+RLdjC+xDHry/spsIHyJbsYX2Ic9tr00dXQ7E9VfR3aP4fRveYfqbswlH8YUb3mH6m7Oal0wAAkAAAAAAAAAAAAAAAAAAAAADFUlxhP8AbLqQ2piqS4wn+2XUgHUK2lvhletF1NLIraW+GV60XU0v4Dj0qeL4UqkAHVOdAAAPiJESGn/suJPUl72sStbV5E+p03Oc5Vc5bV/7Uh6UUb53q167FMboQqqqqqrWq2qACwzpnf8AsABIAAIQuLOXlJ8WUf1oP8KFGuLOXlJ8WUf1oP8AChm4vjWff4amE4N72+VJyIByIDSZgAAAACAAAAAAAAShfQ2ED5Et2ML7EMevobCB8iW7GF9iHPba9NHV0OxPVX0d2j+H0b3mH6m7MJR/D6N7zD9TdnNOnAAAAAAAAAAAAAAAAAAAAAAAADFUlxhP9supDamKpLjCf7ZdSAdQraW+GV60XU0sitpb4ZXrRdTS/gOPSp4vhSqQAdU50Pl72sSt3gn1Jc5rGq5c31Om97nuVV8P0Puin6nheuxRG6P2hznPW6djX+yfQggkssyZmZ3yAgkkAQAJBBJAhcWcvKT4so/rQf4UKNcWcvKT4so/rQf4UM7F8az7/DTwnBve3ypORARyIDSZiQQAJAIAkEEgAAEAIASL6GwgfIluxhfYhj1xeBsIHyJbsYX2Ic9tr00dXQ7E9VfR3aP4fRveYfqbswlH8YUb3mH6m7Oal0wAAkAAAAAAAAAAAAAAAAAAAAADFUlxhP8AbLqQ2piqTRcIT/bL/dEA6hW0t8Er1ouphZHHFgQI1z72Gjrmu5rVbK6q8RZw12LVyK5eF+3NyiaYZwhVa1FVy1In/ai/vKQT/Ls/vtPh0hR77HS8NUS1LXeim3mlr/YlkTs+7u+0wy0SIsR1eJP6UPk1GDaMyWFndtJwbRmSws7tp7RtmzH6ie+qnVsa/VO+ZjvoywNTg2jMlhZ3bRg2jMlhZ3bRnNnlPfV85Le5x30ZYGpwbRmSw87towbRmSws7tozmzynvqZLe5x30ZYGpwbRmSws7towbRmSws7tpOc2eU99TJb3OO+jLA1ODqMyWFndtGDaMyWHnftIzmzynvqZLe5x30ZVeX9lLyk+LaP60H+E7q0bRmSw7Uqxu2nNEl5aNDhwokJrocOq4aqrUlSXKcpVvbSt3LluuIn8Z7/1bs7NuWrdymZj8oZAGpSjaMyWHnftJwdRmSws7tpazm1ynvqqZLe5wywNTg2jMlhZ3bRg2jMlhZ3bRnNnlPfUyW9zjvoywNTg2jMlhZ3bRg2jMlhZ3bRnNnlPfUyW9zjvoywNTg2jMlhZ3bRg2jMlhZ3bRnNnlPfUyW9zjvoywNTg2jMlhZ3bRg2jMlhZ3bRnNnlPfUyW9zjvoywNTg2jMlhZ3bRg6jMlhZ3bSc5s8p76mS3ucd9GVXEv7GwgfIluxhfYhwLRtGZLCzu2naREa1rWoiNaiNaiYkREqRDL2hjaMTFMUxP2amz8DXhZqmuY+7tUfxhRveYfqbswtHcPo6ytb5h1Z6zdGQ1wABIAAAAAAAAAAAAAAAAAAAAAGbpyQiNiunYTa4T0b79EVEVjksureRQAKOpRUoBKHytaqRUoACpRUoACpRUoACpRUoACpRUoACpRUoACpRUAAqUVKAAqUVKAAqUVKAAqUVLaAAqUVKAAqUVKAAqUVKABd0HR0WJGhzsVtzBhXSwUWquJE+G6qTkQ1ABAAAJAAAAAAAAAAB//2Q==;" parent="1" vertex="1">
          <mxGeometry x="-576.8765653600415" y="391.66545454545457" width="56.15161178470125" height="29.876707423133986" as="geometry" />
        </mxCell>
        <mxCell id="eQoUt7WW08yLKn_f3m6--36" style="edgeStyle=orthogonalEdgeStyle;rounded=0;orthogonalLoop=1;jettySize=auto;html=1;" parent="1" source="eQoUt7WW08yLKn_f3m6--21" edge="1">
          <mxGeometry relative="1" as="geometry">
            <mxPoint x="-409.3058193748921" y="289.3181818181818" as="targetPoint" />
            <Array as="points">
              <mxPoint x="-442.9211995625396" y="289.3181818181818" />
            </Array>
          </mxGeometry>
        </mxCell>
        <mxCell id="eQoUt7WW08yLKn_f3m6--21" value="" style="shape=image;verticalLabelPosition=bottom;labelBackgroundColor=default;verticalAlign=top;aspect=fixed;imageAspect=0;image=data:image/jpeg,/9j/4AAQSkZJRgABAQAAAQABAAD/2wBDAAsJCQcJCQcJCQkJCwkJCQkJCQsJCwsMCwsLDA0QDBEODQ4MEhkSJRodJR0ZHxwpKRYlNzU2GioyPi0pMBk7IRP/2wBDAQcICAsJCxULCxUsHRkdLCwsLCwsLCwsLCwsLCwsLCwsLCwsLCwsLCwsLCwsLCwsLCwsLCwsLCwsLCwsLCwsLCz/wAARCADYAZYDASIAAhEBAxEB/8QAGwABAAMAAwEAAAAAAAAAAAAAAAEFBgMEBwL/xABGEAABAgIDCgsGBQIGAwAAAAAAAQIDBAURIRIUFTFUkZKx0dI0NUFSU3JzdIGTwQYTMjNRsiIjYXGzQqEkRHXC4fBDYmP/xAAaAQEAAwEBAQAAAAAAAAAAAAAAAQQFBgMC/8QAKxEBAAECAwYFBQEAAAAAAAAAAAECAwQVUgURM1GB8BMUMnHBEiEiMaFB/9oADAMBAAIRAxEAPwD1sAAAAAAAAAADIe01LxUiPoyXcjWI1t9uREVXOcl0kNFXkSys155tTaqtLUpXlDs1yiAV9aitSABNaitSABNaitSABNaitSABNaitSABNaitSABNaitSABNaitSABNaitSABNaitSABNaitSABNaitbSB9QJrUVqhB8PdXYniBDnKtiYqz5rUABWorUADV+zFNRkjwaLmXNdBiNVso6pEdDe233aqmOvk/Y2p5ZRC1UtQ9WWwsy1oepgAAAAAAAAAAAAAAAAAAAAAAAADzWmuNqU7y7Uh6Uea01xtSneXakArwABIIAEggASCAAJIAAAACSAAJIJAgAAAABJAAAfUHw51VgB7lX8KHxViAAAAAAAO7RHG1D99g6z1M8sojjah++wdZ6mAAAAAAAAAAAAAAAAAAAAAAAAAPPKYlJ19KUm9sFVY6YcrVu4KVpUnI51Z6GYqkqsIT/bLqQCivGfydfMgb4vGfydfMgb5ZeA8AhW3jP5OvmQN8XjP5OvmQN8svAeAFbeM/k6+ZA3xeM/k6+ZA3yy8B4AVt4z+Tr5kDfF4z+Tr5kDfLLwHgBW3jP5OvmQN8XjP5OvmQN8svAeAFbeM/k6+ZA3xeM/k6+ZA3yy8B4AVt4z+Tr5kDfF4z+Tr5kDfLLwHgBW3jP5OvmQN8m8Z/J18yBvljZ9BZ9AK28Z/J18yBvi8Z/J18yBvll4DwArbxn8nXzIG+Lxn8nXzIG+WXgPACtvGfydfMgb4vGfydfMgb5ZHyqoEq10nSCWJLrb/APSBvnHeE/k6+ZA3y0sFloFZeNIZOvmQN8XjSGTr5kDfLOwWAVl40hk6+ZA3xeNIZOvmQN8s7BYBV3jSGTr5kDfF40hk6+ZA3y0qQVIBwUVJTzaUop74CtaybhOct3CWpK8dSOr/ALHpZhKP4fRveYfqbsAAAAAAAAAAAAAAAAAAAAAAAAAYqkuMJ/tl1IbUxVJcYT/bLqQDqCpVxAraWVyNlalVPxRa1RVrxN+hYsWvGuRRv/bxu3PDompZ3LvoouXc1TMXTuc7SUXTuc7ScamUzqZ2Yxpae5dzVFy7mqZi6dznaThdO5ztJxOUzq/icxjS09y7mqLl3NUzF07nO0nC6dznaThlM6v4ZjGlp7l3NUXLuapmLp3OdpO2i6dznaThlM6v4ZjGlp7l3NUXLuapmLp3OdpO2i6dznaThlM6v4ZjGlp7l3NUXLuapmLp3OdpO2i6dznaTiMpnV/DMY0tPU5OQ+VVExqiGZunVL+J2LnO2m79mUR0ZbpEX/AsX8SV8rfqU8Xg5w0RO/fvWcNifHmY3blTdN5yE3TechvvdwujZotHu4XRs0WlBcYC6bzkF0znJnN/7uF0bNFo93C6Nmi0Dz9XsT+pM58Xbecmc9E93C6Nmi0e6hdGzRaB53dN5yZybptv4kznofuoXRs0Wj3UK38tmi0Dzu6bzkzk3Tecmc9D91C6Nmi0e6hdGzRaB53dN5yZybpvOTOeh+6hdGzRaPdQujZotA87um85D6PQfdwujZotMHM8Im7E4RGxddwHJR/D6N7zD9TdmEo/jCje8w/U3ZEgAAkAAAAAAAAAAAAAAAAAAAAADFUlxhP9supDamKpLjCf7ZdSAdQraW+GV60XUwsitpb4ZXrRdTS/gOPSp4vhSqQAdU50AAEggACSAAAAAABIuJf2U3vsx89e4s1tMEuJTe+zHz17izW0xdq+ilqbN9VXs1YAMBsgAAAAAPqB9QAAAAAB/wAGAmeEzfeI/wB7jfmAmeEzfeI/3uA5KP4fRveYfqbswlH8YUb3mH6m7EoAAEgAAAAAAAAAAWCwABYLAAFgsAAWCwABYYqkuMJ/tl1IbUxVJcYT/bLqQDqWFbS3wyvWi6mlkVtLfDK9aLqYX8Bx6VPF8KVSLADqnOlgsAAWCwABYLAAFgsAAWCwAJFxL+xvfZj569xZraYJcS/sb32Y+cvcWa2mLtX0UtTZvqn2auwWAGA2SwWAALBYAAsFloH1AWCwABYLAABgJnhM33iP97jf/wDBgJnhM33iP97gOSj+H0b3mH6m7sMJR/GFG95h+puxKCwWABJYLAAFgsAAWCwABYAAAFotAEkWk2gQBaLQAFotAGKpLjCf7ZdSG1tMVSXGE/2y6kA6hW0t8Mr1ouppZWlbS3wyvWi6ml/AcelTxfClUgC06pzoBaLQAFotAAWi0ABaLQAFo/fFjAhyoiOVbEqWtTeey7q46qmJZCGqZ2nnMeKr7GrUxK/H9T0T2U+cn+nwv9pj7Xp3UUS0Nl3IruVxS14FotOebwBaLQAFotAD6i0W2gCSLSbQIAtFoAwEzwmb7xH+9xv/APgwEzwmb7xH+9wHJR/GFG95h+puzCUfw+je8w/U3dolABaLQkAtFoAC0WgALRaBIFoAgAACSAAAAAAADFUlxhP9supDamKpLjCf7ZdSAdQraW+GV60XU0sivpOHFiNlkhse+pYircIq1Vo3HUXsDMRfpmVTF/e1KnBzXrN9BG0FF7TfQRtBTp/Fo5w5/wCirk4Qc17TfQRtBRe030EbQUeLRzg+irk4Qc17TfQRtBRe030EbQUeJRzg+irk4Qc17TfQRtBRe030EbQUeJRzg+irk4Qc17TfQRtBRe03Z+RG0HDxKOcH0VcnF48nKdWLGu62N+Gu1fqc8aDPLW1stMVcqpDdb+mI4Ek55P8ALTHlv2HtRXb/AHNUKd+bk/jTTLgXF4Kek+yfzU/0+D/sPPFlJ6rgsxiX/wAbth6D7MxIUvERY8RkJLxhMriuRv4vw2VqZG2K6aqKYpne0tjUVU1VTVG77NiDrX/RuWSvnQ9ov+jctlfOh7Tm3SuyDrX/AEblsr50PaL/AKNy2V86HtA7IOtf9G5bK+dD2i/6Ny2V86HtA7I+p1r/AKNy2V86HtF/0bb/AI2V86HtA7JJ1b/o3LZXzoe0X/RuWyvnQ9oHZB1r/o3LZXzoe0X/AEblsr50PaB2TATPCZvvEf73G2v+jcslvOh7TETCtdMTTmqitdHjKipaior1VFQlDlo/jCje8w/U3ZhKP4wo3vMP1N2RIAAJAAAAAAAASCAAsFgACwWAALBYAAsFgACwxVJcYT/bLqQ2piqS4wn+2XUgHUsOpOzUSVSCsNrF94r0ddov9NzVVUp2ytpb4ZXrRdTS5hKKbl6Kao3wrYmuaLczTO5w4VmujgZnbRhWa6ODmdtK8HR+TsaIYfmr271SsMKzXRwcztowrNdHBzO2leB5Oxog81e1SsMKzPRwcztowrNdHBzO2leB5Oxog81e1SsMKzPRwcztowrM9HBzO2leSPJ2NEHmr2qXfwrM9HBzO2nDFpyaaty2FLqv9Sq12bGV8aLc/hav4lxr9P0OsetGAsT+6IVL20b0fjTVK0w5O9FLaL94Ycneil9F+8VRJ6ZfhtEK2Y4nXK0WnJ1EX8qXxc1+8WM3OxpeUlZhjIbnxVho5Ho5US6h3VlSmZXF4KXlJ8W0d1oP8KFHE4SzTdtxFMfefhewuLv1WrszVO+I+XBhuc6GW0X7ww5O9FLaD94qwXsvw2iFDMMTrlZ4cnehltB+8Thyd6GW0H7xVgeQw2iDMMTrlaYcnehltB+8MOTvQy2g/eKsDyGG0QZhidcrTDk70MtoP3hhydt/JltB+8VYHkMNogzDE65WmHJ3oZbQfvDDk70MtoP3irA8hhtEGYYnXK0w5O9DLaD94YbnehltB+8VYGX4bRBmGJ1ytFpycqX8mWxc1+8XsNyvhwnqiIr4bHKiYkVzUWwxq4l/Y2ED5Et2ML7EMXauGtWaaZt07t+9t7JxN29VVFyrfu3O7R/D6N7zD9Td2GEo/jCje8w/U3Zgy3iwWABJYLAAFgsAAWCwABYAAAAAAAAAAAAAGKpLjCf7ZdSG1MVSXGE/2y6kA6hW0t8Mr1ouppZFbS3wyvWi6ml/AcelTxfClUgA6pzoAAAAtAnWcMWLcfhb8SpyciExYvu0qT4lSz9P1OpbjXHjPWijf95Vb97d+MHrjAB7s8ABKELizl5SfFlH9aD/AAoUa4s5eUnxZR/Wg/woZuL41n3+GphODe9vlSciAciA0mYAAAAAgAAAAAAAEoX0NhA+RLdjC+xDHry/spsIHyJbsYX2Ic9tr00dXQ7E9VfR3aP4fRveYfqbswlH8YUb3mH6m7Oal0wAAkAAAAAAAAAAAAAAAAAAAAADFUlxhP8AbLqQ2piqS4wn+2XUgHUK2lvhletF1NLIraW+GV60XU0v4Dj0qeL4UqkAHVOdAAAPiJESGn/suJPUl72sStbV5E+p03Oc5Vc5bV/7Uh6UUb53q167FMboQqqqqqrWq2qACwzpnf8AsABIAAIQuLOXlJ8WUf1oP8KFGuLOXlJ8WUf1oP8AChm4vjWff4amE4N72+VJyIByIDSZgAAAACAAAAAAAAShfQ2ED5Et2ML7EMevobCB8iW7GF9iHPba9NHV0OxPVX0d2j+H0b3mH6m7MJR/D6N7zD9TdnNOnAAAAAAAAAAAAAAAAAAAAAAAADFUlxhP9supDamKpLjCf7ZdSAdQraW+GV60XU0sitpb4ZXrRdTS/gOPSp4vhSqQAdU50Pl72sSt3gn1Jc5rGq5c31Om97nuVV8P0Puin6nheuxRG6P2hznPW6djX+yfQggkssyZmZ3yAgkkAQAJBBJAhcWcvKT4so/rQf4UKNcWcvKT4so/rQf4UM7F8az7/DTwnBve3ypORARyIDSZiQQAJAIAkEEgAAEAIASL6GwgfIluxhfYhj1xeBsIHyJbsYX2Ic9tr00dXQ7E9VfR3aP4fRveYfqbswlH8YUb3mH6m7Oal0wAAkAAAAAAAAAAAAAAAAAAAAADFUlxhP8AbLqQ2piqTRcIT/bL/dEA6hW0t8Er1ouphZHHFgQI1z72Gjrmu5rVbK6q8RZw12LVyK5eF+3NyiaYZwhVa1FVy1In/ai/vKQT/Ls/vtPh0hR77HS8NUS1LXeim3mlr/YlkTs+7u+0wy0SIsR1eJP6UPk1GDaMyWFndtJwbRmSws7tp7RtmzH6ie+qnVsa/VO+ZjvoywNTg2jMlhZ3bRg2jMlhZ3bRnNnlPfV85Le5x30ZYGpwbRmSw87towbRmSws7tozmzynvqZLe5x30ZYGpwbRmSws7towbRmSws7tpOc2eU99TJb3OO+jLA1ODqMyWFndtGDaMyWHnftIzmzynvqZLe5x30ZVeX9lLyk+LaP60H+E7q0bRmSw7Uqxu2nNEl5aNDhwokJrocOq4aqrUlSXKcpVvbSt3LluuIn8Z7/1bs7NuWrdymZj8oZAGpSjaMyWHnftJwdRmSws7tpazm1ynvqqZLe5wywNTg2jMlhZ3bRg2jMlhZ3bRnNnlPfUyW9zjvoywNTg2jMlhZ3bRg2jMlhZ3bRnNnlPfUyW9zjvoywNTg2jMlhZ3bRg2jMlhZ3bRnNnlPfUyW9zjvoywNTg2jMlhZ3bRg2jMlhZ3bRnNnlPfUyW9zjvoywNTg2jMlhZ3bRg6jMlhZ3bSc5s8p76mS3ucd9GVXEv7GwgfIluxhfYhwLRtGZLCzu2naREa1rWoiNaiNaiYkREqRDL2hjaMTFMUxP2amz8DXhZqmuY+7tUfxhRveYfqbswtHcPo6ytb5h1Z6zdGQ1wABIAAAAAAAAAAAAAAAAAAAAAGbpyQiNiunYTa4T0b79EVEVjksureRQAKOpRUoBKHytaqRUoACpRUoACpRUoACpRUoACpRUoACpRUoACpRUAAqUVKAAqUVKAAqUVKAAqUVLaAAqUVKAAqUVKAAqUVKABd0HR0WJGhzsVtzBhXSwUWquJE+G6qTkQ1ABAAAJAAAAAAAAAAB//2Q==;" parent="1" vertex="1">
          <mxGeometry x="-477.1920796638462" y="388.54545454545456" width="56.15161178470125" height="29.876707423133986" as="geometry" />
        </mxCell>
        <mxCell id="eQoUt7WW08yLKn_f3m6--35" style="edgeStyle=orthogonalEdgeStyle;rounded=0;orthogonalLoop=1;jettySize=auto;html=1;" parent="1" source="eQoUt7WW08yLKn_f3m6--22" edge="1">
          <mxGeometry relative="1" as="geometry">
            <mxPoint x="-459.7288896563633" y="381.8181818181818" as="targetPoint" />
          </mxGeometry>
        </mxCell>
        <mxCell id="TUTVtr3VRNuUsHLydm8b-17" style="edgeStyle=orthogonalEdgeStyle;rounded=0;orthogonalLoop=1;jettySize=auto;html=1;" edge="1" parent="1" source="eQoUt7WW08yLKn_f3m6--22">
          <mxGeometry relative="1" as="geometry">
            <mxPoint x="-504" y="520" as="targetPoint" />
          </mxGeometry>
        </mxCell>
        <mxCell id="eQoUt7WW08yLKn_f3m6--22" value="" style="shape=image;verticalLabelPosition=bottom;labelBackgroundColor=default;verticalAlign=top;aspect=fixed;imageAspect=0;image=data:image/jpeg,/9j/4AAQSkZJRgABAQAAAQABAAD/2wBDAAsJCQcJCQcJCQkJCwkJCQkJCQsJCwsMCwsLDA0QDBEODQ4MEhkSJRodJR0ZHxwpKRYlNzU2GioyPi0pMBk7IRP/2wBDAQcICAsJCxULCxUsHRkdLCwsLCwsLCwsLCwsLCwsLCwsLCwsLCwsLCwsLCwsLCwsLCwsLCwsLCwsLCwsLCwsLCz/wAARCADYAMMDASIAAhEBAxEB/8QAGwABAQADAQEBAAAAAAAAAAAAAAYEBQcBAwL/xABAEAACAQMCAwYEBQIFAgUFAAABAgMABAURIQYSYRMiMVFxgRQyQZFiY3Kh8COxJEJSgrI1dBUWRHPRM1WSweH/xAAbAQACAwEBAQAAAAAAAAAAAAAABQMEBgIBB//EADURAAEEAAIHBgYCAgMBAAAAAAEAAgMEESEFEjFBUYGRBhMisdHwMmFxocHhI/EUUhUWkkL/2gAMAwEAAhEDEQA/AOt0pShCUpShCUpShCUpShCV5Xzmnt7eJ5p5Y4okGrPIwVR7mpDKcZAc0OKTU7j4qdSB6xRHf3b7VFJMyIYuKu1KM9x2rC3H57hzVTe5DH4+LtbydIlOvIDqXcj6Ig7x+1RWU4uvbnnix6tawHUdqSDcuOhGy+2p61OTz3N1K81xLJLM/wAzyMWbTy1P06Vk47FZPKvpZw6xA6PcSkpbp/v03PQA+1KZLckp1Y8vNbKroWrSb31ogkcdg9efRfbGZ3KYttIJA8DMXeCbVo2JOpYH5gT5g/ernF8R4rJ8kfN8PdNt2E5ALH8p/lP7HpUlkeFctYp2sPLexBQZDAhWVD9f6RJJHoT6VP8A/wA/YiuWTTVjquGSmnoUdKtMsJ8XEfkeyuz17XN8XxTk7DkiuCbu2Gg5ZW/rIv4JD/Y6+oq4x2XxuUTmtZgzqNZIX7kyfqQ/TqNR1ppDZZLs28Fjr2irFI4vGLeI2fpbClKVZStKUpQhKUpQhKUpQhKUpQhKUpQhKUpQhKa0rS5XiPF4zmjLfEXS6jsIGHdP5r+A/c9K5c9rBi44KaGCSd+pE3ErclgASToBqSSQAABrqSamcpxdYWvPDYgXdwNucE/DIf1DdvbbrUlk87lMoSs0gjt9dVt4dVi/3/Vj6/YVrUSSWRIoo3kmkOkccSl5HPRV3pVNfJ8MS2FHs41o7y2cfkNnM+iyb7I5DIydpeTvIQe4vyxx/oQbD+b187W0vL6bsLOCSeXbmCDuoD9ZHPdA9TVNi+DbiXlmyshhj2ItbdgZWH5so2Hov3q0tbOzsoUt7SCOGFfBIwANfM/UnzJriOnJKdaQ4easW9O16je6qgOI4fCPXl1Uvi+DbaPlmyrrcSbEW0ZItl6Odmb9h0NVqJHGipGqoiAKioAqqB4AAbV+qU1jiZEMGBYy1cntu1pnY+Q+gXmlafKcO4rKc8jp2F0fC4gADE/mL8re+/WtzSu3sa8YOGKihmkgdrxOwK5ZlMDlMUWeWPtbYeFzACYwPzF+ZffbrWsjkkidJYndJEIZHjYqynzVl3rspAIIO4IIIOmhFTWV4Sx93zzWJW0uDqSqjW2kP4kHh6j7GlU1EjxRLYUe0TXju7Yw+Y2cx6dFqsXxjcRcsOUQzR7AXEQAlUfjTYH1Gh9as7W8s72JZ7WaOaI7c0ba6HyYHcHoRXKr/G5HGyCO8gaPU6JIO9DJ+iQbe2x6V87W7vLKUT2k0kMo01KHZgN9HU7EdCK4iuPiOrIMfNWLegq9tvfVSATw+E+nLouw0qRxfGNvLyQ5NBBJsBcRAmFurr8y/uPSqtJI5ESSN0eNwCjowZWHmCNqaxyslGLSsZapzVHaszcPLqv3SlKlVRKUpQhKUpQhKUrHu7yzsomnu50hiH+Zzux8lUbk9AK8JAzK6a0uOq0YlZFa/I5fG4tOa7mAcglIYwGmf9KeXU6CpTKcYXEvPDjEMMZ1BuJQDM36F3Ue+p9KlJJJJHklldndiWkkkYszH6lmY60umvNblHmtTR7OySYPsnVHDf8Apb7KcU5O/wCeK3JtLU6jlib+s4/HINPsNPU1PkgeO2p0HUn6DrW0xmCy2WKvBH2VqfG6uARGR+UvzN7bdausVw5isXySKhnuwN7m4AZwfy1+VR6b9TVRkM1k6ztnvYnU1+jopndRDE8B+T/ZUji+Fcpf8kt1rZWp0I51BuZB+GNtl9W+1XOOxOMxcfJZwKrMAJJW780un+uQ7+3h0rPpTSGsyLZt4rHXtK2LuTzg3gNn7Xle0pVlK0pSlCEpSlCEpSlCF8poYLiN4Z4o5YnBDpKoZGHUGpHKcGqeabFOFO5NrOx5PSKQ7j0OvqKs6VFLCyUYOCu1L09N2tC7D5bjyXHJ4Lm1laC5hkhmXxSVeVtPMfQjqKysdlsli35rWYiMkF4ZO9A/nqn0PUaGunXuPsMhF2N5AkqeKlho6E/VHHeB9DUVlOEL615psczXUA3MLaC5QdPBW/Y9DSmSpJCdaM4+a2VXTVW63ubQAJ47D6c+q3+L4qxt/wAkVwRaXR0ASVh2Uh/LkOg9jp71QCuMkEFkZSrKeV1YEMpHiGU761VcIZLIPfjHPO8lqLWaURyd8xlCgXlY7gbnbXSp690uIY8ZpfpPQLImOsVzkMyD+D69Ve0pSmiyCUpShCkMpxjBHzw4tBM+4NxKCIV/QmzH30HrUbdXd5ezGe7mkmlOvec/KDvoqjYDoAK+Hjv51lWD41LmNsjBNPaj5o4X5Dr5sNiR05h/+jnJJ3zHBxy+y+p1tH16DCYmYnq4r2wx2RychjsYGl5TpJIe7BF+uQ7ew1PSrbFcIY+05Jr4i9uRowDrpbRt+GI+Pq2voK3GNucTc2sf/hrQ/DxgKI4VCdl+Fo9iPtWfTSCpGzxHMrHaR03ZmJiaNQcN/M+i8AA0AGgA0AHgB5V7SlX1nUpSlCEpSlCEpSlCEpSlCEpSlCEpSlCEpSlCFq8lg8VlRrcwkTDQLcQEJOB5FtNx6g1k2OOx+Ni7Kzt0iU7uQNXkP+qRz3ifU1l1+HkjjR5JHRI0GrvIQqqPMljpXGo0HWwzU5sTOjEJcS3hjl0X72rHuryzsomnup44YhtzOfE+Sgbk9AKmcpxjbxc8OMQTSbg3EoYQr+hdmP7D1qMury8vpWnu55JpTr3nOygnXRFGwHQCqc11jMmZlPaOgJ7GD5vA379N3PouijinhwgH4wjUA6GGYEajXQjlpXM6VU/5CTgE7/61V/2d9vRdHyvC2Mvy81v/AIS6bVi8SjspD+ZENB7jQ+tQ2RxOTxb8t3CRGTok8erwP6PpsehANda2r8vHHIjxyIjo4KujgMrA/Qg7VdmpskzGRWeo6csVcGv8TeB28iuPQT3NrKk9vLJDMvyvGxVvQ+Y6GrDF8ZA8sOVTlPh8VCp5fWWIb+4+1fTKcHW8vPNi3EEh1Jt5STA3RG3Zf3HpUbdWl5YzGC7gkhlGugcbMPNGHdI9DS7Caqfl9lqdahplmB+Lo4e+YXXIZ4LiNJoJUlicao8bBlI6EV9a5FY5HIY6TtLOdoyTq6fNFJ+tDsf71bYvi6wuuSK+C2k50AcsTbOfDZzuvv8AemMNxkmTsisxe0FYrYuj8bflt5j0VPSvAQwBBBB0IIOoIP1BFe1dWfSlKUISlKUISlKUISlKUISlKGhCV5rWqyeexeLBWaTtLjTVbeHRpenPvoB6/vUNlOI8pk+eMt8PanUdhAx7w/NfYn9h0qrNaZFkczwTejoixc8QGq3ifxxVdlOKsbY9pFb6Xd0NQVib+ih/HINvYa+1Q+Ry2Tyj813MSgOqQx6rAn6U18epJPWsAakoqgszEKioCzMT9FVdyfaqbF8IX91yS5FzaQHQ9iuhunHk3iq/ufSlbpZrR1W7Fr46lHRDO8kOfE7T9B7+ZU7DDcXMy29tDJPO24jiXmbTzP0A6kisjIY67xk0dvddn2zwRzssbFggcsOUtoNSNN66jY4/H46LsbO3SJNixXUvIf8AVI7d4n1NQvGX/V1/7K3/AOUldTVBDHrE4lR0tNG7b7pjcG4H6n095qcpSlL1pV1qyyuLyBkWzuo5XQkMg1V9AdOYK4B066VmiuNI8kbpJG7JIh5kdGKspH1VhvVVi+MbmHlhyaGeMbCeIATqPxrsrfsfWnUN9rspMlgrvZ2SLx1jrDhv/avK+F1Z2d7E0F1BHNE3+WQa6HzU+IPUGvLW8sr2ITWk8c0R+qNup8mU7g9CKyKYZOHELMeON28EciFCZTg64i55sW5mTcm2mYCVR5RyHY+h0PU1KOkkTvFKjxyoeV45FKup/Erb12atfkcRjMonLdwhnUaRyoeWaP8AS439jqOlL5qLXZx5LT0e0UkWDLI1hx3/AL81zvGZ3K4oqsEnaW+u9vNq0X+z6r7fY1c4viPF5Pkj5/h7o7dhOwHMfKJ/A/selSWU4VydhzS2wa8thqSY10njH44x4+o+wqf2P3/cVUbNNWOq7Z72J3NRo6VZ3sR8XEfkez812gUrm+L4pydhyRTk3dsNByyt/WQfglO/sdfarfHZfGZRdbWYGQDV4ZO7Mn6kP06jUU0hssl2HNY+9oqxSzeMW8Rs/S2NKajz/elWUqSlP540/njQhKV8ri4traJ5riaOKJPmeRgqjpqfr5VHZTjFjzw4pNPEfFTrv6xRN/dvtUMszIhi4q7UoT3HasLcfnuCqr7JY/HR9reTrGDryLuZJCPoiDc1E5Ti2/u+eKwDWludRz6g3Lj9Q2X2361OzTz3EjzXEsksr/M8rFmPufp5Vl43E5TLPpZw6xA6Pcykrbp597Tc9AD7UqktyTHVjGHmtnV0LVot76yQSOOwct/PosAt8zM3iSzMx8SfqSa3OL4by2T5JCvwto2h7e4U87r+VFsT6nQetV2K4VxmPKTT/wCMvF0IkmUdnG35UW4HqdT1qh8vapYaG+Xoqd7tGBiyoOZ/A9ei1WLwWLxQ1t4uacjR7mbvzt0DaaAdABW1p/PGvGZVDMxAVQWYsQAANySTTRrWsGDRgFkJZZJnF8hJJ4r3zrnXGX/V1/7K3/5yVvMpxfZWxeHHqt1ONR2hJFsp6Ebt7aDrUReXt5fztc3cpklYBddFUKo10VQuwApZdnY5uo04lazQGjp45f8AIkGAw37enqselNvP96UoW2zTy6kD7nSsu+x2QxsnZ3kDR6kiN/mik/Q42Pp49KxP9P6k/wCQrsc0EFxE8M8UcsTjR0lVWVh1Bq5WricOzwISLSmlHaPfH4cQ7HHjlhs6rkVtdXdlKJ7WZ4ZR/mjOnMPJh4EdCKs8XxjBJyQ5RBC+wFxECYW6um7D21HpXyynBo702JflO5NrO3dPSKU7j0OvqKkJ7e5tZWguYZIZl8UlXlbTzH0I6iusZqp+X2XGrQ0y3EfF0cPfMLsEckUqJJE6PG41R42DKw8ww2r91yXHZXJYt+a0mKoTq8L96GT9SH69RoetXGK4qxt8UiudLS5OgAlYdjI34JDt7HT3pjDcZJkciste0HYq4uZ4m8Rt5hUNabK8OYvKc0hT4e6P/qIAoZj+anyt779a3Ote1acxrxg4YhJ4Z5IH68TsCuV5PBZTFEtPGJLbXa5gBaP/AHjxU+u3WtajyRukkbskiEMjxsVZT5qy712UgEEEagggg6aEH6GpnK8I2F3zzWLLZ3B1JQLrbOeqDdfUfY0rmoEeKLothR7RNf8Ax2xh8xs5j06LVYvjC5h5Icmhnj2AuIgBOo8O+uyt+x9as7S9sr6ITWk8c0Z8Sh3U+TqdwehFcrvsdkcbJ2d5A0ZJ0Rx3opP0SDY+nj0r5W11d2cqz2s0kMo/zRnTUeTDwI6EGuIrkkR1ZM/NWLeg61tve1SGk8PhPpy6LsJZVDMxAVQWYkgAAbkkmpfKcXWVtzxY9VuphqDKSRbIehG7e2g61I5DNZbJhUupz2QA/oxDs4iR/mZR4n1PppWAiySOkUSPJLIdI44lLyOfwqu9dS3i7wxBQUuzrGeO2cfkNnMrIvchf5GXtbyd5WGvIDtHGPJEHdH2r52treX03w9nBJPL9RGO6gP1kc90D1NU2L4NuJuWbKyGGPxFrAwMrD82Vdh6DX1FWtrZ2llCsFpBHDCvgkSgDXzP1J8ya5ipySnWkOHmp7ena9RvdVQHEf8AkevLqpfF8G20XLNlXW4k2ItoyRbL0c7M37DoarURI1REVURQFVUAVVA8AANq/VNaaxxMiGDQsZauz23a0zsfIfQJXmtYGRzGMxaa3U2khGqQR6NO/omvh1JAqGynFGUv+eKAm0tW2KRN/VcfmSjf2GnvUc1lkWR28Fao6KsXc2DBvE7P2q3KcSYvG88Qb4m6XbsIWGiN5Sybgem56VDZPN5TKki4l5INdVt4dVhGngWHiT6/tWs1A01+p0HUn6ACqHF8KZS/5ZbvmsbY6HvqDdSD8MZ2X1b7UrfNNZOq0Ze9q2ENCjolneynPifwFoESSWRIYo3lmkOkccSl5HPRRvVZi+DZ5eWbLSGJPEWtu47Q9JZV2Hov3qrx2JxuLjMdnAELAdpK3fml/XI25/tWeKtw0WtzkzSS/wBopJcWVhqjjv8A15/NYCYfCRokaY+zCoAqjsUOw8yRrSs+lX9RvBZozSHMuPVcX+q/qT/kK7QK4v8A/wAI9t6s8XxkRyQ5VOnxUC/vLEP7j7UnozMjJDjhit12gozWWsfCMdXHHjnh6K10rEvcfYZCIw3kCSoNSpOzofNHHeB9DX1guLa6iSa3ljlicd14mDKfcV9qdEBwzWDBfG7EZEdVz/KcIXttzzY5muoBqTE3KLlB08Fb9j0NTBBVnRgVZSVdWBDKR9GB3rs+grWZTCYvKjW4i5ZwNEuIdFmXyBbwI6EGls1AOzjyWqo9o3swZaGI4jbz4+9qg8XxFlcZyRh/iLUaDsJyTyj8p/mH7jpV1i89i8oFWGTs7jTvW82iydeT6Eeh+1Q+U4ayuN55VX4q1Gp7aBTzoPzYtyPUaj0rSA6FWU7ggqyncEeBBFVmWJa51XjL3sTefRtLSbe+gOB4j8j+iuzg17XPcXxbf2nJFfBruAaDnJAuUH6js3vv1q2sclj8lH2tpOkgGnOnhJGT9HQ94U0isMl+E5rG3dGWKR/kGXEbP1zWRNBb3EbwzxRyxONHSVVZSOoao/K8GjvzYl+U7k2s7Hl9IpTuPQ6+oq0pXcsLJRg4KKpenpu1oXYfLceS5xjuE8vePzXYNjbqxDdoFe4fQ6HkQEqB1J9jVvjsRjMXGUtIQrsAJJnPPNJ+tzv7eHSthoKVHFWjizAzU93Stm7lIcG8Bs/fNKGvxJJFEjySukcaAs7yMFRR5szbVJ5TjGCPnhxaCZ9wbiVSIl/Qh0Y++g9akklZEMXFVqtKe27Vhbj5Dmqe6vbOxiM93PHDEP8AM53Y+SqO8T0AqLynGNzNzQ4xDBGdQZ5ADOw/Au6r+59Kmrq7vL2Vp7qd5pTr3nPgPJQNgOgAr6WGOyOTkMdjbmXlOkkrdyCP9ch216DU9KVS3JJTqxjDzWzqaDr1G99aIJHH4R68+ixpHeRpJZXZ3YlpHkYszH6lmbetli8DlstyvDH2NqdNbq4BEZH5SfM3toOtVuL4Rx1oUmviL24BDBXXS2jYf6Yz4+ra+gqmAAAAAAAAGg+ldw0SfFL0Ve92jaz+OoMfmdnIevRabE8OYrF8sioZ7sAA3NwFLj/21+VR6fc1ugKV4f5tTRjGsGDRgsfNPJO/XldifmvfOvxJJHEjySukcaDmd5GCoo82Y7VoMpxVjbHnittLu5Go0jbSFD+OQa6+g19qh8jlsllH5ruYlAdUhTVYY/0pr+5JPWqs1xkeQzKcUdB2LWDn+FvE7eQXRf8AzDw9/wDcrb/8m/8Ailct1pVP/kX/AOoT3/rMH+5+yvcpwfZ3HPNjmW1mOpMLAm2c9AN19tR0qKvLG+x8vY3kDwudeQtukgH1jcd0j3rr9fG4trW7ieC5hjmhf5klXmX13+tWpqTH5tyKTUdPz18GS+Nv3HP1XJ7LIX+Pl7WzneJj84G8cnR0PdP2q1xfF9lc8sWQUWs50AkBJtnPqd199utYOU4NkXnmxUnMu5NrO3eHSKU/2b71IyxTQSPDPG8UybPHKpV19QaoB01U4HZ9lpHRUNMt1m/F0cPrx+/1XY1YMFZSCrDmUqdQQRqCCNq/VcqxubymLYC3l5oNdWt5tWiOvjyjxB9D96ucVxLi8kUiZvhrptB2M5Gjnyik2B/Y9KZw22S5bCspe0LYqYuHibxH5HsLeVoMrwvjMgXliHwt2dzJCo7N2/Nj2B9Roetb/b+a0qw9jXjBwxSuCxLXfrxOwK5PksPlMU3+Kh1h10W4i1aBvLVvEHoQPesOGae3kSaCWSKVPleNirDpqK7E6JIrI6qyMCrKwBVgfoQdqlcpwdaT88uMYW03j2D6m2c/h/zL7ajpSqai5viiK2NLtDHKO7tjD57uY98li4vjJhyw5VNRsBdQLv6yxD+6/arG3uLe5iSa3ljlicaq8bBlPTUfWuSXdlfWEvYXkDwyHXl5t1cD6o47pHoa/VlkL/HS9rZztEx051G8cnR0OxryK6+M6sox81Jc0DBZb3tQgY9D6Lr1TuU4qxtjzxW2l3cjUcsbaQxn8cg/sNfapHJcRZfJr2UkiwwFQGhtuZFk8+cklj6a6f3rTgEsiKrM7kLGiKWd2P0VVGpPtXc1/dF1Vel2cA8ds8h+T6dVnZHLZPKPzXcxKA6pCgKwx/pTX9zqetYsEFzdTLb2sMs87eEcK8zAebfQDqSKpMXwffXPJNkma0gOh7BCDcuPxNuq/ufSrayx9hjohBZwRwx+LcoPM5/1Ox7xPqaijqSTHWkOHmrdrTVWk3uaoDiOGwc9/LqpXF8GKOSbLyBz4/CW7ERjpLKNCfQaDqasIYYYI44YYo4ooxypHGgVFHkFXavp/PrTamsULIhg0LG2709x2tM7H5bhySlYV/ksdjY+1u51j115EGrSSdEQbmonKcW5C754rENaW525wdblx+obL7feuZrDIviOalpaMsXT/GMuJ2fvkq3J57F4sMssnaXOmq28GjSdOffRR6n2NQ2U4iymT5oy/YWp1/oQFgGH5r+LfsOlaZmHeZj4nVmY+JP1JNbvF8M5bJckjqbO0Oh7WdD2si/lQnQ+50HrSt9iWwdVgyWyg0bS0WzvpzieJ/A/srSgFmRFDM7kKiIpZ3PkqruftX3urO8snjiu4jFK8STiNipZUckDm5SdDsdRXTcZg8VilPwsOsxGj3Ex5539XI2HQACo3jH/AKuv/ZW//OSuZahij13HNe1NNC5a7mJuDcDmdp9FOUpSqK0K7FBdWl0rtbTwzKjFHMLq4VgdNDymvsK47bXN1ZyrPazSQyr4NGdNR5MPAjoQascXxlE/JDlU7NvAXMIJjPWSMbj1Go6CnsN5j8n5FfPbvZ+eDxw+Mffpv5dFY1hX+Mx2Si7O8gWTQHkcarLGfNHHeFZMcsU0aSxSJJG41R42DIw8wRtX0q6QHDA7FnmPfE7WacCFzvKcJ5Gz55bIteW41JVQBcoOqDZvbfpU35g+IOjAjcEfQg/Wuz6Vqcpw/i8pzPLH2Vzp3bmDRZP948GHqPtS2agDnH0Wso9o3NwZaGI4jbzG/wB7VGYvifJ4/kimJu7UaAJMx7VB+XKdT7HX2q5xuZxeUTW1mHagavBJ3Zk9U13HUEiuf5Ph7K4vmd07e1Gp+IgBIUfmp8y/uOtapHdGSSN2V1IZHjYqyn6FWXeq7LMsB1XjqmdjRVPSTe+rkAneNnMeyuy6ivagsXxhdQckOSQ3EQ0Anj0E6jw7y7K37H1q0tL6yvohNaTpNHsCUO6nydT3gfUU1inZKPCVjbmjrFI/yty47l+rm1tLuJ4LmGOaJvFJV5l9Rr9etR2U4NkTmlxUnOu5NrO3fHSKU7H0P3q4pXssDJRg4LmnpCemcYXZcNx5LmeO4XzN++s0ZsrdWKvJcqe1bQ6ERw+PuSB61cYzB4rFL/hotZyuj3E3fnf/AHEbDoABW00pXENWOLMbVYvaXs3PC44N4DZz4pSvyzKqszEKqgszMdAoG5JJqYynF9nb88OOVbqYagysSLZD003b20HWpZJWRjFxVOtUmtO1IW4+96o7i5tbWJ57mWOGFPF5WCr6DX6+QqPynGTHnhxSco3HxU6949Yojt7t9ql7y/v8hL213O8rjXlB2RAfoiDuj7V+bOzvshN2FlA80g05+XaOMH6ySHuj+bUqluvkOrEMPNbKnoCCu3vbZBI/8j159F85pp55HmnleWVzq7ysWY+pNZmNw+UyzD4SHSDXR7mbVbdfPlPix6AH1FVmL4Ns4OSbKOt3MNCIF1Fqh6g7t77dKqlRUVVUBVUAKqgAADYAAbV7FRc7xSlR3e0McQ7uoMfnuH0H9c1osVwvi8aUmkHxd2uh7adRyofyot1Hruetb4Cva81pqyNsY1WjBY6exLYfryuxK9rnXGX/AFhf+yt/+UlVGV4mxeO54kPxV0uoMULDlQ/myeA9BqelQGRyN1lLlrq5CByqxqsa8qoikkKNd/qfE0vvTMLdQHNabs9RnbN/kObg3Dfv+iw6UpSdbnNW2U4NjbnmxTiNvH4WZiYz/wC3IdWHodR6VH3FtdWkrQXUMkMy7lJBoSPNT4EdQTXYqxbyxsb+EwXcCSx7kc47yHzRh3gfQ07motfmzIr59R7QTQYMn8Tfv++fVcusMpksY/PaTlFJBeJu9DJ+pDt7jQ9at8XxZjr3kiu9LS5Og/qN/Qc/hkPh6HT1NaXKcH3dvzzY1zcxDU9hJoLhR+Btlb9j61LMrIzo6sroSro6lWU+TK29UWyTVTgdn2WhfWoaYZrsPi4jIj6j15FdmB10r2uXYviHK4vlRH7e1H/p5ySoH5b/ADL/AG6VdYvP4vKcqRydlckb28+iya6f5D4MPT7CmkNpkuWwrI3tD2KeLiNZvEfnh7zW32qcynCmNvS8trpZ3J1JMa6wSN+OIab9Rp71RCvanfG2QYOCX17MtZ2vC7ArkmQxeSxj8l5AVUnSOZDzQSfpfTTXodD0r4W9zdWcqz200kMq+DxtoSPJh4EdCK6/JFFNG8UsaSRuOV0kUMrDyIO1SWU4Nhfnmxcghfcm2mJMJPlG+7L6HUelKZaTmHWiOPmtlT7QRTjurYwx37j9Ru8l5i+Mon5IcogjbZRcwqTGeskY3HqNfQVWxTQzxpLDIkkTjVHjYMjDoRtXIbm1u7OZoLqCSGYb8sg01HmpGxHUE197DKZLGPz2k7ICdXibvQyfrQ7e40PWvYrzmHVlHqi52finHe1Dhju3H6e8F1qtHlOJsXjueJG+Jul1HYwsOVD5SyeA9Nz0qQyXE+XyCdkGFrAVAdLYsGk235pD3tD5DT3rR7DQeZCqANSSfooG+tdzX90fVV6PZs/HbPIfk+nVbLJZvKZQkXMukOuq28Wqwjy1GupPUk+1a+OOWaRIYI5JZpPkiiUu7egH061QYvhPJ3vLLelrK2OhCkA3Tjoh2X336VcY/F43GRGOzgWPXTtJD3pZD5ySN3jUEdWWc68hwV+zpipQZ3NYAkbhsH1O/kpTF8GyvyzZaTkXY/CW7949JZh/ZfvVnbWtpaRJBawxwwp8qRAKo67fWvtSm0UDIh4Qsbc0hPcdjK7LhuHJKVjXl9ZWERmu50hj30LnvOfJFHeJ9BUXlOMLufmhxqm3iOxmcA3DD8I3Vf3PpXks7Ih4ivaejrF0/wATcuJ2KryWaxmLU/EzAykapBFo0z/7ddh1JAqGynE+UyPPFEfhbVtR2cLHtHHh/Ul2PsNB61o3dnZ5JHLMxLO8jEsx+pZm3raYvAZbK8rxp2FodNbm4UhWHnCmzN+w60qksyznVYFsq+iqejmd9YIJG87OQ/srVagaDzICgbkk/QAb61RYvhPJ3vJLelrK2O/KwBupB0Q7L779KrsVw9isVo8cfbXQGhuZ9Gl68g+VR6D71uKsQ0AM5OiW3u0bnYsqDD5nbyHr9lpI+F+HI0RPg+blGnM8srMx82PN40rd0q/3Mf8AqFmjdsnPvD1KUpSpVUStbksLjMopFzD/AFQCEni0SdPRtNx0IIrZUrlzQ4YOCkjlfE4PjOBHBc0ynDGVx3PLGDd2o1PaQqe1QfmRDf3GvtWiB8CD4HUEH6jyIrs9aLKcM4vJF5UX4W7bczQKOVz+bH8p9dj1pXNQ3xdFrqPaP/4tjmPyPTopnF8WZCz5Ir0Nd240AYkC4QdHOx9D96t7DJ4/JR9paTq+gBdD3ZY+jodxXNsnhcpimPxMXNBrotzDq0LfqPiD0OnvWBFLPBIk0ErxSpukkbFXX0IqKO1JCdWQYq9a0NUvt76sQCd42Hkuy0qIxfGLryQ5VOYbD4qBRzDrJENvcfarG3ubW6iSe2mjlib5XjIYa+R6+YprFMyUYtKxtuhPTdhK3LjuK/F3ZWV9CYLuCOaM7gON1P8AqRhuD1BqLynB11BzzYx2uItybeUgTqPwPsre+h9avaV5LAyUeILqnpGxSP8AE7Lgdnv6Ll+O4czWRb/6LWturFXnu0ZTsdCI4jo5P2HWrjF8PYrFBXijMt1po1zccrS9Qm2ij0A963FK4hqxxZjMqxe0xYueEnVbwH54+XySleH6+9TmU4rx1lzxWvLd3I1HcbS3jP4pB4+g+4qd8jYxi44JfXrS2X6kLcSqCWWKGN5ZZEjjQau8jKqKPMsdqk8pxjGnPDi0Ej7g3MykRjrHGdCfU6DoalchlMlk5Oe7mLKpJjiXuwx/oQbe51PWsa3t7q7mW3tYJJ5zvyRDUgebk90DqSKUy3nP8MQ9VsqXZ+KEd7bOOG7cPrx8l7c3V3eStPdTSTSt4vIdSB5AeAHQAV9sfjcllH5LKBpAG5ZJmPJbx/rk8Neg1PSqrF8GRryTZaQStsRawMRCOksmzN6DQetV0UUMMaRQxpHGgCokahUUeQVdqIqLnnWly817c7QQwDuqgxI37h9OPkp7FcJY6yKTXhF7dDQjtFAt42/LiPiep19qpAPCvaU1jjbGMGhYyxamtP15nYn3s4JSlKkVdKUpQhP54U/nhSlCE/nhT+eFKUIT+eFP54UpQheMqsrKygqwKsGAIIP0INSuU4Psp+ebGstrN4mEgm2c9AN19tR0qrpUckTJBg8K1WtzVHa8LsPLmFyC8sb/AB8vY3kDwudeUsNUkA+sbjun70s76+x8vbWc7xPtzcu6OB9HQ90j2rrNxbW11E8FzFHLC47ySqGU9dD9ajspwa6882KkLL4m1nbvDpFKf7H70qlpPjOtEcfNbKpp6Cy3urYAJ5tPpzyWbi+L7O45Isiq20x0AlXU27nrruvvqOtVCujqrIQysAyspBVgdwQRtXHJYpoJHhnjkimT545VKuvqDWfjc1lMWwFtLzQa6tby6tC2v1A8QeoIr2K8WnVlUV3s6yQd5UOHy3ciura1qMpn8ViwySydrc6arbw6NJ05z4KPU+xqRyPFuTvF7O1UWURUBzE5adj9dJNBoPQA9fpU4SBqzH66kk+JPmTUk18DKPqq9Hs452D7RwHAbeZ9FuMpxDlMpzxu/YWp1Hw8BIVh+Y3i39ulahQzMkaKzyOeWNI1LO58lVdz9q3eL4Yy2S5JZFNnaNv2kyntpB+VCdD7tp6GrrGYTFYpdLWH+qw0kuJe/PJ6ufAdBoOlV2VpbB1n/dNLGlKejWdzAMSNw2cz/ZUli+D7255Jsm5tYfEW8RU3Lj8bjVV9tT6Va2dhY4+IQWcEcMY3IRd2Pm7HvE9SayqU1hrsi+EZrG3dJWLp/lOXAbPf1Sn88KUqdLk/nhT+eFKUIT+eFP54UpQhP54UpShCUpShCUpShCUpShCUpShCV5tSlCFh5DGY7JRdldwLJp8jjVZYz5o43FRGU4TyNmWlsi15b7nkAAuUHVRs3tv0pSq00DJQS4Zpro/SVio4Njdkdx2e/otZjcLlcq3+Gh5YQxWS5n1WFSNiB/mJHkB7irnFcMYvGlJnHxV4u4nnUaIfyo/lHruetKVXqQMDBIRmmOmtJWDO6sHYNGWW/wCvvBb3avaUpisylKUoQlKUoQlKUoQlKUoQlKUoQv/Z;" parent="1" vertex="1">
          <mxGeometry x="-520.7239970068497" y="272.5" width="32.97226627558648" height="36.51597573938598" as="geometry" />
        </mxCell>
        <mxCell id="eQoUt7WW08yLKn_f3m6--30" value="Cleaned Data" style="text;html=1;align=center;verticalAlign=middle;whiteSpace=wrap;rounded=0;" parent="1" vertex="1">
          <mxGeometry x="-473.973407010879" y="423.8636363636364" width="50.42307028147125" height="25.22727272727273" as="geometry" />
        </mxCell>
        <mxCell id="eQoUt7WW08yLKn_f3m6--40" style="edgeStyle=orthogonalEdgeStyle;rounded=0;orthogonalLoop=1;jettySize=auto;html=1;" parent="1" source="eQoUt7WW08yLKn_f3m6--32" edge="1">
          <mxGeometry relative="1" as="geometry">
            <mxPoint x="-350.47890404650894" y="381.8181818181818" as="targetPoint" />
            <Array as="points">
              <mxPoint x="-350" y="291" />
            </Array>
          </mxGeometry>
        </mxCell>
        <mxCell id="TUTVtr3VRNuUsHLydm8b-18" style="edgeStyle=orthogonalEdgeStyle;rounded=0;orthogonalLoop=1;jettySize=auto;html=1;exitX=0.5;exitY=1;exitDx=0;exitDy=0;" edge="1" parent="1" source="eQoUt7WW08yLKn_f3m6--32">
          <mxGeometry relative="1" as="geometry">
            <mxPoint x="-384.67893737392023" y="530" as="targetPoint" />
            <mxPoint x="-384.69000000000005" y="319.015975739386" as="sourcePoint" />
          </mxGeometry>
        </mxCell>
        <mxCell id="eQoUt7WW08yLKn_f3m6--32" value="" style="shape=image;verticalLabelPosition=bottom;labelBackgroundColor=default;verticalAlign=top;aspect=fixed;imageAspect=0;image=data:image/jpeg,/9j/4AAQSkZJRgABAQAAAQABAAD/2wBDAAsJCQcJCQcJCQkJCwkJCQkJCQsJCwsMCwsLDA0QDBEODQ4MEhkSJRodJR0ZHxwpKRYlNzU2GioyPi0pMBk7IRP/2wBDAQcICAsJCxULCxUsHRkdLCwsLCwsLCwsLCwsLCwsLCwsLCwsLCwsLCwsLCwsLCwsLCwsLCwsLCwsLCwsLCwsLCz/wAARCADYAMMDASIAAhEBAxEB/8QAGwABAQADAQEBAAAAAAAAAAAAAAYEBQcBAwL/xABAEAACAQMCAwYEBQIFAgUFAAABAgMABAURIQYSYRMiMVFxgRQyQZFiY3Kh8COxJEJSgrI1dBUWRHPRM1WSweH/xAAbAQACAwEBAQAAAAAAAAAAAAAABQMEBgIBB//EADURAAEEAAIHBgYCAgMBAAAAAAEAAgMEESEFEjFBUYGRBhMisdHwMmFxocHhI/EUUhUWkkL/2gAMAwEAAhEDEQA/AOt0pShCUpShCUpShCUpShCV5Xzmnt7eJ5p5Y4okGrPIwVR7mpDKcZAc0OKTU7j4qdSB6xRHf3b7VFJMyIYuKu1KM9x2rC3H57hzVTe5DH4+LtbydIlOvIDqXcj6Ig7x+1RWU4uvbnnix6tawHUdqSDcuOhGy+2p61OTz3N1K81xLJLM/wAzyMWbTy1P06Vk47FZPKvpZw6xA6PcSkpbp/v03PQA+1KZLckp1Y8vNbKroWrSb31ogkcdg9efRfbGZ3KYttIJA8DMXeCbVo2JOpYH5gT5g/ernF8R4rJ8kfN8PdNt2E5ALH8p/lP7HpUlkeFctYp2sPLexBQZDAhWVD9f6RJJHoT6VP8A/wA/YiuWTTVjquGSmnoUdKtMsJ8XEfkeyuz17XN8XxTk7DkiuCbu2Gg5ZW/rIv4JD/Y6+oq4x2XxuUTmtZgzqNZIX7kyfqQ/TqNR1ppDZZLs28Fjr2irFI4vGLeI2fpbClKVZStKUpQhKUpQhKUpQhKUpQhKUpQhKUpQhKa0rS5XiPF4zmjLfEXS6jsIGHdP5r+A/c9K5c9rBi44KaGCSd+pE3ErclgASToBqSSQAABrqSamcpxdYWvPDYgXdwNucE/DIf1DdvbbrUlk87lMoSs0gjt9dVt4dVi/3/Vj6/YVrUSSWRIoo3kmkOkccSl5HPRV3pVNfJ8MS2FHs41o7y2cfkNnM+iyb7I5DIydpeTvIQe4vyxx/oQbD+b187W0vL6bsLOCSeXbmCDuoD9ZHPdA9TVNi+DbiXlmyshhj2ItbdgZWH5so2Hov3q0tbOzsoUt7SCOGFfBIwANfM/UnzJriOnJKdaQ4easW9O16je6qgOI4fCPXl1Uvi+DbaPlmyrrcSbEW0ZItl6Odmb9h0NVqJHGipGqoiAKioAqqB4AAbV+qU1jiZEMGBYy1cntu1pnY+Q+gXmlafKcO4rKc8jp2F0fC4gADE/mL8re+/WtzSu3sa8YOGKihmkgdrxOwK5ZlMDlMUWeWPtbYeFzACYwPzF+ZffbrWsjkkidJYndJEIZHjYqynzVl3rspAIIO4IIIOmhFTWV4Sx93zzWJW0uDqSqjW2kP4kHh6j7GlU1EjxRLYUe0TXju7Yw+Y2cx6dFqsXxjcRcsOUQzR7AXEQAlUfjTYH1Gh9as7W8s72JZ7WaOaI7c0ba6HyYHcHoRXKr/G5HGyCO8gaPU6JIO9DJ+iQbe2x6V87W7vLKUT2k0kMo01KHZgN9HU7EdCK4iuPiOrIMfNWLegq9tvfVSATw+E+nLouw0qRxfGNvLyQ5NBBJsBcRAmFurr8y/uPSqtJI5ESSN0eNwCjowZWHmCNqaxyslGLSsZapzVHaszcPLqv3SlKlVRKUpQhKUpQhKUrHu7yzsomnu50hiH+Zzux8lUbk9AK8JAzK6a0uOq0YlZFa/I5fG4tOa7mAcglIYwGmf9KeXU6CpTKcYXEvPDjEMMZ1BuJQDM36F3Ue+p9KlJJJJHklldndiWkkkYszH6lmY60umvNblHmtTR7OySYPsnVHDf8Apb7KcU5O/wCeK3JtLU6jlib+s4/HINPsNPU1PkgeO2p0HUn6DrW0xmCy2WKvBH2VqfG6uARGR+UvzN7bdausVw5isXySKhnuwN7m4AZwfy1+VR6b9TVRkM1k6ztnvYnU1+jopndRDE8B+T/ZUji+Fcpf8kt1rZWp0I51BuZB+GNtl9W+1XOOxOMxcfJZwKrMAJJW780un+uQ7+3h0rPpTSGsyLZt4rHXtK2LuTzg3gNn7Xle0pVlK0pSlCEpSlCEpSlCF8poYLiN4Z4o5YnBDpKoZGHUGpHKcGqeabFOFO5NrOx5PSKQ7j0OvqKs6VFLCyUYOCu1L09N2tC7D5bjyXHJ4Lm1laC5hkhmXxSVeVtPMfQjqKysdlsli35rWYiMkF4ZO9A/nqn0PUaGunXuPsMhF2N5AkqeKlho6E/VHHeB9DUVlOEL615psczXUA3MLaC5QdPBW/Y9DSmSpJCdaM4+a2VXTVW63ubQAJ47D6c+q3+L4qxt/wAkVwRaXR0ASVh2Uh/LkOg9jp71QCuMkEFkZSrKeV1YEMpHiGU761VcIZLIPfjHPO8lqLWaURyd8xlCgXlY7gbnbXSp690uIY8ZpfpPQLImOsVzkMyD+D69Ve0pSmiyCUpShCkMpxjBHzw4tBM+4NxKCIV/QmzH30HrUbdXd5ezGe7mkmlOvec/KDvoqjYDoAK+Hjv51lWD41LmNsjBNPaj5o4X5Dr5sNiR05h/+jnJJ3zHBxy+y+p1tH16DCYmYnq4r2wx2RychjsYGl5TpJIe7BF+uQ7ew1PSrbFcIY+05Jr4i9uRowDrpbRt+GI+Pq2voK3GNucTc2sf/hrQ/DxgKI4VCdl+Fo9iPtWfTSCpGzxHMrHaR03ZmJiaNQcN/M+i8AA0AGgA0AHgB5V7SlX1nUpSlCEpSlCEpSlCEpSlCEpSlCEpSlCEpSlCFq8lg8VlRrcwkTDQLcQEJOB5FtNx6g1k2OOx+Ni7Kzt0iU7uQNXkP+qRz3ifU1l1+HkjjR5JHRI0GrvIQqqPMljpXGo0HWwzU5sTOjEJcS3hjl0X72rHuryzsomnup44YhtzOfE+Sgbk9AKmcpxjbxc8OMQTSbg3EoYQr+hdmP7D1qMury8vpWnu55JpTr3nOygnXRFGwHQCqc11jMmZlPaOgJ7GD5vA379N3PouijinhwgH4wjUA6GGYEajXQjlpXM6VU/5CTgE7/61V/2d9vRdHyvC2Mvy81v/AIS6bVi8SjspD+ZENB7jQ+tQ2RxOTxb8t3CRGTok8erwP6PpsehANda2r8vHHIjxyIjo4KujgMrA/Qg7VdmpskzGRWeo6csVcGv8TeB28iuPQT3NrKk9vLJDMvyvGxVvQ+Y6GrDF8ZA8sOVTlPh8VCp5fWWIb+4+1fTKcHW8vPNi3EEh1Jt5STA3RG3Zf3HpUbdWl5YzGC7gkhlGugcbMPNGHdI9DS7Caqfl9lqdahplmB+Lo4e+YXXIZ4LiNJoJUlicao8bBlI6EV9a5FY5HIY6TtLOdoyTq6fNFJ+tDsf71bYvi6wuuSK+C2k50AcsTbOfDZzuvv8AemMNxkmTsisxe0FYrYuj8bflt5j0VPSvAQwBBBB0IIOoIP1BFe1dWfSlKUISlKUISlKUISlKUISlKGhCV5rWqyeexeLBWaTtLjTVbeHRpenPvoB6/vUNlOI8pk+eMt8PanUdhAx7w/NfYn9h0qrNaZFkczwTejoixc8QGq3ifxxVdlOKsbY9pFb6Xd0NQVib+ih/HINvYa+1Q+Ry2Tyj813MSgOqQx6rAn6U18epJPWsAakoqgszEKioCzMT9FVdyfaqbF8IX91yS5FzaQHQ9iuhunHk3iq/ufSlbpZrR1W7Fr46lHRDO8kOfE7T9B7+ZU7DDcXMy29tDJPO24jiXmbTzP0A6kisjIY67xk0dvddn2zwRzssbFggcsOUtoNSNN66jY4/H46LsbO3SJNixXUvIf8AVI7d4n1NQvGX/V1/7K3/AOUldTVBDHrE4lR0tNG7b7pjcG4H6n095qcpSlL1pV1qyyuLyBkWzuo5XQkMg1V9AdOYK4B066VmiuNI8kbpJG7JIh5kdGKspH1VhvVVi+MbmHlhyaGeMbCeIATqPxrsrfsfWnUN9rspMlgrvZ2SLx1jrDhv/avK+F1Z2d7E0F1BHNE3+WQa6HzU+IPUGvLW8sr2ITWk8c0R+qNup8mU7g9CKyKYZOHELMeON28EciFCZTg64i55sW5mTcm2mYCVR5RyHY+h0PU1KOkkTvFKjxyoeV45FKup/Erb12atfkcRjMonLdwhnUaRyoeWaP8AS439jqOlL5qLXZx5LT0e0UkWDLI1hx3/AL81zvGZ3K4oqsEnaW+u9vNq0X+z6r7fY1c4viPF5Pkj5/h7o7dhOwHMfKJ/A/selSWU4VydhzS2wa8thqSY10njH44x4+o+wqf2P3/cVUbNNWOq7Z72J3NRo6VZ3sR8XEfkez812gUrm+L4pydhyRTk3dsNByyt/WQfglO/sdfarfHZfGZRdbWYGQDV4ZO7Mn6kP06jUU0hssl2HNY+9oqxSzeMW8Rs/S2NKajz/elWUqSlP540/njQhKV8ri4traJ5riaOKJPmeRgqjpqfr5VHZTjFjzw4pNPEfFTrv6xRN/dvtUMszIhi4q7UoT3HasLcfnuCqr7JY/HR9reTrGDryLuZJCPoiDc1E5Ti2/u+eKwDWludRz6g3Lj9Q2X2361OzTz3EjzXEsksr/M8rFmPufp5Vl43E5TLPpZw6xA6Pcykrbp597Tc9AD7UqktyTHVjGHmtnV0LVot76yQSOOwct/PosAt8zM3iSzMx8SfqSa3OL4by2T5JCvwto2h7e4U87r+VFsT6nQetV2K4VxmPKTT/wCMvF0IkmUdnG35UW4HqdT1qh8vapYaG+Xoqd7tGBiyoOZ/A9ei1WLwWLxQ1t4uacjR7mbvzt0DaaAdABW1p/PGvGZVDMxAVQWYsQAANySTTRrWsGDRgFkJZZJnF8hJJ4r3zrnXGX/V1/7K3/5yVvMpxfZWxeHHqt1ONR2hJFsp6Ebt7aDrUReXt5fztc3cpklYBddFUKo10VQuwApZdnY5uo04lazQGjp45f8AIkGAw37enqselNvP96UoW2zTy6kD7nSsu+x2QxsnZ3kDR6kiN/mik/Q42Pp49KxP9P6k/wCQrsc0EFxE8M8UcsTjR0lVWVh1Bq5WricOzwISLSmlHaPfH4cQ7HHjlhs6rkVtdXdlKJ7WZ4ZR/mjOnMPJh4EdCKs8XxjBJyQ5RBC+wFxECYW6um7D21HpXyynBo702JflO5NrO3dPSKU7j0OvqKkJ7e5tZWguYZIZl8UlXlbTzH0I6iusZqp+X2XGrQ0y3EfF0cPfMLsEckUqJJE6PG41R42DKw8ww2r91yXHZXJYt+a0mKoTq8L96GT9SH69RoetXGK4qxt8UiudLS5OgAlYdjI34JDt7HT3pjDcZJkciste0HYq4uZ4m8Rt5hUNabK8OYvKc0hT4e6P/qIAoZj+anyt779a3Ote1acxrxg4YhJ4Z5IH68TsCuV5PBZTFEtPGJLbXa5gBaP/AHjxU+u3WtajyRukkbskiEMjxsVZT5qy712UgEEEagggg6aEH6GpnK8I2F3zzWLLZ3B1JQLrbOeqDdfUfY0rmoEeKLothR7RNf8Ax2xh8xs5j06LVYvjC5h5Icmhnj2AuIgBOo8O+uyt+x9as7S9sr6ITWk8c0Z8Sh3U+TqdwehFcrvsdkcbJ2d5A0ZJ0Rx3opP0SDY+nj0r5W11d2cqz2s0kMo/zRnTUeTDwI6EGuIrkkR1ZM/NWLeg61tve1SGk8PhPpy6LsJZVDMxAVQWYkgAAbkkmpfKcXWVtzxY9VuphqDKSRbIehG7e2g61I5DNZbJhUupz2QA/oxDs4iR/mZR4n1PppWAiySOkUSPJLIdI44lLyOfwqu9dS3i7wxBQUuzrGeO2cfkNnMrIvchf5GXtbyd5WGvIDtHGPJEHdH2r52treX03w9nBJPL9RGO6gP1kc90D1NU2L4NuJuWbKyGGPxFrAwMrD82Vdh6DX1FWtrZ2llCsFpBHDCvgkSgDXzP1J8ya5ipySnWkOHmp7ena9RvdVQHEf8AkevLqpfF8G20XLNlXW4k2ItoyRbL0c7M37DoarURI1REVURQFVUAVVA8AANq/VNaaxxMiGDQsZauz23a0zsfIfQJXmtYGRzGMxaa3U2khGqQR6NO/omvh1JAqGynFGUv+eKAm0tW2KRN/VcfmSjf2GnvUc1lkWR28Fao6KsXc2DBvE7P2q3KcSYvG88Qb4m6XbsIWGiN5Sybgem56VDZPN5TKki4l5INdVt4dVhGngWHiT6/tWs1A01+p0HUn6ACqHF8KZS/5ZbvmsbY6HvqDdSD8MZ2X1b7UrfNNZOq0Ze9q2ENCjolneynPifwFoESSWRIYo3lmkOkccSl5HPRRvVZi+DZ5eWbLSGJPEWtu47Q9JZV2Hov3qrx2JxuLjMdnAELAdpK3fml/XI25/tWeKtw0WtzkzSS/wBopJcWVhqjjv8A15/NYCYfCRokaY+zCoAqjsUOw8yRrSs+lX9RvBZozSHMuPVcX+q/qT/kK7QK4v8A/wAI9t6s8XxkRyQ5VOnxUC/vLEP7j7UnozMjJDjhit12gozWWsfCMdXHHjnh6K10rEvcfYZCIw3kCSoNSpOzofNHHeB9DX1guLa6iSa3ljlicd14mDKfcV9qdEBwzWDBfG7EZEdVz/KcIXttzzY5muoBqTE3KLlB08Fb9j0NTBBVnRgVZSVdWBDKR9GB3rs+grWZTCYvKjW4i5ZwNEuIdFmXyBbwI6EGls1AOzjyWqo9o3swZaGI4jbz4+9qg8XxFlcZyRh/iLUaDsJyTyj8p/mH7jpV1i89i8oFWGTs7jTvW82iydeT6Eeh+1Q+U4ayuN55VX4q1Gp7aBTzoPzYtyPUaj0rSA6FWU7ggqyncEeBBFVmWJa51XjL3sTefRtLSbe+gOB4j8j+iuzg17XPcXxbf2nJFfBruAaDnJAuUH6js3vv1q2sclj8lH2tpOkgGnOnhJGT9HQ94U0isMl+E5rG3dGWKR/kGXEbP1zWRNBb3EbwzxRyxONHSVVZSOoao/K8GjvzYl+U7k2s7Hl9IpTuPQ6+oq0pXcsLJRg4KKpenpu1oXYfLceS5xjuE8vePzXYNjbqxDdoFe4fQ6HkQEqB1J9jVvjsRjMXGUtIQrsAJJnPPNJ+tzv7eHSthoKVHFWjizAzU93Stm7lIcG8Bs/fNKGvxJJFEjySukcaAs7yMFRR5szbVJ5TjGCPnhxaCZ9wbiVSIl/Qh0Y++g9akklZEMXFVqtKe27Vhbj5Dmqe6vbOxiM93PHDEP8AM53Y+SqO8T0AqLynGNzNzQ4xDBGdQZ5ADOw/Au6r+59Kmrq7vL2Vp7qd5pTr3nPgPJQNgOgAr6WGOyOTkMdjbmXlOkkrdyCP9ch216DU9KVS3JJTqxjDzWzqaDr1G99aIJHH4R68+ixpHeRpJZXZ3YlpHkYszH6lmbetli8DlstyvDH2NqdNbq4BEZH5SfM3toOtVuL4Rx1oUmviL24BDBXXS2jYf6Yz4+ra+gqmAAAAAAAAGg+ldw0SfFL0Ve92jaz+OoMfmdnIevRabE8OYrF8sioZ7sAA3NwFLj/21+VR6fc1ugKV4f5tTRjGsGDRgsfNPJO/XldifmvfOvxJJHEjySukcaDmd5GCoo82Y7VoMpxVjbHnittLu5Go0jbSFD+OQa6+g19qh8jlsllH5ruYlAdUhTVYY/0pr+5JPWqs1xkeQzKcUdB2LWDn+FvE7eQXRf8AzDw9/wDcrb/8m/8Ailct1pVP/kX/AOoT3/rMH+5+yvcpwfZ3HPNjmW1mOpMLAm2c9AN19tR0qKvLG+x8vY3kDwudeQtukgH1jcd0j3rr9fG4trW7ieC5hjmhf5klXmX13+tWpqTH5tyKTUdPz18GS+Nv3HP1XJ7LIX+Pl7WzneJj84G8cnR0PdP2q1xfF9lc8sWQUWs50AkBJtnPqd199utYOU4NkXnmxUnMu5NrO3eHSKU/2b71IyxTQSPDPG8UybPHKpV19QaoB01U4HZ9lpHRUNMt1m/F0cPrx+/1XY1YMFZSCrDmUqdQQRqCCNq/VcqxubymLYC3l5oNdWt5tWiOvjyjxB9D96ucVxLi8kUiZvhrptB2M5Gjnyik2B/Y9KZw22S5bCspe0LYqYuHibxH5HsLeVoMrwvjMgXliHwt2dzJCo7N2/Nj2B9Roetb/b+a0qw9jXjBwxSuCxLXfrxOwK5PksPlMU3+Kh1h10W4i1aBvLVvEHoQPesOGae3kSaCWSKVPleNirDpqK7E6JIrI6qyMCrKwBVgfoQdqlcpwdaT88uMYW03j2D6m2c/h/zL7ajpSqai5viiK2NLtDHKO7tjD57uY98li4vjJhyw5VNRsBdQLv6yxD+6/arG3uLe5iSa3ljlicaq8bBlPTUfWuSXdlfWEvYXkDwyHXl5t1cD6o47pHoa/VlkL/HS9rZztEx051G8cnR0OxryK6+M6sox81Jc0DBZb3tQgY9D6Lr1TuU4qxtjzxW2l3cjUcsbaQxn8cg/sNfapHJcRZfJr2UkiwwFQGhtuZFk8+cklj6a6f3rTgEsiKrM7kLGiKWd2P0VVGpPtXc1/dF1Vel2cA8ds8h+T6dVnZHLZPKPzXcxKA6pCgKwx/pTX9zqetYsEFzdTLb2sMs87eEcK8zAebfQDqSKpMXwffXPJNkma0gOh7BCDcuPxNuq/ufSrayx9hjohBZwRwx+LcoPM5/1Ox7xPqaijqSTHWkOHmrdrTVWk3uaoDiOGwc9/LqpXF8GKOSbLyBz4/CW7ERjpLKNCfQaDqasIYYYI44YYo4ooxypHGgVFHkFXavp/PrTamsULIhg0LG2709x2tM7H5bhySlYV/ksdjY+1u51j115EGrSSdEQbmonKcW5C754rENaW525wdblx+obL7feuZrDIviOalpaMsXT/GMuJ2fvkq3J57F4sMssnaXOmq28GjSdOffRR6n2NQ2U4iymT5oy/YWp1/oQFgGH5r+LfsOlaZmHeZj4nVmY+JP1JNbvF8M5bJckjqbO0Oh7WdD2si/lQnQ+50HrSt9iWwdVgyWyg0bS0WzvpzieJ/A/srSgFmRFDM7kKiIpZ3PkqruftX3urO8snjiu4jFK8STiNipZUckDm5SdDsdRXTcZg8VilPwsOsxGj3Ex5539XI2HQACo3jH/AKuv/ZW//OSuZahij13HNe1NNC5a7mJuDcDmdp9FOUpSqK0K7FBdWl0rtbTwzKjFHMLq4VgdNDymvsK47bXN1ZyrPazSQyr4NGdNR5MPAjoQascXxlE/JDlU7NvAXMIJjPWSMbj1Go6CnsN5j8n5FfPbvZ+eDxw+Mffpv5dFY1hX+Mx2Si7O8gWTQHkcarLGfNHHeFZMcsU0aSxSJJG41R42DIw8wRtX0q6QHDA7FnmPfE7WacCFzvKcJ5Gz55bIteW41JVQBcoOqDZvbfpU35g+IOjAjcEfQg/Wuz6Vqcpw/i8pzPLH2Vzp3bmDRZP948GHqPtS2agDnH0Wso9o3NwZaGI4jbzG/wB7VGYvifJ4/kimJu7UaAJMx7VB+XKdT7HX2q5xuZxeUTW1mHagavBJ3Zk9U13HUEiuf5Ph7K4vmd07e1Gp+IgBIUfmp8y/uOtapHdGSSN2V1IZHjYqyn6FWXeq7LMsB1XjqmdjRVPSTe+rkAneNnMeyuy6ivagsXxhdQckOSQ3EQ0Anj0E6jw7y7K37H1q0tL6yvohNaTpNHsCUO6nydT3gfUU1inZKPCVjbmjrFI/yty47l+rm1tLuJ4LmGOaJvFJV5l9Rr9etR2U4NkTmlxUnOu5NrO3fHSKU7H0P3q4pXssDJRg4LmnpCemcYXZcNx5LmeO4XzN++s0ZsrdWKvJcqe1bQ6ERw+PuSB61cYzB4rFL/hotZyuj3E3fnf/AHEbDoABW00pXENWOLMbVYvaXs3PC44N4DZz4pSvyzKqszEKqgszMdAoG5JJqYynF9nb88OOVbqYagysSLZD003b20HWpZJWRjFxVOtUmtO1IW4+96o7i5tbWJ57mWOGFPF5WCr6DX6+QqPynGTHnhxSco3HxU6949Yojt7t9ql7y/v8hL213O8rjXlB2RAfoiDuj7V+bOzvshN2FlA80g05+XaOMH6ySHuj+bUqluvkOrEMPNbKnoCCu3vbZBI/8j159F85pp55HmnleWVzq7ysWY+pNZmNw+UyzD4SHSDXR7mbVbdfPlPix6AH1FVmL4Ns4OSbKOt3MNCIF1Fqh6g7t77dKqlRUVVUBVUAKqgAADYAAbV7FRc7xSlR3e0McQ7uoMfnuH0H9c1osVwvi8aUmkHxd2uh7adRyofyot1Hruetb4Cva81pqyNsY1WjBY6exLYfryuxK9rnXGX/AFhf+yt/+UlVGV4mxeO54kPxV0uoMULDlQ/myeA9BqelQGRyN1lLlrq5CByqxqsa8qoikkKNd/qfE0vvTMLdQHNabs9RnbN/kObg3Dfv+iw6UpSdbnNW2U4NjbnmxTiNvH4WZiYz/wC3IdWHodR6VH3FtdWkrQXUMkMy7lJBoSPNT4EdQTXYqxbyxsb+EwXcCSx7kc47yHzRh3gfQ07motfmzIr59R7QTQYMn8Tfv++fVcusMpksY/PaTlFJBeJu9DJ+pDt7jQ9at8XxZjr3kiu9LS5Og/qN/Qc/hkPh6HT1NaXKcH3dvzzY1zcxDU9hJoLhR+Btlb9j61LMrIzo6sroSro6lWU+TK29UWyTVTgdn2WhfWoaYZrsPi4jIj6j15FdmB10r2uXYviHK4vlRH7e1H/p5ySoH5b/ADL/AG6VdYvP4vKcqRydlckb28+iya6f5D4MPT7CmkNpkuWwrI3tD2KeLiNZvEfnh7zW32qcynCmNvS8trpZ3J1JMa6wSN+OIab9Rp71RCvanfG2QYOCX17MtZ2vC7ArkmQxeSxj8l5AVUnSOZDzQSfpfTTXodD0r4W9zdWcqz200kMq+DxtoSPJh4EdCK6/JFFNG8UsaSRuOV0kUMrDyIO1SWU4Nhfnmxcghfcm2mJMJPlG+7L6HUelKZaTmHWiOPmtlT7QRTjurYwx37j9Ru8l5i+Mon5IcogjbZRcwqTGeskY3HqNfQVWxTQzxpLDIkkTjVHjYMjDoRtXIbm1u7OZoLqCSGYb8sg01HmpGxHUE197DKZLGPz2k7ICdXibvQyfrQ7e40PWvYrzmHVlHqi52finHe1Dhju3H6e8F1qtHlOJsXjueJG+Jul1HYwsOVD5SyeA9Nz0qQyXE+XyCdkGFrAVAdLYsGk235pD3tD5DT3rR7DQeZCqANSSfooG+tdzX90fVV6PZs/HbPIfk+nVbLJZvKZQkXMukOuq28Wqwjy1GupPUk+1a+OOWaRIYI5JZpPkiiUu7egH061QYvhPJ3vLLelrK2OhCkA3Tjoh2X336VcY/F43GRGOzgWPXTtJD3pZD5ySN3jUEdWWc68hwV+zpipQZ3NYAkbhsH1O/kpTF8GyvyzZaTkXY/CW7949JZh/ZfvVnbWtpaRJBawxwwp8qRAKo67fWvtSm0UDIh4Qsbc0hPcdjK7LhuHJKVjXl9ZWERmu50hj30LnvOfJFHeJ9BUXlOMLufmhxqm3iOxmcA3DD8I3Vf3PpXks7Ih4ivaejrF0/wATcuJ2KryWaxmLU/EzAykapBFo0z/7ddh1JAqGynE+UyPPFEfhbVtR2cLHtHHh/Ul2PsNB61o3dnZ5JHLMxLO8jEsx+pZm3raYvAZbK8rxp2FodNbm4UhWHnCmzN+w60qksyznVYFsq+iqejmd9YIJG87OQ/srVagaDzICgbkk/QAb61RYvhPJ3vJLelrK2O/KwBupB0Q7L779KrsVw9isVo8cfbXQGhuZ9Gl68g+VR6D71uKsQ0AM5OiW3u0bnYsqDD5nbyHr9lpI+F+HI0RPg+blGnM8srMx82PN40rd0q/3Mf8AqFmjdsnPvD1KUpSpVUStbksLjMopFzD/AFQCEni0SdPRtNx0IIrZUrlzQ4YOCkjlfE4PjOBHBc0ynDGVx3PLGDd2o1PaQqe1QfmRDf3GvtWiB8CD4HUEH6jyIrs9aLKcM4vJF5UX4W7bczQKOVz+bH8p9dj1pXNQ3xdFrqPaP/4tjmPyPTopnF8WZCz5Ir0Nd240AYkC4QdHOx9D96t7DJ4/JR9paTq+gBdD3ZY+jodxXNsnhcpimPxMXNBrotzDq0LfqPiD0OnvWBFLPBIk0ErxSpukkbFXX0IqKO1JCdWQYq9a0NUvt76sQCd42Hkuy0qIxfGLryQ5VOYbD4qBRzDrJENvcfarG3ubW6iSe2mjlib5XjIYa+R6+YprFMyUYtKxtuhPTdhK3LjuK/F3ZWV9CYLuCOaM7gON1P8AqRhuD1BqLynB11BzzYx2uItybeUgTqPwPsre+h9avaV5LAyUeILqnpGxSP8AE7Lgdnv6Ll+O4czWRb/6LWturFXnu0ZTsdCI4jo5P2HWrjF8PYrFBXijMt1po1zccrS9Qm2ij0A963FK4hqxxZjMqxe0xYueEnVbwH54+XySleH6+9TmU4rx1lzxWvLd3I1HcbS3jP4pB4+g+4qd8jYxi44JfXrS2X6kLcSqCWWKGN5ZZEjjQau8jKqKPMsdqk8pxjGnPDi0Ej7g3MykRjrHGdCfU6DoalchlMlk5Oe7mLKpJjiXuwx/oQbe51PWsa3t7q7mW3tYJJ5zvyRDUgebk90DqSKUy3nP8MQ9VsqXZ+KEd7bOOG7cPrx8l7c3V3eStPdTSTSt4vIdSB5AeAHQAV9sfjcllH5LKBpAG5ZJmPJbx/rk8Neg1PSqrF8GRryTZaQStsRawMRCOksmzN6DQetV0UUMMaRQxpHGgCokahUUeQVdqIqLnnWly817c7QQwDuqgxI37h9OPkp7FcJY6yKTXhF7dDQjtFAt42/LiPiep19qpAPCvaU1jjbGMGhYyxamtP15nYn3s4JSlKkVdKUpQhP54U/nhSlCE/nhT+eFKUIT+eFP54UpQheMqsrKygqwKsGAIIP0INSuU4Psp+ebGstrN4mEgm2c9AN19tR0qrpUckTJBg8K1WtzVHa8LsPLmFyC8sb/AB8vY3kDwudeUsNUkA+sbjun70s76+x8vbWc7xPtzcu6OB9HQ90j2rrNxbW11E8FzFHLC47ySqGU9dD9ajspwa6882KkLL4m1nbvDpFKf7H70qlpPjOtEcfNbKpp6Cy3urYAJ5tPpzyWbi+L7O45Isiq20x0AlXU27nrruvvqOtVCujqrIQysAyspBVgdwQRtXHJYpoJHhnjkimT545VKuvqDWfjc1lMWwFtLzQa6tby6tC2v1A8QeoIr2K8WnVlUV3s6yQd5UOHy3ciura1qMpn8ViwySydrc6arbw6NJ05z4KPU+xqRyPFuTvF7O1UWURUBzE5adj9dJNBoPQA9fpU4SBqzH66kk+JPmTUk18DKPqq9Hs452D7RwHAbeZ9FuMpxDlMpzxu/YWp1Hw8BIVh+Y3i39ulahQzMkaKzyOeWNI1LO58lVdz9q3eL4Yy2S5JZFNnaNv2kyntpB+VCdD7tp6GrrGYTFYpdLWH+qw0kuJe/PJ6ufAdBoOlV2VpbB1n/dNLGlKejWdzAMSNw2cz/ZUli+D7255Jsm5tYfEW8RU3Lj8bjVV9tT6Va2dhY4+IQWcEcMY3IRd2Pm7HvE9SayqU1hrsi+EZrG3dJWLp/lOXAbPf1Sn88KUqdLk/nhT+eFKUIT+eFP54UpQhP54UpShCUpShCUpShCUpShCUpShCV5tSlCFh5DGY7JRdldwLJp8jjVZYz5o43FRGU4TyNmWlsi15b7nkAAuUHVRs3tv0pSq00DJQS4Zpro/SVio4Njdkdx2e/otZjcLlcq3+Gh5YQxWS5n1WFSNiB/mJHkB7irnFcMYvGlJnHxV4u4nnUaIfyo/lHruetKVXqQMDBIRmmOmtJWDO6sHYNGWW/wCvvBb3avaUpisylKUoQlKUoQlKUoQlKUoQlKUoQv/Z;" parent="1" vertex="1">
          <mxGeometry x="-400.6750705117136" y="272.5" width="32.97226627558648" height="36.51597573938598" as="geometry" />
        </mxCell>
        <mxCell id="eQoUt7WW08yLKn_f3m6--45" style="edgeStyle=orthogonalEdgeStyle;rounded=0;orthogonalLoop=1;jettySize=auto;html=1;" parent="1" source="eQoUt7WW08yLKn_f3m6--54" edge="1">
          <mxGeometry relative="1" as="geometry">
            <mxPoint x="-148.78662292062404" y="407.0454545454545" as="targetPoint" />
          </mxGeometry>
        </mxCell>
        <mxCell id="eQoUt7WW08yLKn_f3m6--42" value="" style="shape=image;verticalLabelPosition=bottom;labelBackgroundColor=default;verticalAlign=top;aspect=fixed;imageAspect=0;image=data:image/jpeg,/9j/4AAQSkZJRgABAQAAAQABAAD/2wBDAAsJCQcJCQcJCQkJCwkJCQkJCQsJCwsMCwsLDA0QDBEODQ4MEhkSJRodJR0ZHxwpKRYlNzU2GioyPi0pMBk7IRP/2wBDAQcICAsJCxULCxUsHRkdLCwsLCwsLCwsLCwsLCwsLCwsLCwsLCwsLCwsLCwsLCwsLCwsLCwsLCwsLCwsLCwsLCz/wAARCADYAZYDASIAAhEBAxEB/8QAGwABAAMAAwEAAAAAAAAAAAAAAAEFBgMEBwL/xABGEAABAgIDCgsGBQIGAwAAAAAAAQIDBAURIRIUFTFUkZKx0dI0NUFSU3JzdIGTwQYTMjNRsiIjYXGzQqEkRHXC4fBDYmP/xAAaAQEAAwEBAQAAAAAAAAAAAAAAAQQFBgMC/8QAKxEBAAECAwYFBQEAAAAAAAAAAAECAwQVUgURM1GB8BMUMnHBEiEiMaFB/9oADAMBAAIRAxEAPwD1sAAAAAAAAAADIe01LxUiPoyXcjWI1t9uREVXOcl0kNFXkSys155tTaqtLUpXlDs1yiAV9aitSABNaitSABNaitSABNaitSABNaitSABNaitSABNaitSABNaitSABNaitSABNaitSABNaitSABNaitbSB9QJrUVqhB8PdXYniBDnKtiYqz5rUABWorUADV+zFNRkjwaLmXNdBiNVso6pEdDe233aqmOvk/Y2p5ZRC1UtQ9WWwsy1oepgAAAAAAAAAAAAAAAAAAAAAAAADzWmuNqU7y7Uh6Uea01xtSneXakArwABIIAEggASCAAJIAAAACSAAJIJAgAAAABJAAAfUHw51VgB7lX8KHxViAAAAAAAO7RHG1D99g6z1M8sojjah++wdZ6mAAAAAAAAAAAAAAAAAAAAAAAAAPPKYlJ19KUm9sFVY6YcrVu4KVpUnI51Z6GYqkqsIT/bLqQCivGfydfMgb4vGfydfMgb5ZeA8AhW3jP5OvmQN8XjP5OvmQN8svAeAFbeM/k6+ZA3xeM/k6+ZA3yy8B4AVt4z+Tr5kDfF4z+Tr5kDfLLwHgBW3jP5OvmQN8XjP5OvmQN8svAeAFbeM/k6+ZA3xeM/k6+ZA3yy8B4AVt4z+Tr5kDfF4z+Tr5kDfLLwHgBW3jP5OvmQN8m8Z/J18yBvljZ9BZ9AK28Z/J18yBvi8Z/J18yBvll4DwArbxn8nXzIG+Lxn8nXzIG+WXgPACtvGfydfMgb4vGfydfMgb5ZHyqoEq10nSCWJLrb/APSBvnHeE/k6+ZA3y0sFloFZeNIZOvmQN8XjSGTr5kDfLOwWAVl40hk6+ZA3xeNIZOvmQN8s7BYBV3jSGTr5kDfF40hk6+ZA3y0qQVIBwUVJTzaUop74CtaybhOct3CWpK8dSOr/ALHpZhKP4fRveYfqbsAAAAAAAAAAAAAAAAAAAAAAAAAYqkuMJ/tl1IbUxVJcYT/bLqQDqCpVxAraWVyNlalVPxRa1RVrxN+hYsWvGuRRv/bxu3PDompZ3LvoouXc1TMXTuc7SUXTuc7ScamUzqZ2Yxpae5dzVFy7mqZi6dznaThdO5ztJxOUzq/icxjS09y7mqLl3NUzF07nO0nC6dznaThlM6v4ZjGlp7l3NUXLuapmLp3OdpO2i6dznaThlM6v4ZjGlp7l3NUXLuapmLp3OdpO2i6dznaThlM6v4ZjGlp7l3NUXLuapmLp3OdpO2i6dznaTiMpnV/DMY0tPU5OQ+VVExqiGZunVL+J2LnO2m79mUR0ZbpEX/AsX8SV8rfqU8Xg5w0RO/fvWcNifHmY3blTdN5yE3TechvvdwujZotHu4XRs0WlBcYC6bzkF0znJnN/7uF0bNFo93C6Nmi0Dz9XsT+pM58Xbecmc9E93C6Nmi0e6hdGzRaB53dN5yZybptv4kznofuoXRs0Wj3UK38tmi0Dzu6bzkzk3Tecmc9D91C6Nmi0e6hdGzRaB53dN5yZybpvOTOeh+6hdGzRaPdQujZotA87um85D6PQfdwujZotMHM8Im7E4RGxddwHJR/D6N7zD9TdmEo/jCje8w/U3ZEgAAkAAAAAAAAAAAAAAAAAAAAADFUlxhP9supDamKpLjCf7ZdSAdQraW+GV60XUwsitpb4ZXrRdTS/gOPSp4vhSqQAdU50AAEggACSAAAAAABIuJf2U3vsx89e4s1tMEuJTe+zHz17izW0xdq+ilqbN9VXs1YAMBsgAAAAAPqB9QAAAAAB/wAGAmeEzfeI/wB7jfmAmeEzfeI/3uA5KP4fRveYfqbswlH8YUb3mH6m7EoAAEgAAAAAAAAAAWCwABYLAAFgsAAWCwABYYqkuMJ/tl1IbUxVJcYT/bLqQDqWFbS3wyvWi6mlkVtLfDK9aLqYX8Bx6VPF8KVSLADqnOlgsAAWCwABYLAAFgsAAWCwAJFxL+xvfZj569xZraYJcS/sb32Y+cvcWa2mLtX0UtTZvqn2auwWAGA2SwWAALBYAAsFloH1AWCwABYLAABgJnhM33iP97jf/wDBgJnhM33iP97gOSj+H0b3mH6m7sMJR/GFG95h+puxKCwWABJYLAAFgsAAWCwABYAAAFotAEkWk2gQBaLQAFotAGKpLjCf7ZdSG1tMVSXGE/2y6kA6hW0t8Mr1ouppZWlbS3wyvWi6ml/AcelTxfClUgC06pzoBaLQAFotAAWi0ABaLQAFo/fFjAhyoiOVbEqWtTeey7q46qmJZCGqZ2nnMeKr7GrUxK/H9T0T2U+cn+nwv9pj7Xp3UUS0Nl3IruVxS14FotOebwBaLQAFotAD6i0W2gCSLSbQIAtFoAwEzwmb7xH+9xv/APgwEzwmb7xH+9wHJR/GFG95h+puzCUfw+je8w/U3dolABaLQkAtFoAC0WgALRaBIFoAgAACSAAAAAAADFUlxhP9supDamKpLjCf7ZdSAdQraW+GV60XU0sivpOHFiNlkhse+pYircIq1Vo3HUXsDMRfpmVTF/e1KnBzXrN9BG0FF7TfQRtBTp/Fo5w5/wCirk4Qc17TfQRtBRe030EbQUeLRzg+irk4Qc17TfQRtBRe030EbQUeJRzg+irk4Qc17TfQRtBRe030EbQUeJRzg+irk4Qc17TfQRtBRe03Z+RG0HDxKOcH0VcnF48nKdWLGu62N+Gu1fqc8aDPLW1stMVcqpDdb+mI4Ek55P8ALTHlv2HtRXb/AHNUKd+bk/jTTLgXF4Kek+yfzU/0+D/sPPFlJ6rgsxiX/wAbth6D7MxIUvERY8RkJLxhMriuRv4vw2VqZG2K6aqKYpne0tjUVU1VTVG77NiDrX/RuWSvnQ9ov+jctlfOh7Tm3SuyDrX/AEblsr50PaL/AKNy2V86HtA7IOtf9G5bK+dD2i/6Ny2V86HtA7I+p1r/AKNy2V86HtF/0bb/AI2V86HtA7JJ1b/o3LZXzoe0X/RuWyvnQ9oHZB1r/o3LZXzoe0X/AEblsr50PaB2TATPCZvvEf73G2v+jcslvOh7TETCtdMTTmqitdHjKipaior1VFQlDlo/jCje8w/U3ZhKP4wo3vMP1N2RIAAJAAAAAAAASCAAsFgACwWAALBYAAsFgACwxVJcYT/bLqQ2piqS4wn+2XUgHUsOpOzUSVSCsNrF94r0ddov9NzVVUp2ytpb4ZXrRdTS5hKKbl6Kao3wrYmuaLczTO5w4VmujgZnbRhWa6ODmdtK8HR+TsaIYfmr271SsMKzXRwcztowrNdHBzO2leB5Oxog81e1SsMKzPRwcztowrNdHBzO2leB5Oxog81e1SsMKzPRwcztowrM9HBzO2leSPJ2NEHmr2qXfwrM9HBzO2nDFpyaaty2FLqv9Sq12bGV8aLc/hav4lxr9P0OsetGAsT+6IVL20b0fjTVK0w5O9FLaL94Ycneil9F+8VRJ6ZfhtEK2Y4nXK0WnJ1EX8qXxc1+8WM3OxpeUlZhjIbnxVho5Ho5US6h3VlSmZXF4KXlJ8W0d1oP8KFHE4SzTdtxFMfefhewuLv1WrszVO+I+XBhuc6GW0X7ww5O9FLaD94qwXsvw2iFDMMTrlZ4cnehltB+8Thyd6GW0H7xVgeQw2iDMMTrlaYcnehltB+8MOTvQy2g/eKsDyGG0QZhidcrTDk70MtoP3hhydt/JltB+8VYHkMNogzDE65WmHJ3oZbQfvDDk70MtoP3irA8hhtEGYYnXK0w5O9DLaD94YbnehltB+8VYGX4bRBmGJ1ytFpycqX8mWxc1+8XsNyvhwnqiIr4bHKiYkVzUWwxq4l/Y2ED5Et2ML7EMXauGtWaaZt07t+9t7JxN29VVFyrfu3O7R/D6N7zD9Td2GEo/jCje8w/U3Zgy3iwWABJYLAAFgsAAWCwABYAAAAAAAAAAAAAGKpLjCf7ZdSG1MVSXGE/2y6kA6hW0t8Mr1ouppZFbS3wyvWi6ml/AcelTxfClUgA6pzoAAAAtAnWcMWLcfhb8SpyciExYvu0qT4lSz9P1OpbjXHjPWijf95Vb97d+MHrjAB7s8ABKELizl5SfFlH9aD/AAoUa4s5eUnxZR/Wg/woZuL41n3+GphODe9vlSciAciA0mYAAAAAgAAAAAAAEoX0NhA+RLdjC+xDHry/spsIHyJbsYX2Ic9tr00dXQ7E9VfR3aP4fRveYfqbswlH8YUb3mH6m7Oal0wAAkAAAAAAAAAAAAAAAAAAAAADFUlxhP8AbLqQ2piqS4wn+2XUgHUK2lvhletF1NLIraW+GV60XU0v4Dj0qeL4UqkAHVOdAAAPiJESGn/suJPUl72sStbV5E+p03Oc5Vc5bV/7Uh6UUb53q167FMboQqqqqqrWq2qACwzpnf8AsABIAAIQuLOXlJ8WUf1oP8KFGuLOXlJ8WUf1oP8AChm4vjWff4amE4N72+VJyIByIDSZgAAAACAAAAAAAAShfQ2ED5Et2ML7EMevobCB8iW7GF9iHPba9NHV0OxPVX0d2j+H0b3mH6m7MJR/D6N7zD9TdnNOnAAAAAAAAAAAAAAAAAAAAAAAADFUlxhP9supDamKpLjCf7ZdSAdQraW+GV60XU0sitpb4ZXrRdTS/gOPSp4vhSqQAdU50Pl72sSt3gn1Jc5rGq5c31Om97nuVV8P0Puin6nheuxRG6P2hznPW6djX+yfQggkssyZmZ3yAgkkAQAJBBJAhcWcvKT4so/rQf4UKNcWcvKT4so/rQf4UM7F8az7/DTwnBve3ypORARyIDSZiQQAJAIAkEEgAAEAIASL6GwgfIluxhfYhj1xeBsIHyJbsYX2Ic9tr00dXQ7E9VfR3aP4fRveYfqbswlH8YUb3mH6m7Oal0wAAkAAAAAAAAAAAAAAAAAAAAADFUlxhP8AbLqQ2piqTRcIT/bL/dEA6hW0t8Er1ouphZHHFgQI1z72Gjrmu5rVbK6q8RZw12LVyK5eF+3NyiaYZwhVa1FVy1In/ai/vKQT/Ls/vtPh0hR77HS8NUS1LXeim3mlr/YlkTs+7u+0wy0SIsR1eJP6UPk1GDaMyWFndtJwbRmSws7tp7RtmzH6ie+qnVsa/VO+ZjvoywNTg2jMlhZ3bRg2jMlhZ3bRnNnlPfV85Le5x30ZYGpwbRmSw87towbRmSws7tozmzynvqZLe5x30ZYGpwbRmSws7towbRmSws7tpOc2eU99TJb3OO+jLA1ODqMyWFndtGDaMyWHnftIzmzynvqZLe5x30ZVeX9lLyk+LaP60H+E7q0bRmSw7Uqxu2nNEl5aNDhwokJrocOq4aqrUlSXKcpVvbSt3LluuIn8Z7/1bs7NuWrdymZj8oZAGpSjaMyWHnftJwdRmSws7tpazm1ynvqqZLe5wywNTg2jMlhZ3bRg2jMlhZ3bRnNnlPfUyW9zjvoywNTg2jMlhZ3bRg2jMlhZ3bRnNnlPfUyW9zjvoywNTg2jMlhZ3bRg2jMlhZ3bRnNnlPfUyW9zjvoywNTg2jMlhZ3bRg2jMlhZ3bRnNnlPfUyW9zjvoywNTg2jMlhZ3bRg6jMlhZ3bSc5s8p76mS3ucd9GVXEv7GwgfIluxhfYhwLRtGZLCzu2naREa1rWoiNaiNaiYkREqRDL2hjaMTFMUxP2amz8DXhZqmuY+7tUfxhRveYfqbswtHcPo6ytb5h1Z6zdGQ1wABIAAAAAAAAAAAAAAAAAAAAAGbpyQiNiunYTa4T0b79EVEVjksureRQAKOpRUoBKHytaqRUoACpRUoACpRUoACpRUoACpRUoACpRUoACpRUAAqUVKAAqUVKAAqUVKAAqUVLaAAqUVKAAqUVKAAqUVKABd0HR0WJGhzsVtzBhXSwUWquJE+G6qTkQ1ABAAAJAAAAAAAAAAB//2Q==;" parent="1" vertex="1">
          <mxGeometry x="-367.28659414033274" y="391.90909090909093" width="56.15161178470125" height="29.876707423133986" as="geometry" />
        </mxCell>
        <mxCell id="eQoUt7WW08yLKn_f3m6--44" value="Transformed Data" style="text;html=1;align=center;verticalAlign=middle;whiteSpace=wrap;rounded=0;" parent="1" vertex="1">
          <mxGeometry x="-367.28659414033274" y="423.8636363636364" width="50.42307028147125" height="25.22727272727273" as="geometry" />
        </mxCell>
        <mxCell id="eQoUt7WW08yLKn_f3m6--55" value="Visualization" style="text;html=1;align=center;verticalAlign=middle;whiteSpace=wrap;rounded=0;" parent="1" vertex="1">
          <mxGeometry x="-258.7227272203994" y="363.3181818181818" width="50.42307028147125" height="25.22727272727273" as="geometry" />
        </mxCell>
        <mxCell id="eQoUt7WW08yLKn_f3m6--57" value="" style="shape=image;verticalLabelPosition=bottom;labelBackgroundColor=default;verticalAlign=top;aspect=fixed;imageAspect=0;image=data:image/jpeg,/9j/4AAQSkZJRgABAQAAAQABAAD/2wBDAAsJCQcJCQcJCQkJCwkJCQkJCQsJCwsMCwsLDA0QDBEODQ4MEhkSJRodJR0ZHxwpKRYlNzU2GioyPi0pMBk7IRP/2wBDAQcICAsJCxULCxUsHRkdLCwsLCwsLCwsLCwsLCwsLCwsLCwsLCwsLCwsLCwsLCwsLCwsLCwsLCwsLCwsLCwsLCz/wAARCADYAUYDASIAAhEBAxEB/8QAGwAAAQUBAQAAAAAAAAAAAAAAAAECAwQFBgf/xABFEAACAQMCAgUJBQUGBwEBAQABAgMABBESIQUxBhNBUWEUIjVxdYGRobMjMkJSkhWTsdHwM2JydMHhJDRTY3OCsiW08f/EABsBAQADAQEBAQAAAAAAAAAAAAABAgMEBQYH/8QANBEAAgIBAgQEBQIEBwAAAAAAAAECEQMEIRITMVEFQaHhIjIzYYEUcSM0QvEGUpGxwdHw/9oADAMBAAIRAxEAPwDhJpuL8bv57iXrbziFyOsmZERWYRqqA6UAUADA5VDDZ8QnivJ4LW4kgswDdyomUgz2Oe/votby7sZuvtJjFKVKalCnzTuchgR6tqkt+KcVtbbiFnBdSJbcQz5ZGNJ63IwSSRqGeRwRmpnzKqFeXf8APsaJY+FXd/ivsQG3uhBHctBKLaRykcxX7N2HMKaiqw97evaw2LTsbSFzJHFsArb43Aztk43qvV48X9RhDjr4goooqxYKKKKAKKKKAKKKKAKKKKAKKKKAKKKKAKKKKAKKKKAKKKKAKKKKAKKKKAKKKKAKKKKAKKKKAKKKKAKKKKAKKKKAKKKKAkwKTbwpal6xtv7P92h/0rRJEpLzIdvD5UbeHyrQtrTid5HcS2tsJkt2RJerjjLhnGVVExknt2pRZcYYkLw65JU6W/4TADY5EkY9e/8ADNTSJ4Y9/T3M/bw+VJt4fKrxteKASk2U6rCMzO1qAsf+MlcD+uXa9rHiqQyXDW8IhiiSaZi1sDEr9XpEik6gx1ocY5HJxvhSHDHv6e5nbeHyo28PlWp+zOMfZDqLb7UxiH7W0xL1gyhTfcN91D2kEdm0FxDe2jRpcxxI7p1igCFxgMUIJTIyCCGHYRSkKj/5e5S28PlRt4fKpusfuj/dp/KjrH7o/wB2n8qUhUe/p7kO3hRt4VKrsC5ATzmycop+GRU0CXV1PBbQJG888gihQpGupyCQCSMAbf12qQSj39Cpt4fKjbw+VaBsuL6iq2Ez4YKDFbK6sSxUFCF3Gx3Hd2dh5Fxjzf8A86584gL/AMKPOLZwN17f62OSpDhj39Pcz9vD5UbeHyrShseK3DFI7ZesEvUCOTyeKRpFCM4VJSD5oZWfsAbJxyoisOKzLI8VvA6xzS274e2BWaI4MTBiPOP4R2++lIVHv6e5m7eHypdvD5VoTWXEoIfKJIYOoKxOsiNbyBkl2WRQmSUJ2zjntVTrG7o/3afypSFR7+nuRbeHyo28Kl6x/wDt/u0/lSF2JQ+Ztk/cXHvGKUhUe/oR7eFG3h8qm1v3R/u0/lVv9n8ZNvbXa2Lvb3KdZC8UcUmVIJBcDlyPw91KQ4Y9/T3M3bw+VLt4fKtKXhvG4UgeSxdRM8MUY0QFjNPjq4ioOdRyNsbZ3oaw4mot2aK1EdxcLawSia0aGSUrqwsinHYRntO3MYEbDhj39PczNvD5UbeHyrV/ZnGclDawh1R3aMva9YqoVDkrn8OpSwzsCD24qpMtxBLJDMkayRkBgFicbgMCrKMEEEEEc+fbUpJio9/T3Ku3h8qNvD5VN1j90f7tP5UdY/dH+7T+VKQqPf09yLbwo28KlMj4b7m4I/s0H+lAkYADCchzjQ/xFKQqPf0IdvD5UbeHyqYykEZMQycDMcYz8RR1j90f7tP5UpDhj39Pch28PlRt4fKputbuj/dp/KjrW7o/3afypSHDHv6e5Dt4fKl28PlUvW5zjqzgkbJGdx7qOtbbAj/dx8vhSkOGPf09yHbw+VG3h8qn6xu6P93H/Kk6x+6P92n8qUhUe/p7kW3hSbeFSiR9TnzMnH4Exy7Bil6x+6P92n8qUhUe/oQ7eHyoqbrH7o/0Rj+IopSHDHv6e5FT+71Uyn91EVNPhEXSO4kuIuCLeM8UZu51tWCqOrB0l9RALHGEHM4OKdO/Sq2tLWa5PEorO7VFtjKw0SKwd1UDJIyHYjIGQ3aOU3R3iXDeGzX/AO0RdyWlzbFJLSFIJLe80hvsrhZRqBOfMdWBXfvonvOj7cMsrG1PFotDzXl4pjtW8pvzCyRuZmctoXOhRpGFJO7NtFuwSvadPZcWrwcTk6yJpOqL28kckaydWSTqKE6jpAzkk4HLFUsdJbhLCyKX8iy2klxZQMAddopV3kXP4R1Yzk/gA7ADrRcW6LJNwZ5IuLSfsi0kisZzb2HWJIZNcCywo6xusHnMhJyzNlgAuC+36XG2fhkISZ7K2sBaXEkixeWueomSVY3JIEcrmKRxnOYxUbgx4uIdJ7lby6hubyVU1y3cqhCuZ16ty3m76gcMAORJ2zk0Jri6uWR7iaSZ0jWJGkOSEXkowB/XfzK287QQ3EWqTU8MKRFGIEbrIrMw37QMf7VCKmKdkK7fYKKKKsSIv4vWalhkuYpreS2MoullTybqF1S9ax0KI1wck5wBjtqJfxes1LBJ1Nxazap16meKbVbOqTroYNqhdgQGH4Tjn4bEQbVw3TTh8stnMb2CWC1HE3CGE9TZqATKsseUEYLYIBwW2wScGu8vS2zhtbqRuJQQ3pj8mlZlUTMyqUHeNQ0kA4yOzA225uknRny93/Y8t3b3I4c3Ep3aK1lv3tVZgJLWJTDoLFS4BGSgbsArHuLvgL8KtOH2rcViKGa7u1kjtZBc8QMDxxO8xfXoTIRV0jC5O7NVE32JEkt+l3D/ACiGWK+txcwT3dwA8GiSC0K9bK7oxUBSFDHIycDc7VE03SW3t3MjXsVtA3VkvoVFk4inlmkNzLSKRIeeBg7durZdIOD2qy2xtLjyGOz4dZwRrBZStd2tskrz2t0J8qqzyu0rsuSNuZAK0+M8XtOK29hGIriJ+HRW1vaecvVSQ+TxRzGZcn7QMuVcDJUgN9wGitkmfcX/ABW6jfym6nljmlEjhyoV5Y1CgkKBuBiqfZUzSQGCONY3Eqs7Fi3mDVp3VeeTjfeoasi0kl0CkPMe+lpDzHvqSgVq29t0ne0g4haw3zWhntuGQSR6SGk1NDFEiNuVyxQebjLEerLFdJY8a4VbcIsbeccRlv7LiNvc2TKtpjh2ibr3mspXUnDDI6t1ZdRzUP7Ao3sPSqCC6lvkvltrSSCS4mkeKWOGWRi0Z6yNmOok52PbvzpyydLpeIrCrXp4paKkojZrdZbfq4tKnEhEYKq+McxqO2eWhHx7gdveSzR8Pklhkj4MJ/sLS0N5PZ3bXL3ElvbfYqTlQqjIJQZ+8cwXXFOAXPFOHcSlhvrh7WSGS6MsFlAOJyQq8wmuI4TpDM+hWxnKpuSxqtsFXV0tUm0Bv1Iuhw0xZi/5m1XyjqPXGMMcHbI35Cs+6W+1xz3iT9bewx3kbTD7SeKXOiUKN8NjzdhkYwMEV09t0p4ckPCDdW11NdWk0VxIDHamNLkyTS3N5HKftWacsA6HAGDucDRz/E76O/vG4hGJo7i5SOa7Vmykd4BpbyZs6ur2BQH7udPJQSVh3WxXntby1aNbmCSJpI0ljEg5qwyMEbesdlQ1NcTdc0RBfSkMCYds+ekao7f+xGahqy6blVdbiHkaB2eoUHkaB2eoVJYv8Nvxw6S6c2sVwLi38nZJiQqrq1E7d/LFWTxTgwMrHo9w7S2QAXfCJqQqvLHYwJwCdQ5Y3yK2ejAjPHuGarWG5IMnVxTzW8WJSAFkh8q+yaReaKeeOw7gwRPxLhbRXAHA7EXEtvJEJescLHIyBBLHEoABzkn3YxjdX4lwcIY4eCWZcQRxrPOdUoYQvHrMajR946ht2bk/h6KJOEQXsULr0dudHSya1edbO0jhktJrMyu7qxK4VjpByQpBAOKo3Vpaz8GMdpHwrRLZ8G/YbpLZQ8QkvlhMnEvKJGYS9j6usOMhAvMaqcQM39sWTw2kM3CbWfya1t7PVOwchYlKFkGkYLczvz7e6RuL8Cd1jPA7byTr3YYZeu6lnLOowoUNjYEEYIydWMN0ATgsd9wstB0ePD5eMWsPBSI7J2bgklnKJ5LrBzqDCPDSecGLY22GPxdOFrwyw/Zy2XX+TcGPGyOr8oWU2UfVCDs6vOszY87X97bFE0wZs/EOHS280UfBbKCWSOFFniaQtGY31MVDZHnfHc9mAudRR31cCDm3upaQc291LQEkLWyuTcwNPHpIEayNF55IwxZATtuMePhRUdFAM2pwptLofnof9LfyqCasdSpoDoXDMgYawpwxXtANM0P+R/0tRok/I36WpYpl4ycF6zzYLvqghGGcamkMmdQ0sMALtjJ37e2lEnBBJbk210IlSYTKJizM5QiMoScjB3O9UND/AJH/AEtRof8AI/6WoKZoRy8CHViS0u2GH63RPoIJk1LoOcYxhTt48zVE4y2ORJIzzxnYZpuh/wAjfoajQ/5H/Q1QKY6im6H/ACN+lqND/kf9LVNimC/i9dOpuh/yP+lqNEn5G/S1LFMcMZGc4yM45kdtXWfgupNMF2FHWmQNIPPJRNAXfIAOc5Jz8hQ0P+R/0tRof8j/AKWpYpl/rOCa7U+TXQRbgNcjrSesgx91BqyD76XXwPQn/DXmsSRlyZwVaIFtSrvsSMdh5Vn6H/I36Wo0P+Rv0N/Kgplq4bhzLELSGeNwW60zSawVwNIUeG+T289uQr7U3Q/5G/S1BVgMlGA8VIHxIpYpodSHmPUaTQ/5G/S1Gh/yN+lqWKY6im6JPyN+lqND/kf9LUsUy1C3DhDIJ4rh5/tOrMcgVBlCEZs9gPMY37+yplk4GMa7a6Y6cMRNo87SMsF1Ec8+r+Gfof8AI/6Go0P/ANNv0tSxTLyPwZYoA9tcvOEUTnrikTtqkJKhTq3BT9P96gvwbqpALe6MxiCxsZRoWXfLsAd18Me+qOh/yP8ApajQ/wCR/wBLUFMdRTdEn5H/AEtRof8AI/6GpYpinkaB2eoUmiT/AKb/AKWo0NkDQ2TyBVsn1ClimOpMA/13Umh/yP8Apb+VGh/yN+lqWKY7C45DljkPnRhd8gb89gSfXTdD/kf9DUaH/I/6WpYpi4G/Lc5Ow39dGBt4d2PlSaJPyN+lqND/AJH/AEtSxTHUU3Q/5G/S1Gh/yP8ApalimKObUtN0P+R/0tRok/I36WpYpjqKbof8j/pailimJ31PDFdXDrDBHLNKVZlSPJbSoyTucYHbUFXLG9ueH3C3VsIuuWKWIddGsihZQA3mN5p94oiCuxaNnSQSI6MyOsgZWVlJBUg75BBB9XhSam33bbYnDYBIzv2eIrak6ScXkAyLYaYZYl+yLFWdgRMutj9oBkAk8mOck5pZekvFJmlMkdq0cvW9ZDocQsJFRGGFYHkuAeYztTcm2Yms97dv5sbbHfw7e6nxR3E8kcVvHNLLIWEaRgln0gsdOdtgCTvsK07jj3Ebg2BeO1VbK7a7jjii0xuWJzHICxJUglTvuDuTjNKekHEWuOHXLx2zS2DXzRHTIuVu1dGjOlwQqhiEwRj3U3FsyX6xGdHDhoywkHnHRpGTqIyPfSaj3ttjOz/i+78ezv7K24+kV9HC0Qgg82No7c6pz1YeVpXMgMmXyScBjjsIIAUDdJ+MNIHIt1wyNpjR0XKKgBARuzTkd2TjAOA3Fsxo0uJpUhhSWWaR+rjiQNrd840qD2+H+u1LMk9vJJDOksU0baJI5AwZHzjSw+XPntWhdcbv7v8AZ/WRWqLYXXlcCQRaI+s6wSgMuSdiMc96li6RcVhVkQQaT5PpyhOjqXZwF87kSSSO/cYIpuLZkhZmWV1WUpEUWVtL6I2c4VWYjGT2CkBbvPxNaV3xriF5aPaTCEo8kEjyDrescwklS2p9JOScsVyc89qzO+pFsXJ7z8TRlu8/E0lFBbFy3efiaMnvPxNJRQWxct3n4mmsTg7ns7aWkbl8KC2SwQ3dzJ1VtFNPLoaTRECSEUgFjkjbJA94HbUbMVyCWBBIYNqBBBIOQfUc/wC21vh3ELrhk7XNsIutaIwnrkEi6DJHKfNO2TpAz47YO4vnpLxY6DptMxwwxRkwh9BikD9aoc41MMq57QzbZYktxbMXWd922JU51ABhzUnHPw99KglkZUjWR3YvpVA7M2gFm0gbnABzju762X6ScTkZ+titZInLaoGSXqiDqGNnDcjjIIOAN+9kvSDiUsvDpnS3BsTc9UsaPGrG4jaFsmNgwODsQwO2c53qNxbMqJZ55EigSWWVzhI4wSzEAtsDjkASfUac6TxyNDIkyTK/VtG6uGVyQuCPeO3t8d9WXpBfPJw6dIoEms2vJWbQGWWW4V4gWUjlGhCRgk8sknVRb9IeJRND5QfKUURK5kZutdVkkkY6i2jJ1kbqRsNsoCrcWzHHWFurCymQsV0Krs2rVo2Cjv27s7ZoJkGQdakFlwwZTlTpI37jkH1Vsv0k4o+jzLdBGIBEIxJGVMEnWI2YnUnuYHY88Z3qjxDiVzxHybro4lNukkaNGJCzK768O0jEnHIVItlTLd5+Joye8/E0lFBbFy3efiabltQ3OcbbmlpvaPVQWyeO3vZYp54oLiSC3x18yKxjiJ3w7d/8/GmDrGDlBIwRGkkKq7BEUAlmIGABkZ9Y76t23EZbaOCPye2m8muzfWjXAlLW87dVrKdW6qQwRQdQPLbGaujpHxFFRIoLONEUpGqrMVROrSPQNUh281Sck5I38QtmKWYas6wVzryHGnG51Z5eOaUFiSB1hPLGl85xncY7t/VvWw3SXizBlAt1jbnGFlZWGgp9p1jsW57liScAb05+k3FXkd2W2KulxG0WhxEwnjjibWobfGkFc8vVUbi2ZZtuILDFctbXItplZ4pmRuqdFBYsrd2AfgcZxUax3LmNViuC0wYxAJIC4U6SVBG4B2PjtWjBxy9tobeGGK2UxQW9s0uJTLLFblzEGJfSCpYkEKN+ecDEz9JOJsUIS2ULM0wRVl0HJlYIUMmMAuzdm+/Zs3Fsx8TdYYtE3WhmQxBJDIGXcjQBqyB4UMJUbQwkDg6SuHJ1AAkDA7O2to9JuJazJ1NrrB8x/wDiOsVWZXdQ5l1HUQMkkkDYYG1NXpLxVNGhLVCjAhkSQNgSCUL9/A5YYgZYHcnAw3FsxQW7z8TS5bvPxNDMWZ2OMszMQOWWJY4pKkWxcnvPxNFJRQWxlP7vVTKf3eqoRAUUUVYC0lORJJCVjjeQhSzCNSxCggEkDsyQPfTxbXhJHkt1qAyyiCUsBuMkAZ76gEVFKQyllYYZSQwOQQRzBzSUAUUUVICiiigCiiigCiiigCkbl8KWkbl8KgC0tJRUgKWkqe1tL69L+R2004QqJHjX7KMk4AeVsIPjVZyjBXJ0hRBRmugh6K8QfBuLm3h/uxK0zj1nKrTrro1BaxLJ5bM5MioR1UajcE57+zvrnhq8OSaxwlbexh+ox3VnO0bVptwht9E48A6Y+JU/6VVlsbuEEtHqUc2j84e/G/yrvlgnHqi8ckZdGVqKNqKyNApPxLS0n4hUAeUYKrHk2cd5A7cd1IEJON85wc7AHxqfq5Ix5h1EqNasOzHfTcSkyZ0nPVmQEeaQTgZArVwK2NETkHdRgkYY4OR4UiRM+dJXbnnapcMyk6YiMFes0nVgbZxVcggkHsJBqGktyepN5NJ3p86PJpO9PnUtuxZCOek4z4eNS1tHHGStFW2U3hZBqZlxy2zUePH5VauGAQL2sR8B31VrHJFRdIsnYYHf8aMDv+FFFZkh7/lRRRUgZT+71Uyn93qqqAUUUVYFrh7yi9s40lkjF1cW9rMYm0u0MkqalDY9Xwru7zhFrb2/EbuK54ktxBaXMkb+Wy51Rozrq23x41wfD/SPCfaFn9Za9N4n6O4x/kL76T1w6icoyikzjzzlGUUmeVM7yM0jsWdyXdmOSzHckmkoHIeofwFGV7x8RXadYd1FGR3j3EUVJIUUUUAUUUUAUUUUAUjcvhS0jcvhUAWgkAEnlRXT9GOELOV4pdIDEjkWMbgFXdTgzsD2Dknjk9grn1OpjpsbyS/ub6fBLUZFjiWej/RHyqOK+4tqWB/OhskYq8i99yy7gf3Rg9+OVd15LClsLZIkhtyhjjSNAkaDG2lRttsaoxSvC5caijHMqcyT+Zf73f3+vGLV3xGxs7UXV5dLHbHGgklmlbH3YkHnE+AG3bivynxPU6vV57k2/wDKl0X47n0UdNj08af5ZlxmNWYTxs2nKFVbRh1bBycVncVx5OuNl8oXAJycaX542rI4l0uaWeZ+G2ixRuQdd59pKxAwW0IQgz6zWNPxvjNwAstyCgbWFWKFBq5Z2X/WvvfDNJnhPHmyqqpteZ8NPSSWR8PS9jXpaxI+KXanzxHIMb5XSfim3yrRt723uMKMrJ2o/M/4T2197j1GPJsmRLFKPUZdWEM+WQCOXGzAea3gwG1Y0kckTtHIpV15g9viPCulqvd2ouoyBgSqPs2P/wAnwNZajTKSbjsy+LK4/C+hz9CgGSNTyJwffQQQSGBBU4I7iNjSx/2sP+IV5KW9M7S2qMhJDNJnAIyM5FIyszowjxgbnVzxyBFX7Lh1zembycRDSVBaQkBpHzhfNGeznVbGCc7Yzn3HHZXUpRbcb3RUhOuITEFdI85AR2seXOmuvWx6lALjY47e+opJesJ81cclyDlR7qkYvGiqQDneNk83ScZ5Cq3bZI22zrb1d/u5VaJCgsTgAZqlC4RwTyIIb306d9T4ByoAxjkTzqITUYhrcJZRIQFB09meeaip8bsmcY37xn30wnJO4ySSTy3O/KspO9yUKASQBzJwKtrBGowwySMEnv8ACo7dB/aE7glQMcqkVgWkLHDAlAvaAu/KtYRrqVZXljMWCCGUkgHkciirSqoZmxgtzzRVuUmLM6n93qplP7vVXIi4UUUVYFnh/pHhPtCz+stem8T9HcY/yF99J68y4f6R4T7Qs/rLXpvE/R3GP8hffSevP1PzxOHU/PE8o7Pd2equq4Pw1uM2UsgNlbrCfIMeTNI7hYUBkLa1wxyOQ5jPbXK9g9Q/hXedDPRl77Rk+jFXTnm4QtG+abhC0YHSG3awlt7Fls21QRXXXQWxgkO7x6D5zZGxJ8ay7KK1mmEM5uMyhYrZbfSWe4eRFVWLbYI1e/FbvTT0pZ+zofqy1h8N9JcI9oWf1lqccm8fE+xOOTePifY126PPBHNNc2nFUhhjeWZkewbQqlyxHn8gNPjsawX6vrJOq1dXrbqzJjVoztqxtnvr1Pig/wDy+Nez7z6ZryruqmDK8ibZXDleROzas+Dx8QgE1lb8QlVEEMriS2UC6EOWGJSDp1EH1beqvxOxi4eUgeC7gum0y4nlhkjaBsqCOr3DZB7eVdT0M9F3ftGX6UdZHTL0rbez4PqS1EcreVwIjmbyOBzdFFFdR0hSNyPupaRuR91QCe1tZL26tLOMkNcyrGWHNExqd/cATXqkFtpjjhtosRQosUSLjCogAA3PZtXD9EYBJxC8uCP+WtAieDzvjPwB+NdwGYciR27Ejf3V8f45nU8yxPol6n1HhGFxxPIurZDdXMFlb3F3cEiKBdTAbM7E6VjXPaTj+PZXm3EL+64ncvc3BxnV1USZ6uBDvojB2Hie2ug6YXbGSwsAfNRDeTb/AHnfKJkeABx/irlK9HwbRxx4+fJfE+n2RweK6mWTJyk9l/uFLSUV9AeMFLkgggkEEEEHBB8DSUUsG5Y3ZuEKSH7ZAMnlrXONXr76uVzlvKYZ4ZBsFYavFD5rD510lexpcvHHfqjgzw4ZbGNxSHRKk6/dmBD/APkUc/fVBP7WL/EK3eIIHtJf7hWQe44PyrAzhgRzGa4dVDgyX3OnDLijRt2plQStHczwmQGNhCkjCRO3LLttv/RpjwqobqzcOQwUA28iArn72/ZS2sk+I0E0ixqhJVXIUjmRjuOd60YoeI3QfqleQZ6ojrFA3wdPnkbf12V048Kl8XQwzajgailbMCWBcEqCGGMr286m22HPTtv6sVZuY385hnUmA2d8jVgj3VQlkQeaQGJzqA/D/vVMkFibNcWRZY2iGVVRsBgR4dnhUdOLEgL+EHKjHL300VwSab2OgK0OFR8OkmkW9ZMuqxwrKXEeS3nMSnbyxWfVm2gYtDMyo8Kyo0iPvrQHLDHKoX7FJtJUy5Fwq7d7poDF1cUriFZZQWdMnBwu3LGT4U17N7TSHdGaTztUZyMc9jyNbNtc8H4h5VYxkWsfVKetbqIElfXuwVtthz78ViNJEEkVPtHy4ib8wU6QwzyHbV8E27bDjdU6EopiNKSQ6EbAgjGPHlRXYn9iDP2p/d6qZT+6vORoFFSGC5ADGCfSyCQN1b4KFdesHHLG9I8Nwg1PDKi5UamjcLlskbkY78eqpBNw/wBI8J9oWf1lr03ifo7jH+QvvpPXmXD/AEjwn2hZ/WWvTeJ+juMf5C++k9cOp+eJw6n54nlHYPUP4V3nQz0Ze+0ZPoxVwfYPUP4V3nQz0Ze+0ZPoxVrqfp/6Gmp+mZPTT0pZ+zofqy1icN9J8I9oWf1Vrb6aelLP2dD9WWsThvpPhHtCz+qtWx/R/BbH9L8HpnFfRfGvZ939M15T3V6rxX0Xxr2fd/TNeVd1Y6Po/wBzPS9H+53fQz0Xd+0ZfpR1kdM/Stt7Pg+pLWv0M9F3ftGX6UdZHTP0rbez4PqS1WH8wykPrs5vNFWbKO2mnEE0c8jzmKC1SBkQmd5FA1FzjGM/1y2m6PSQLPcXPDr1bWCESS9Xd2hdQmoyMPOOcjGkY7O3Ndrmo7M7ZSSdM5ykbkfdT36vW/VhhGWYoG3YLnYMe/vpjcj7qsWOt6H5EfFyELHrbRThlGAEcjOa6rW//Rb9cdch0OlAn4pATu8NvMveerZkP/0K7Gs34HpdW3myXb+9HNk8d1eklycdUum1nn/SV2fjV7qBGmO1UAkHCiFcbjbvrIroeltu0fELe5AOi6tY1z/3ISYyPhpPvrna05McH8KHRdDaGeWojzZdWFLSUVJcKKKKAQ8jnlj5V1VtHNOsaxoXfqUcgEZxpG+9cuqGR0jUedIyoPecf16q6hSUxpZgRgAqSCMeIr0NEnuzl1D6IbewywxXUc8bI3k7vhsbhlJUgg4weyuX7R7/AOFdFevptLpiTnRoGe9yFxXO/iFV1vzJE6foy3aXHVsqtkqBj/1PP4VrZynWDJjz94Z05/nXPVoLxInh5sHjGnGkSgknSH6zGg7ZzzOeXZUYNTwKmUz6fmNOJNcXUIVkjbU5GT+UAb4z31lkkkk8yST66cyIFVkIKjAbv1HwppxjIBAz/wCvurHNkllds3xY1jjwoSloAJ7VHrOKXTv95fjWFGo2rUCyBCGdwp5KGwMd9V8YK5K7svb41exz/rbwrfFHeyslZG0MZHmhVOQc4zy7KjEEowQ4DDPf29xq5HDNKGKLkJjUcqAM57z4U57e4jDl48BAGfzlOkFtOdjWrinuRZXT7o1NqOTk+PdRSEsjFgMqwGe3DD10VN1sQZ9P7vVTKf3VwI0Ox6M2UHEbK6ku5Lp3huBZx6LiaMLbrBGBHpjIGKzulFvHZXdta27zC3ktY7l45JXkUzdZKmvDk742ra6F+j+Ie0D9CKsvpp6SsvZ0f1pa44ylzmmzijJ85pvYwuH+keE+0LP6y16bxP0dxj/IX30nrzLh/pHhPtCy+steo3qLJZ8URnKB7K9XUFLHJifAAAO55cqjVfPEjU/PE8k7B6h/Cu86GejL32jJ9GKuXXhcO5llvooho3NhIxRNGp3kwdOAcjAPLfwrqOhu3Db7G4/aUoB7wIohmtNQ08e32NtVCUYfEqMnpp6Us/Z0P1ZaxOG+k+Ee0LP6y1t9NPSln7Oh+pLWJw30nwj2hZ/WWr4/o/gY/pfg9L4r6L417Pu/pmvKu6vVuK+i+Nez7v6ZrynurHR9H+5npej/AHO76Gei7v2jL9KOsjpl6VtvZ8H1Ja1+hnou79oy/SjrJ6Zelbb2fB9SWq4/5h/kpD67MXhfpTg3tCz+oK9J4t6J437Ouv8A5rzbhfpTg3tCz+oK9J4t6J437Puv/mmp+eJOp+pE8rHIUjcvhSjkKRuXwrvO40OD3gsOJWU7HERYwTns6qbzST4A4Pur0nlt/WK8n5jBAwRyNd10c4oL21FrM+by0QKSx86aEbLIPEbBvd3136TJVwZ5HiOHiSyLy6l3jHDV4pZPCNIuIyZrVm5dYBjQT3NyPu7q86ZHRnSRGSRGKujjDKw2IYd9ett5LoOkS9ZgYJxoJ2Bz299YXGOA23E8zRsIL0AASgZSUDksyjn4Eb+utdRg5nxR6nPo9Vyfgm9jz+irl5writgT5TayBByliUywn/3QfxAqlqTvG1ea4tbNHuxnGW8WLQaciSSECJHcnl1ak/w2rRtuFnIe6xgbiJTnJ/vkfwBrTHhnkdJFZTUVYnC7YlvKnHmqCIPEnm/+g9da1Gw2AwAMAdgHcKbJJHFG8shwiDfvJPJR4mvYx41ihRwzk5yM/i02FhtxzY9a/qGyj+JrI/EvZz37qlmleeWSV/vOc4HIDkAKi/EK8fNk5k3LyO7HDhjQ/A/MPnSdvPPjSUVkXFAc+apwzbb8vCteY2XVQrCmHGNWFxhcYIbvJO9ZAJGCNiNwfVWhbgXAYrJEpXTqErhT53aAedb4a3sMhkhVgxUYfYgA4B+NVirL95SN8bjn6q1Hi0IT1sBK7FUdWPPG3fVK4bChNvOznvGO6r5YRq0UjJ+ZWqVZ5FAXYgcieeO6o6SuZSa6Ghahld2ZWxy22wT7qn7PCqUWesjwcb/6Vc23z211Ym5LczaGmREALZGeQ7aKguWB0DI1AnIHYDyoqJTknsSVaf3Uynd1caLnddC/R/EPaB+hFUfSixS6u7d1S/eZeHxoPJ4o3hU9bK3nFmDZxg4xjxqToX6O4h7QP0Iq1L/e4H/hi/i1eZPJwZW0R4bp46nW8qT2pnE+S2lpxLgiRC/V24hauVvo4k+y65QrL1THc/ir0W5/sbv/AMcv8DXD8U9O9Hv/ACWH/wDSa7i5/sLv/wAcv8DU55OSjIa/CsOsWNXs/wDo5+8J8j4juf8AlLnt/wC21N6F+jLz2hJ9GKnXn/J8Q/ylz9NqToX6MvPaEn0Yqor5MrPa/wAT/wBH7f8AJmdMYbh+JWbpDIyfs6EalUkZMsgxkViWEM8XEuDGWGaMNxC009bG6asTLy1AV3XFrdLi4TrJLgBbaKILHNJGukO74whxzJ+Nc1eo0XG+j8XXXEkYuLKVRcTSTaWa40nSZCSOQ+FdWLMnHgPNWiyQ0a1D6P8AsdnxX0Xxr2fd/TNeVfyr1m/RJLDisb9Zh7G7QCIAuWKEAKDtvXArwi2VZ5LmPi0aRAsDFHbOOrQZLtqYH3fxqmlkkmn3ODRYpzjJxTZ0HQz0Xd+0ZfpRVkdM8ftW29nwfUlrY6GejLztH7SmwfDq48UvSCwF5dxutvZlls4oTJO0gcnrHfbq1JA7D53bVVJQztyK6fDPNqXCCt7nHcL9KcG9oWf1BXpHFvRPG/Z91/8ANcU8MVvxno/CtpaW7eW2kzNaNMyury6VU9bv5uDj55O9drxb0Vxrx4fdAAbk+b2CpztSnFojWQljzKM1TR5WOQpG5fCgEcu0YBGNwTvjFI3L4V6B1jqkt57i1miuLeQxzRHVG47O8EciD2io6WpTa3RDSapnoXB+NWvFEVPNhvQPPtydnH54CdyPDmPmdWvJ8lSGBIYEMGUkMCO0Eb58a6Gx6V8Qtwsd5Gt5GMAOW6u4A/xgaT7199eji1XlM8XP4e74sXTsdxuM74zsfV7q5S90SXl6xRDm4lA81eQbT3VpW/Sbo/MV1zy25yMrcQtgeGuLUv8ACsI3lm5ZzcQ+czP94fiJPbXWpwlvaMtNiyQk7TJeQwNh3DYfKiq7X1gnOdW8IwzH5DHzqpLxYDIt4ST2PNjA8dC/zqZZscF1O5Y5S8jRkkihQySuEQdp5se5RzJrCu7yS6ddtMSHzE8fzMe+opJppm1yuztjAJ5AdwHIVHXm59S8nwrZHXjxKG/mFJ+JaWk/EtcZuLRRRQBW1w+KUWYkia2kkMx+zaOJn3JB1O51ZGAeQAzWLVy2ma3QyodLDVucbg9hyMVeEW5Kn0KybUXS38i3PdTRrIsqQhlDxYMS5DEacevx7KyWZmILHJp0sskztI5yzHJPjTKtkm5MRTrcKKKKzLCg4IPcQavF00hycKQDviqFFXhNxIaHOxdmY9p+VFNoqjbbFDKeOzPdTKf3eqqok6DgHF+IWMV1a2djBcl5PKnM0siMDpWPSgTA7P6zvfm4vx24aSX9l2S9V9i48olwGjXWe/Ox7CeWOYrkKN/H4ms5YYSdtE4ZPDPmY9mal/xC4PEYLiaCJZuGvGDHFIZI3aFzLguOfdtXRTcf6QtHpbgtoEudMayJcSOmZm6td1Ync7Db+FcTSDOaPFBqmhlbyz5k92dPecR4sttdiaxtEjaMwuy3JZgJfs8ovMnfu7jyO8fAOK8Ss4Lq1sbCC6+2Fw/WzMkmqRRGFTThfw9v+x53njPzzWwlj0cPC7C5l4rIl/NLpu7eMCU28fnkMI9AzyX8Xb8IeOEVw11LarPPU0s7vsa8nGON3Rlm/ZdonVEwOpnlBDRjUQM5zz3wTWJfX9x+0ra4nghWfh7w5jjlLxuYn60ZZc+/FQG14aBtxhSwJC5srgKMHmTqz8M/OpYbTgxh4o0vEftLdtNiAhj8qUrnV1bAkerV2U5cIbqJvHJly4/0yfw9vI6NukHSCaGIHgtqkd8oWBzPLhta9YNskjA5kjFZ99xHi0drMLiwtUinRrfUk0jMOtBXIBrJa04SNTjjC4y+hfJJmkIB21EEDfny/hUFxFaxCLqL0XRYnXiCSHq8AY++TnO/w8acnHd0Z6fNPTRlHE6Uups8A4vxKzguLOysbe5YzeUt18zRyEuBHpTBAPLJ99aEvFePXMkjnhdmrRu8DL5RIMNDzOTkY355/wBdPHUe8/GpeGDbbRnhk8GTmY9mal5xC4HE7e6nto1n4fJFmJHZo2aFzIAW575/2ro5uPdJDEyfsi0jFxm1SaO4ZwJJlIAG7DON/unnvyriKBkf7VLxQdbdCub+NPmZN2bk8vHLW2nMi6LeZmWTTJCxYy+aduqzv27/AOprCbGO3s5nNLv/AP7SNyPurRbAWrkfDOJSx20sUIZLkSNDhgNSx/ePnY5cqp9lbk0PR79lcHaPi103EHH/ABtuHmeK2JjbZU0bDPPGe7tyM55o4qUk99iVFy6FW34Fxm5vV4fHBGLswm40PKuBEH0ZJTODns/owjhfFmJWO0llAONUWkqCeW5I57H+sCeL9m2xd7bi/EYpzlFljt2iUxgjOerfXg7YGo8vHAjkj4VkFeJ3koDpnNqUYguNbAs+BtkjY78+ZzrapIp8XE35DDwrjIQSGxuNJRpOSalRFZiWXVqGMHO3ZR+yuMgKwsZirqZEcaCpTSG1Kc8txv41MkXCgOtTjN1EesCBTauZlR1Ooko+COw47/g+zg4BI/EfKuI3CJDbq9gSHieacoxKMq6gMEKM55eus5z4FbJbrcjtuC8Zu7uKxS1MdzNC1wiXDCMNErKhcEZ7TTE4Rxd9Wi11gP1eVkTzmGdhqI9fq8dqlg/Z8Bt54eNX0bkwpMIIJI51jYjrdLhsY2JA7Rjt3pOp4MwcycWvSzM7EeSOytly4yGcbnt35nPbURc3O/Iu3HgVdSJeE8YkVHjs5HV9WgxtEwOnGfxZ/rwoPCeMhpE8guC0bIjqoUkF11qRvyI3z6u+qYLDOCRnngnJ7s4pVklQ6lkkVsAZV2BwCDg4OeYHwrTcqLNDPBI0U8bxSpp1xvsy6gGGfjUf4lpTk7kk9+Tk/E70n4hQC0UUUAVMWBgUDGxw42B7d6hoqydENBRRRUEhRRRQBRRRQBRRRQDKf3eqmU7VVQLRSaqNVSBaKTVRqoBaMGk1UaqAXFGDSaqNVALRSaqNVALRSaqNVALRSaqNVALSNy+FGqkJyKWB1FJqo1VNgWik1UaqiwLvRSaqNVALRSaqNVALRSaqNVALSdo9VGqkzvmlgdRSaqNVLAtG+9Jqo1UAu9FJqo1UAtFJqo1UAtFJqo1UAtFJqooCW7tL2wup7K9gaC6gKiaFirMhZQ43QleR76gooqq6AKKKKAKKKKAKKKKAKKKKAKKKKAKKKKAKKKKAKKKKAKKKKAKKKKAKWiigEooooAooooAooooAooooAooooAooooAooooAooooAooooD//2Q==;" parent="1" vertex="1">
          <mxGeometry x="-148.78662292062404" y="377.6136363636364" width="87.67983720150293" height="58.09359776720497" as="geometry" />
        </mxCell>
        <mxCell id="eQoUt7WW08yLKn_f3m6--59" value="&lt;b&gt;Reporting&lt;/b&gt;" style="text;html=1;align=center;verticalAlign=middle;whiteSpace=wrap;rounded=0;" parent="1" vertex="1">
          <mxGeometry x="-141.5835382490071" y="449.08818181818185" width="73.27312496402463" height="25.22727272727273" as="geometry" />
        </mxCell>
        <mxCell id="TUTVtr3VRNuUsHLydm8b-15" style="edgeStyle=orthogonalEdgeStyle;rounded=0;orthogonalLoop=1;jettySize=auto;html=1;entryX=0;entryY=0.5;entryDx=0;entryDy=0;" edge="1" parent="1" source="TUTVtr3VRNuUsHLydm8b-1" target="TUTVtr3VRNuUsHLydm8b-13">
          <mxGeometry relative="1" as="geometry" />
        </mxCell>
        <mxCell id="TUTVtr3VRNuUsHLydm8b-1" value="" style="dashed=0;outlineConnect=0;html=1;align=center;labelPosition=center;verticalLabelPosition=bottom;verticalAlign=top;shape=mxgraph.weblogos.json_2" vertex="1" parent="1">
          <mxGeometry x="-810" y="394" width="80" height="25.2" as="geometry" />
        </mxCell>
        <mxCell id="TUTVtr3VRNuUsHLydm8b-8" style="edgeStyle=orthogonalEdgeStyle;rounded=0;orthogonalLoop=1;jettySize=auto;html=1;exitX=1;exitY=0.5;exitDx=0;exitDy=0;" edge="1" source="TUTVtr3VRNuUsHLydm8b-10" parent="1">
          <mxGeometry relative="1" as="geometry">
            <mxPoint x="-238.3" y="195" as="targetPoint" />
          </mxGeometry>
        </mxCell>
        <mxCell id="TUTVtr3VRNuUsHLydm8b-9" style="edgeStyle=orthogonalEdgeStyle;rounded=0;orthogonalLoop=1;jettySize=auto;html=1;" edge="1" source="TUTVtr3VRNuUsHLydm8b-10" parent="1">
          <mxGeometry relative="1" as="geometry">
            <mxPoint x="-668.3" y="194.89271073139957" as="targetPoint" />
          </mxGeometry>
        </mxCell>
        <mxCell id="TUTVtr3VRNuUsHLydm8b-10" value="" style="shape=image;verticalLabelPosition=bottom;labelBackgroundColor=default;verticalAlign=top;aspect=fixed;imageAspect=0;image=data:image/jpeg,/9j/4AAQSkZJRgABAQAAAQABAAD/2wBDAAsJCQcJCQcJCQkJCwkJCQkJCQsJCwsMCwsLDA0QDBEODQ4MEhkSJRodJR0ZHxwpKRYlNzU2GioyPi0pMBk7IRP/2wBDAQcICAsJCxULCxUsHRkdLCwsLCwsLCwsLCwsLCwsLCwsLCwsLCwsLCwsLCwsLCwsLCwsLCwsLCwsLCwsLCwsLCz/wAARCADYAQkDASIAAhEBAxEB/8QAHAABAAIDAQEBAAAAAAAAAAAAAAEHAgMGBQQI/8QAUhAAAQMBAwQMCgYGBgsAAAAAAAECAwQFESEGEkGBExQxNVJTdZGTwtHhBzI2UWF0sbPE8CIjQnGSoVVylMHS0xUWF0NUcyQlMzREYmOCsrTj/8QAGgEBAAIDAQAAAAAAAAAAAAAAAAIFAQQGA//EADARAQABAgIKAgIBBAMBAAAAAAABAgMEMwUREhUhMVJxgaFR4RNBMhRhkfAjYrHR/9oADAMBAAIRAxEAPwC29Y1jEYgNY1jEYgNY1jEYgNY1jEYgNY1jEYgNfnGsY+0YgNY1jEYgNY1jEYgNY1jEYgNY1jEYgNY1jEYgNfnGsY+0YgNY1jEYgNfmGsY+wYgNY1jEYgNY1jEYgNY1jEYgAAABAAkAgCQAAAIwAnvBAvTzgSCL0845wJBBIAAAAQSAAADvBHeAJAADuA7iAJAIAkEEgAAAAAAAACCQAIVyNRVVUREJPkmkR0jmI5F2NGo5EXxVcmdjqAzdUKq3Mbf6V7D4pbRgjvR06KvmhTOXnTD8z47TfOjImtvSF1+eqfaci4I70HloiquCcyG9Zw0V07VUqvFY6q1VsURxes61occ2OV3pc5re01ray6KduuRV/ceS+WCP/aTQs/XkYi8195pWus5N2rg1OVfYhtxhLfwrqtIXtf8AJ7iWst+NO3pF7DNtrR6YZG+lr0X2oh4CV9mr/wAXDrVye1DYyopZPEqIHL5kkZev3JfeP6S38MRpC91OlitOnfciTK1fNKlyc+5+Z9ralFRL0RU4TFvQ5K5br9HtPusx8+zKxucsOa5ZU+yxfsqnp+dBq3sLFNM1Uzyb2Hx9VdcUVRzdM1zXJe1b0Mj4WSJEqOVURqua11+59JyMT81REPuNBcAAAAAB3gd4AAAB3EE9wAAAAAAAAAAAACABJBJAEleW/blXYmVE0kbUlpp6KhSpp3OzUkRuyXPY7Q5NC3ehfRYRU+XflA/1Kk65v6Pt03L2zVHDU0MfXVbtbVM8dbtrPtyw7WYjYKiNJXomdS1ebHMnoRrlzV1KphX2BS1d/wBfW0y6GxSLsXRvw/MqhEQ9Sktm3KNGtprQqmMTcYsiyRp/2SZyfkWVWjqqJ12a9St/rqLsbN+jW6eXI6rRVWCup3pjck0T4152K5PyPndknbieK6hcn+e9PbGfPFljlAxLpNpzemSnRqrric0+tuWto/aoKFV/5XVDeupHYxtPxKH4sBVx4x/vlrTJS3r8VoU++d/7ozfHkfaDl+uraSNNOxslldqzs1DF2WtoaKCiT731C9ZD5pMsrdcipHFQRelsDnrqWR6p+RjYxtXxH+Ps/Dgafmf98OhocmKWmcjnVldM5FRVYx+wxL6FZHiv4j0quusiyY/9KqIKZqJe2JMZXfqxMvevMVzU5Q5RVSObJaNQ1i4KyBWwNu810KJ7Txnqqq5yqqudiqqt6qvpVcSUaPuXJ13q/wDD0jGWrMarFGru66oyomte2Mn6OljfBZ7bXoHuR6ps1S5syZrpc1VRGpuo1FXHFb9FmoUdY2/dgcqUPvWl4mlpCzRZqppoj9N7AXarsVVVz+wEElYsgAAO8Ed4AkAAO4gnuIAkAgCQQSAAAAAAAAAAAEFT5d+UD/UqTrlslTZd+UD/AFKk65ZaMz/Ct0lkeXNobGmtDY06dzcNqGabpg0zQwnCVMVMlMV0CGZa1NTjapqcZQl9Vjb95P8AKlD71peJR1jb95P8qUPvWl4nPaVzKey+0X/CruAAp1uAC8B3gAAAAHcB3AAAAAAAAAAAAAIAEgEASVNl35QP9SpOuWwVPl35QP8AUqPrllozP8K3SWR5c2hsQ1tNiHTubhsQ2Ia0NibpGU0qYqZL+4xUQzLWppcblNLiSEvrsbfvJ/lSh960vEo6xt+8n+VKH3qF4nPaVzKey+0X/CruAgKpTrcXsPJprfsqstSpsime+SppoXTSyNaiwXte1jo0ei+Ml6X4Xem9Lk5bK3K3M2eyrKl+n9KOsqo18TQsMLk06HLo3Exxb5Xg+39qPN/RVR76EsKMFP4ar1fDhwV9eMj81Nqj54rVBAK9YJMJZYoY5JpXsjiiY6SR8jkaxjGpernKuFyESyxQsklleyOKNjpJJHuRrGMal6ucq4XIVRlRlTLbMjqOjV8dlxORU3WvqntXCSRN3N4Lda44M2cNhqsRVqjl8tXEYmmxTrnmseyLas+246qai2VY6apdTOdMzMz1RrXo9iXqtyoqXX3L6EPUOI8HO9trcpfDxHbEcRbi1dqojlCeHuTctU1zzlIBB4PdIIJAAAAB86B86AAHzoHzoAAfOgfOgAVNl35QP9SpOuWwVPl35QP9SpOuWWjM/wAK3SWR5c2hsQ1obGnTubhtaZoYNM0IppMVMjFRDMta6TS43LpNLiSD67G37yf5UofetLxKOsa7+m8n+VKH3rS8LzndLZlPZfaL/hV3FU4DK3K5WbNZVlS/TTOjraqNfE0OhhcmnQ5dG4mOLWV2Vubs9lWVL9PGOtq418TQsMLk08JdG4mOLa8J4HA7X/Ldjh+oRxuN1a7due8h13g+39qOS6j30JyJ13g+39qOS6j30JZ4zIq7KzCZ9Pdavea5ZYoY5ZZZGxxRMc+R73I1jGNS9XOcuFyCWWKGOSWV7I4o2OkkfIqNYxjUvVzlXC5CqMqMqZbZkdSUivjsuN96It7XVT2rhJIm7mp9lutccGc3hsNViKtVPL5dFicTTYp1zz+DKnKmW2ZHUlI58dlxuwRb2vq3NXCSRN3NT7Lda44M5cA6q1aptUbFEcHMXbtV2rbqlZfg43ttblL4eI7g4fwcb2Wtyl8PEdx86Dl8bn193TYPIo7AHzoHzoNRtgHzoHzoAAfOgfOgAAAAIAEgEASVPl15QP8AUaTrlrlT5d+UD/UqPrllozP8K3SWR5c2hsaa0NjTp5c3DYhsQ1peZoRThkpipkYroEMy1rpNTjauk0uJIS+uxk/13k/ypQ+9adhlblbmbPZVlS/T+lHW1Ua+JoWGFyadDl0biY4t4FHvjeySNzmPYucxzFVrmqmlqpjeazUu4am5cpuV8dX6bNvE1W7c0UcNf7ACDaaqTq8g5IobZrZZXtjiisiqfJI9UaxjGzQqrnKuCIhyZkj5Gtka1zkbIiNkRFVEe1HI5EcibqXoi6jxvW/y0TR8vWzc/FXFerk6fKjKiS2ZHUlIr2WXE7BFva+re1cJJE3c1PsprXHBnLggzatU2qYooLt2q7VNVYSQD1eSzPBxvZa3KXw8R3Bw/g43stblL4eI7c5LG59fd1eCyKOyQCDUbaQQSAAAAAAAAAIJAEFT5d+UD/UqTrlslTZd+UD/AFKk65ZaMz/Ct0lkeXNobGmtDY06dzcNiGxDBpmm6RThJipkiOcqtY173ImcqRsc9UTcvVGoqhY51/uKjoJv4TGuIlKYlpU0uPofHM1Fc6KZrU3XPika1PvVyXGhxKJ1oTEw0uMTJ6omKrcnnUy2CpXFKepx/wChN/CJmI5sREzyawZ7BU/4ep6Cb+EwVFaqo5FRyLcrXIqORfMqLiYiYnkzNMxzQSCWskffsccj825HbHG9+aq7iKrEUTOrmxETPJBBt2Cq/wAPU9BN/CYujmZcr4pWIq3IskcjEVd25FciIY2o+WdmfhgSASRWX4ON7LW5S+HiO3OI8HG9trcpfDxHcHJY3Pr7urwWRR2AAajbAAAAAAAgCQQAJAIAkqbLvygf6jSdctgqfLvygf6jSdcstGZ/hW6SyPLm0NjTWhsadPLm4bWmRg0zQinCwMg2M2lar81M91c1iu+0rWwMVEv1rznY/O6chkH/ALhafKCe4jOvvOTxufU6jB5NLTVMZJTVbHtRzHQTNc12KKisXBUUopfFb+qnsL2qF+oqf8mX/wAFKJXxW/qt9hZaJ5V+FdpXnT5fdYTGSW7YDHtRzFtCC9rkvRbr3Jei6i7U+cVKTyf3/wAnuUIvY4uy88dK5lPZ76My57nPzlWeEJjG21Sua1qOks2B0ioiIrnJNM1FcvnuRE1FplXeEPfmh5Lh9/MeGjc+PL00jkS45N0t7IhjG5NWY5rURZH1j3qiXK522ZEvW7TgnMVCm6W/kV5M2R99Z/7MpZ6UyY7/AP1X6MzZ7Oj+d08PK1jH5O21nNR2bTo9ucl+a5sjFRyX6UPcPEyr8nrc9V67Shs5lPeP/V5ey6u0qYUglSDs3HLM8HG9lrcpfDxHcHD+Djey1uUvh4jtzksbn193V4LIo7JAINRtpBBIAAgCQNQ1AQCdQ1ACCdQ1AQVPl35QP9So+uWwVPl35QP9SpOuWWjM/wAK3SWR5c202Ia0NjTp3Nw2tMk3TBDYhFOHv2DlG+xI6uHaiVEc8jZk+t2JzHo1GLjmuvRURD2f6/p+iV/a0/lHEGKmpXgrNyqaqo4z/eW3Ri7tunZpng7Kpy+kkgniisxsckkbmNe+pz2szkuzlakaX85wbkuS7zIiG5TU7Se1nD27Ov8AHGrW8b1+u9q255MqSqkoayirYmtdJSTsnY19+a5WruLdjjih26eEhP0Mv7b/APE4BxiRvYa1emJuRrZtYm5ZjVRKwf7SG/oZf21P5Jylv21LbtclY+BsDWQMp4omvV6oxrnPvc9US9VVV0J+9fIBG1hLNqraojizdxd27Ts1zwSh11hZaSWNZ8Nnvs9tQyF8qxSNnWJUbI9ZFa5Mx24qrd838gD1u2aL1OzXGuHlau12p2qJ1SsP+0hv6Gd+2p/JPOtnLiS1LPqqCOzm06VKNZJI+oWVUjRyOVGtRjcVu3b+7jQa9OAsUzFUU8v7y2KsdfqiYmeaVIAN1pLM8HG9lrcpfDxHbnEeDjey1uUvh4juNRyWNz6+7q8FkUdggnUNRqNtBI1DUAA1DUAAAEAkACCSABV+X9JUxWrFXOYu1Z6SGJsqIuY2SNXIrHu3EXFFTz6i0TFzWORWuajkXdRyXov3opsYa/OHubcRra+IsRfo2JnUoJJIuGznQ2Nki4bOdC9tr0vEQ9GzsG16biYejZ2FtveOj39KvdU9Xr7Ua2SLhs/EhnskXGM/Ehd+wU/Exaf7tvYTsFPxMXRt7DG9o6Pf0luuer19qRWSLhs/EhgskXDZzoXjsFPxMXRt7BsFPxMXRt7BvaOj39G7J6vX2opZIuMZ+JDW58XDZzoXxsFPxMXRt7Btem4iHo2dg3tHR7+mN1z1evtQLnx8NvOhjnx8Nn4kP0Btel4iHo2dg2vS8RD0bOwb2jo9/Ruqer19vz/nx8Nn4kGfFw2fiQ/QG16XiIejZ2Da9LxEPRs7BvaOj39G6p6vT8/58XDZzoM+Pht50P0Btel4iHo2dg2vS8RD0bOwxvaOj39G6/8At6+35/z4uGznQZ8XDZzofoDa9LxEPRs7Btel4iHo2dhne0dHv6N1z1evt+f8+Lhs50GyRcYznQ/QG16XiIejZ2Da9KioqQQ3pin1bMF5jG9o6Pf0brnq9OUyAo6qlsiolqInxpW1rqiBsjVa9YUiZGj1auNy3KqYbmOk68nuIKe7cm7XNc/tb2rcWqIoj9JIJB5vRBIAAAAAABAJAAgkgCQAAIJAEd5JHeSAAAEEgAAABBIAAAAR3gnvAAAAO4gnuIAkgkAQSAAAAAAAAAAAAAAAAAA7wAAAAAAAAAAAAAAAO8AAAAA7gAAAAAAAAAB//9k=;" vertex="1" parent="1">
          <mxGeometry x="-477.96877165716916" y="169.9954545454545" width="61.097866680309" height="49.79451237188998" as="geometry" />
        </mxCell>
        <mxCell id="TUTVtr3VRNuUsHLydm8b-11" value="" style="edgeStyle=orthogonalEdgeStyle;rounded=0;orthogonalLoop=1;jettySize=auto;html=1;" edge="1" parent="1" source="eQoUt7WW08yLKn_f3m6--42" target="eQoUt7WW08yLKn_f3m6--54">
          <mxGeometry relative="1" as="geometry">
            <mxPoint x="-148.78662292062404" y="407.0454545454545" as="targetPoint" />
            <mxPoint x="-311" y="407" as="sourcePoint" />
          </mxGeometry>
        </mxCell>
        <mxCell id="TUTVtr3VRNuUsHLydm8b-19" style="edgeStyle=orthogonalEdgeStyle;rounded=0;orthogonalLoop=1;jettySize=auto;html=1;" edge="1" parent="1" source="eQoUt7WW08yLKn_f3m6--54">
          <mxGeometry relative="1" as="geometry">
            <mxPoint x="-234" y="520" as="targetPoint" />
          </mxGeometry>
        </mxCell>
        <mxCell id="TUTVtr3VRNuUsHLydm8b-29" style="edgeStyle=orthogonalEdgeStyle;rounded=0;orthogonalLoop=1;jettySize=auto;html=1;exitX=1;exitY=1;exitDx=0;exitDy=0;" edge="1" parent="1" source="eQoUt7WW08yLKn_f3m6--54" target="TUTVtr3VRNuUsHLydm8b-25">
          <mxGeometry relative="1" as="geometry">
            <Array as="points">
              <mxPoint x="-217" y="600" />
            </Array>
          </mxGeometry>
        </mxCell>
        <mxCell id="eQoUt7WW08yLKn_f3m6--54" value="" style="shape=image;verticalLabelPosition=bottom;labelBackgroundColor=default;verticalAlign=top;aspect=fixed;imageAspect=0;image=data:image/jpeg,/9j/4AAQSkZJRgABAQAAAQABAAD/2wBDAAsJCQcJCQcJCQkJCwkJCQkJCQsJCwsMCwsLDA0QDBEODQ4MEhkSJRodJR0ZHxwpKRYlNzU2GioyPi0pMBk7IRP/2wBDAQcICAsJCxULCxUsHRkdLCwsLCwsLCwsLCwsLCwsLCwsLCwsLCwsLCwsLCwsLCwsLCwsLCwsLCwsLCwsLCwsLCz/wAARCADYAMMDASIAAhEBAxEB/8QAGwABAQADAQEBAAAAAAAAAAAAAAYEBQcBAwL/xABAEAACAQMCAwYEBQIFAgUFAAABAgMABAURIQYSYRMiMVFxgRQyQZFiY3Kh8COxJEJSgrI1dBUWRHPRM1WSweH/xAAbAQACAwEBAQAAAAAAAAAAAAAABQMEBgIBB//EADURAAEEAAIHBgYCAgMBAAAAAAEAAgMEESEFEjFBUYGRBhMisdHwMmFxocHhI/EUUhUWkkL/2gAMAwEAAhEDEQA/AOt0pShCUpShCUpShCUpShCV5Xzmnt7eJ5p5Y4okGrPIwVR7mpDKcZAc0OKTU7j4qdSB6xRHf3b7VFJMyIYuKu1KM9x2rC3H57hzVTe5DH4+LtbydIlOvIDqXcj6Ig7x+1RWU4uvbnnix6tawHUdqSDcuOhGy+2p61OTz3N1K81xLJLM/wAzyMWbTy1P06Vk47FZPKvpZw6xA6PcSkpbp/v03PQA+1KZLckp1Y8vNbKroWrSb31ogkcdg9efRfbGZ3KYttIJA8DMXeCbVo2JOpYH5gT5g/ernF8R4rJ8kfN8PdNt2E5ALH8p/lP7HpUlkeFctYp2sPLexBQZDAhWVD9f6RJJHoT6VP8A/wA/YiuWTTVjquGSmnoUdKtMsJ8XEfkeyuz17XN8XxTk7DkiuCbu2Gg5ZW/rIv4JD/Y6+oq4x2XxuUTmtZgzqNZIX7kyfqQ/TqNR1ppDZZLs28Fjr2irFI4vGLeI2fpbClKVZStKUpQhKUpQhKUpQhKUpQhKUpQhKUpQhKa0rS5XiPF4zmjLfEXS6jsIGHdP5r+A/c9K5c9rBi44KaGCSd+pE3ErclgASToBqSSQAABrqSamcpxdYWvPDYgXdwNucE/DIf1DdvbbrUlk87lMoSs0gjt9dVt4dVi/3/Vj6/YVrUSSWRIoo3kmkOkccSl5HPRV3pVNfJ8MS2FHs41o7y2cfkNnM+iyb7I5DIydpeTvIQe4vyxx/oQbD+b187W0vL6bsLOCSeXbmCDuoD9ZHPdA9TVNi+DbiXlmyshhj2ItbdgZWH5so2Hov3q0tbOzsoUt7SCOGFfBIwANfM/UnzJriOnJKdaQ4easW9O16je6qgOI4fCPXl1Uvi+DbaPlmyrrcSbEW0ZItl6Odmb9h0NVqJHGipGqoiAKioAqqB4AAbV+qU1jiZEMGBYy1cntu1pnY+Q+gXmlafKcO4rKc8jp2F0fC4gADE/mL8re+/WtzSu3sa8YOGKihmkgdrxOwK5ZlMDlMUWeWPtbYeFzACYwPzF+ZffbrWsjkkidJYndJEIZHjYqynzVl3rspAIIO4IIIOmhFTWV4Sx93zzWJW0uDqSqjW2kP4kHh6j7GlU1EjxRLYUe0TXju7Yw+Y2cx6dFqsXxjcRcsOUQzR7AXEQAlUfjTYH1Gh9as7W8s72JZ7WaOaI7c0ba6HyYHcHoRXKr/G5HGyCO8gaPU6JIO9DJ+iQbe2x6V87W7vLKUT2k0kMo01KHZgN9HU7EdCK4iuPiOrIMfNWLegq9tvfVSATw+E+nLouw0qRxfGNvLyQ5NBBJsBcRAmFurr8y/uPSqtJI5ESSN0eNwCjowZWHmCNqaxyslGLSsZapzVHaszcPLqv3SlKlVRKUpQhKUpQhKUrHu7yzsomnu50hiH+Zzux8lUbk9AK8JAzK6a0uOq0YlZFa/I5fG4tOa7mAcglIYwGmf9KeXU6CpTKcYXEvPDjEMMZ1BuJQDM36F3Ue+p9KlJJJJHklldndiWkkkYszH6lmY60umvNblHmtTR7OySYPsnVHDf8Apb7KcU5O/wCeK3JtLU6jlib+s4/HINPsNPU1PkgeO2p0HUn6DrW0xmCy2WKvBH2VqfG6uARGR+UvzN7bdausVw5isXySKhnuwN7m4AZwfy1+VR6b9TVRkM1k6ztnvYnU1+jopndRDE8B+T/ZUji+Fcpf8kt1rZWp0I51BuZB+GNtl9W+1XOOxOMxcfJZwKrMAJJW780un+uQ7+3h0rPpTSGsyLZt4rHXtK2LuTzg3gNn7Xle0pVlK0pSlCEpSlCEpSlCF8poYLiN4Z4o5YnBDpKoZGHUGpHKcGqeabFOFO5NrOx5PSKQ7j0OvqKs6VFLCyUYOCu1L09N2tC7D5bjyXHJ4Lm1laC5hkhmXxSVeVtPMfQjqKysdlsli35rWYiMkF4ZO9A/nqn0PUaGunXuPsMhF2N5AkqeKlho6E/VHHeB9DUVlOEL615psczXUA3MLaC5QdPBW/Y9DSmSpJCdaM4+a2VXTVW63ubQAJ47D6c+q3+L4qxt/wAkVwRaXR0ASVh2Uh/LkOg9jp71QCuMkEFkZSrKeV1YEMpHiGU761VcIZLIPfjHPO8lqLWaURyd8xlCgXlY7gbnbXSp690uIY8ZpfpPQLImOsVzkMyD+D69Ve0pSmiyCUpShCkMpxjBHzw4tBM+4NxKCIV/QmzH30HrUbdXd5ezGe7mkmlOvec/KDvoqjYDoAK+Hjv51lWD41LmNsjBNPaj5o4X5Dr5sNiR05h/+jnJJ3zHBxy+y+p1tH16DCYmYnq4r2wx2RychjsYGl5TpJIe7BF+uQ7ew1PSrbFcIY+05Jr4i9uRowDrpbRt+GI+Pq2voK3GNucTc2sf/hrQ/DxgKI4VCdl+Fo9iPtWfTSCpGzxHMrHaR03ZmJiaNQcN/M+i8AA0AGgA0AHgB5V7SlX1nUpSlCEpSlCEpSlCEpSlCEpSlCEpSlCEpSlCFq8lg8VlRrcwkTDQLcQEJOB5FtNx6g1k2OOx+Ni7Kzt0iU7uQNXkP+qRz3ifU1l1+HkjjR5JHRI0GrvIQqqPMljpXGo0HWwzU5sTOjEJcS3hjl0X72rHuryzsomnup44YhtzOfE+Sgbk9AKmcpxjbxc8OMQTSbg3EoYQr+hdmP7D1qMury8vpWnu55JpTr3nOygnXRFGwHQCqc11jMmZlPaOgJ7GD5vA379N3PouijinhwgH4wjUA6GGYEajXQjlpXM6VU/5CTgE7/61V/2d9vRdHyvC2Mvy81v/AIS6bVi8SjspD+ZENB7jQ+tQ2RxOTxb8t3CRGTok8erwP6PpsehANda2r8vHHIjxyIjo4KujgMrA/Qg7VdmpskzGRWeo6csVcGv8TeB28iuPQT3NrKk9vLJDMvyvGxVvQ+Y6GrDF8ZA8sOVTlPh8VCp5fWWIb+4+1fTKcHW8vPNi3EEh1Jt5STA3RG3Zf3HpUbdWl5YzGC7gkhlGugcbMPNGHdI9DS7Caqfl9lqdahplmB+Lo4e+YXXIZ4LiNJoJUlicao8bBlI6EV9a5FY5HIY6TtLOdoyTq6fNFJ+tDsf71bYvi6wuuSK+C2k50AcsTbOfDZzuvv8AemMNxkmTsisxe0FYrYuj8bflt5j0VPSvAQwBBBB0IIOoIP1BFe1dWfSlKUISlKUISlKUISlKUISlKGhCV5rWqyeexeLBWaTtLjTVbeHRpenPvoB6/vUNlOI8pk+eMt8PanUdhAx7w/NfYn9h0qrNaZFkczwTejoixc8QGq3ifxxVdlOKsbY9pFb6Xd0NQVib+ih/HINvYa+1Q+Ry2Tyj813MSgOqQx6rAn6U18epJPWsAakoqgszEKioCzMT9FVdyfaqbF8IX91yS5FzaQHQ9iuhunHk3iq/ufSlbpZrR1W7Fr46lHRDO8kOfE7T9B7+ZU7DDcXMy29tDJPO24jiXmbTzP0A6kisjIY67xk0dvddn2zwRzssbFggcsOUtoNSNN66jY4/H46LsbO3SJNixXUvIf8AVI7d4n1NQvGX/V1/7K3/AOUldTVBDHrE4lR0tNG7b7pjcG4H6n095qcpSlL1pV1qyyuLyBkWzuo5XQkMg1V9AdOYK4B066VmiuNI8kbpJG7JIh5kdGKspH1VhvVVi+MbmHlhyaGeMbCeIATqPxrsrfsfWnUN9rspMlgrvZ2SLx1jrDhv/avK+F1Z2d7E0F1BHNE3+WQa6HzU+IPUGvLW8sr2ITWk8c0R+qNup8mU7g9CKyKYZOHELMeON28EciFCZTg64i55sW5mTcm2mYCVR5RyHY+h0PU1KOkkTvFKjxyoeV45FKup/Erb12atfkcRjMonLdwhnUaRyoeWaP8AS439jqOlL5qLXZx5LT0e0UkWDLI1hx3/AL81zvGZ3K4oqsEnaW+u9vNq0X+z6r7fY1c4viPF5Pkj5/h7o7dhOwHMfKJ/A/selSWU4VydhzS2wa8thqSY10njH44x4+o+wqf2P3/cVUbNNWOq7Z72J3NRo6VZ3sR8XEfkez812gUrm+L4pydhyRTk3dsNByyt/WQfglO/sdfarfHZfGZRdbWYGQDV4ZO7Mn6kP06jUU0hssl2HNY+9oqxSzeMW8Rs/S2NKajz/elWUqSlP540/njQhKV8ri4traJ5riaOKJPmeRgqjpqfr5VHZTjFjzw4pNPEfFTrv6xRN/dvtUMszIhi4q7UoT3HasLcfnuCqr7JY/HR9reTrGDryLuZJCPoiDc1E5Ti2/u+eKwDWludRz6g3Lj9Q2X2361OzTz3EjzXEsksr/M8rFmPufp5Vl43E5TLPpZw6xA6Pcykrbp597Tc9AD7UqktyTHVjGHmtnV0LVot76yQSOOwct/PosAt8zM3iSzMx8SfqSa3OL4by2T5JCvwto2h7e4U87r+VFsT6nQetV2K4VxmPKTT/wCMvF0IkmUdnG35UW4HqdT1qh8vapYaG+Xoqd7tGBiyoOZ/A9ei1WLwWLxQ1t4uacjR7mbvzt0DaaAdABW1p/PGvGZVDMxAVQWYsQAANySTTRrWsGDRgFkJZZJnF8hJJ4r3zrnXGX/V1/7K3/5yVvMpxfZWxeHHqt1ONR2hJFsp6Ebt7aDrUReXt5fztc3cpklYBddFUKo10VQuwApZdnY5uo04lazQGjp45f8AIkGAw37enqselNvP96UoW2zTy6kD7nSsu+x2QxsnZ3kDR6kiN/mik/Q42Pp49KxP9P6k/wCQrsc0EFxE8M8UcsTjR0lVWVh1Bq5WricOzwISLSmlHaPfH4cQ7HHjlhs6rkVtdXdlKJ7WZ4ZR/mjOnMPJh4EdCKs8XxjBJyQ5RBC+wFxECYW6um7D21HpXyynBo702JflO5NrO3dPSKU7j0OvqKkJ7e5tZWguYZIZl8UlXlbTzH0I6iusZqp+X2XGrQ0y3EfF0cPfMLsEckUqJJE6PG41R42DKw8ww2r91yXHZXJYt+a0mKoTq8L96GT9SH69RoetXGK4qxt8UiudLS5OgAlYdjI34JDt7HT3pjDcZJkciste0HYq4uZ4m8Rt5hUNabK8OYvKc0hT4e6P/qIAoZj+anyt779a3Ote1acxrxg4YhJ4Z5IH68TsCuV5PBZTFEtPGJLbXa5gBaP/AHjxU+u3WtajyRukkbskiEMjxsVZT5qy712UgEEEagggg6aEH6GpnK8I2F3zzWLLZ3B1JQLrbOeqDdfUfY0rmoEeKLothR7RNf8Ax2xh8xs5j06LVYvjC5h5Icmhnj2AuIgBOo8O+uyt+x9as7S9sr6ITWk8c0Z8Sh3U+TqdwehFcrvsdkcbJ2d5A0ZJ0Rx3opP0SDY+nj0r5W11d2cqz2s0kMo/zRnTUeTDwI6EGuIrkkR1ZM/NWLeg61tve1SGk8PhPpy6LsJZVDMxAVQWYkgAAbkkmpfKcXWVtzxY9VuphqDKSRbIehG7e2g61I5DNZbJhUupz2QA/oxDs4iR/mZR4n1PppWAiySOkUSPJLIdI44lLyOfwqu9dS3i7wxBQUuzrGeO2cfkNnMrIvchf5GXtbyd5WGvIDtHGPJEHdH2r52treX03w9nBJPL9RGO6gP1kc90D1NU2L4NuJuWbKyGGPxFrAwMrD82Vdh6DX1FWtrZ2llCsFpBHDCvgkSgDXzP1J8ya5ipySnWkOHmp7ena9RvdVQHEf8AkevLqpfF8G20XLNlXW4k2ItoyRbL0c7M37DoarURI1REVURQFVUAVVA8AANq/VNaaxxMiGDQsZauz23a0zsfIfQJXmtYGRzGMxaa3U2khGqQR6NO/omvh1JAqGynFGUv+eKAm0tW2KRN/VcfmSjf2GnvUc1lkWR28Fao6KsXc2DBvE7P2q3KcSYvG88Qb4m6XbsIWGiN5Sybgem56VDZPN5TKki4l5INdVt4dVhGngWHiT6/tWs1A01+p0HUn6ACqHF8KZS/5ZbvmsbY6HvqDdSD8MZ2X1b7UrfNNZOq0Ze9q2ENCjolneynPifwFoESSWRIYo3lmkOkccSl5HPRRvVZi+DZ5eWbLSGJPEWtu47Q9JZV2Hov3qrx2JxuLjMdnAELAdpK3fml/XI25/tWeKtw0WtzkzSS/wBopJcWVhqjjv8A15/NYCYfCRokaY+zCoAqjsUOw8yRrSs+lX9RvBZozSHMuPVcX+q/qT/kK7QK4v8A/wAI9t6s8XxkRyQ5VOnxUC/vLEP7j7UnozMjJDjhit12gozWWsfCMdXHHjnh6K10rEvcfYZCIw3kCSoNSpOzofNHHeB9DX1guLa6iSa3ljlicd14mDKfcV9qdEBwzWDBfG7EZEdVz/KcIXttzzY5muoBqTE3KLlB08Fb9j0NTBBVnRgVZSVdWBDKR9GB3rs+grWZTCYvKjW4i5ZwNEuIdFmXyBbwI6EGls1AOzjyWqo9o3swZaGI4jbz4+9qg8XxFlcZyRh/iLUaDsJyTyj8p/mH7jpV1i89i8oFWGTs7jTvW82iydeT6Eeh+1Q+U4ayuN55VX4q1Gp7aBTzoPzYtyPUaj0rSA6FWU7ggqyncEeBBFVmWJa51XjL3sTefRtLSbe+gOB4j8j+iuzg17XPcXxbf2nJFfBruAaDnJAuUH6js3vv1q2sclj8lH2tpOkgGnOnhJGT9HQ94U0isMl+E5rG3dGWKR/kGXEbP1zWRNBb3EbwzxRyxONHSVVZSOoao/K8GjvzYl+U7k2s7Hl9IpTuPQ6+oq0pXcsLJRg4KKpenpu1oXYfLceS5xjuE8vePzXYNjbqxDdoFe4fQ6HkQEqB1J9jVvjsRjMXGUtIQrsAJJnPPNJ+tzv7eHSthoKVHFWjizAzU93Stm7lIcG8Bs/fNKGvxJJFEjySukcaAs7yMFRR5szbVJ5TjGCPnhxaCZ9wbiVSIl/Qh0Y++g9akklZEMXFVqtKe27Vhbj5Dmqe6vbOxiM93PHDEP8AM53Y+SqO8T0AqLynGNzNzQ4xDBGdQZ5ADOw/Au6r+59Kmrq7vL2Vp7qd5pTr3nPgPJQNgOgAr6WGOyOTkMdjbmXlOkkrdyCP9ch216DU9KVS3JJTqxjDzWzqaDr1G99aIJHH4R68+ixpHeRpJZXZ3YlpHkYszH6lmbetli8DlstyvDH2NqdNbq4BEZH5SfM3toOtVuL4Rx1oUmviL24BDBXXS2jYf6Yz4+ra+gqmAAAAAAAAGg+ldw0SfFL0Ve92jaz+OoMfmdnIevRabE8OYrF8sioZ7sAA3NwFLj/21+VR6fc1ugKV4f5tTRjGsGDRgsfNPJO/XldifmvfOvxJJHEjySukcaDmd5GCoo82Y7VoMpxVjbHnittLu5Go0jbSFD+OQa6+g19qh8jlsllH5ruYlAdUhTVYY/0pr+5JPWqs1xkeQzKcUdB2LWDn+FvE7eQXRf8AzDw9/wDcrb/8m/8Ailct1pVP/kX/AOoT3/rMH+5+yvcpwfZ3HPNjmW1mOpMLAm2c9AN19tR0qKvLG+x8vY3kDwudeQtukgH1jcd0j3rr9fG4trW7ieC5hjmhf5klXmX13+tWpqTH5tyKTUdPz18GS+Nv3HP1XJ7LIX+Pl7WzneJj84G8cnR0PdP2q1xfF9lc8sWQUWs50AkBJtnPqd199utYOU4NkXnmxUnMu5NrO3eHSKU/2b71IyxTQSPDPG8UybPHKpV19QaoB01U4HZ9lpHRUNMt1m/F0cPrx+/1XY1YMFZSCrDmUqdQQRqCCNq/VcqxubymLYC3l5oNdWt5tWiOvjyjxB9D96ucVxLi8kUiZvhrptB2M5Gjnyik2B/Y9KZw22S5bCspe0LYqYuHibxH5HsLeVoMrwvjMgXliHwt2dzJCo7N2/Nj2B9Roetb/b+a0qw9jXjBwxSuCxLXfrxOwK5PksPlMU3+Kh1h10W4i1aBvLVvEHoQPesOGae3kSaCWSKVPleNirDpqK7E6JIrI6qyMCrKwBVgfoQdqlcpwdaT88uMYW03j2D6m2c/h/zL7ajpSqai5viiK2NLtDHKO7tjD57uY98li4vjJhyw5VNRsBdQLv6yxD+6/arG3uLe5iSa3ljlicaq8bBlPTUfWuSXdlfWEvYXkDwyHXl5t1cD6o47pHoa/VlkL/HS9rZztEx051G8cnR0OxryK6+M6sox81Jc0DBZb3tQgY9D6Lr1TuU4qxtjzxW2l3cjUcsbaQxn8cg/sNfapHJcRZfJr2UkiwwFQGhtuZFk8+cklj6a6f3rTgEsiKrM7kLGiKWd2P0VVGpPtXc1/dF1Vel2cA8ds8h+T6dVnZHLZPKPzXcxKA6pCgKwx/pTX9zqetYsEFzdTLb2sMs87eEcK8zAebfQDqSKpMXwffXPJNkma0gOh7BCDcuPxNuq/ufSrayx9hjohBZwRwx+LcoPM5/1Ox7xPqaijqSTHWkOHmrdrTVWk3uaoDiOGwc9/LqpXF8GKOSbLyBz4/CW7ERjpLKNCfQaDqasIYYYI44YYo4ooxypHGgVFHkFXavp/PrTamsULIhg0LG2709x2tM7H5bhySlYV/ksdjY+1u51j115EGrSSdEQbmonKcW5C754rENaW525wdblx+obL7feuZrDIviOalpaMsXT/GMuJ2fvkq3J57F4sMssnaXOmq28GjSdOffRR6n2NQ2U4iymT5oy/YWp1/oQFgGH5r+LfsOlaZmHeZj4nVmY+JP1JNbvF8M5bJckjqbO0Oh7WdD2si/lQnQ+50HrSt9iWwdVgyWyg0bS0WzvpzieJ/A/srSgFmRFDM7kKiIpZ3PkqruftX3urO8snjiu4jFK8STiNipZUckDm5SdDsdRXTcZg8VilPwsOsxGj3Ex5539XI2HQACo3jH/AKuv/ZW//OSuZahij13HNe1NNC5a7mJuDcDmdp9FOUpSqK0K7FBdWl0rtbTwzKjFHMLq4VgdNDymvsK47bXN1ZyrPazSQyr4NGdNR5MPAjoQascXxlE/JDlU7NvAXMIJjPWSMbj1Go6CnsN5j8n5FfPbvZ+eDxw+Mffpv5dFY1hX+Mx2Si7O8gWTQHkcarLGfNHHeFZMcsU0aSxSJJG41R42DIw8wRtX0q6QHDA7FnmPfE7WacCFzvKcJ5Gz55bIteW41JVQBcoOqDZvbfpU35g+IOjAjcEfQg/Wuz6Vqcpw/i8pzPLH2Vzp3bmDRZP948GHqPtS2agDnH0Wso9o3NwZaGI4jbzG/wB7VGYvifJ4/kimJu7UaAJMx7VB+XKdT7HX2q5xuZxeUTW1mHagavBJ3Zk9U13HUEiuf5Ph7K4vmd07e1Gp+IgBIUfmp8y/uOtapHdGSSN2V1IZHjYqyn6FWXeq7LMsB1XjqmdjRVPSTe+rkAneNnMeyuy6ivagsXxhdQckOSQ3EQ0Anj0E6jw7y7K37H1q0tL6yvohNaTpNHsCUO6nydT3gfUU1inZKPCVjbmjrFI/yty47l+rm1tLuJ4LmGOaJvFJV5l9Rr9etR2U4NkTmlxUnOu5NrO3fHSKU7H0P3q4pXssDJRg4LmnpCemcYXZcNx5LmeO4XzN++s0ZsrdWKvJcqe1bQ6ERw+PuSB61cYzB4rFL/hotZyuj3E3fnf/AHEbDoABW00pXENWOLMbVYvaXs3PC44N4DZz4pSvyzKqszEKqgszMdAoG5JJqYynF9nb88OOVbqYagysSLZD003b20HWpZJWRjFxVOtUmtO1IW4+96o7i5tbWJ57mWOGFPF5WCr6DX6+QqPynGTHnhxSco3HxU6949Yojt7t9ql7y/v8hL213O8rjXlB2RAfoiDuj7V+bOzvshN2FlA80g05+XaOMH6ySHuj+bUqluvkOrEMPNbKnoCCu3vbZBI/8j159F85pp55HmnleWVzq7ysWY+pNZmNw+UyzD4SHSDXR7mbVbdfPlPix6AH1FVmL4Ns4OSbKOt3MNCIF1Fqh6g7t77dKqlRUVVUBVUAKqgAADYAAbV7FRc7xSlR3e0McQ7uoMfnuH0H9c1osVwvi8aUmkHxd2uh7adRyofyot1Hruetb4Cva81pqyNsY1WjBY6exLYfryuxK9rnXGX/AFhf+yt/+UlVGV4mxeO54kPxV0uoMULDlQ/myeA9BqelQGRyN1lLlrq5CByqxqsa8qoikkKNd/qfE0vvTMLdQHNabs9RnbN/kObg3Dfv+iw6UpSdbnNW2U4NjbnmxTiNvH4WZiYz/wC3IdWHodR6VH3FtdWkrQXUMkMy7lJBoSPNT4EdQTXYqxbyxsb+EwXcCSx7kc47yHzRh3gfQ07motfmzIr59R7QTQYMn8Tfv++fVcusMpksY/PaTlFJBeJu9DJ+pDt7jQ9at8XxZjr3kiu9LS5Og/qN/Qc/hkPh6HT1NaXKcH3dvzzY1zcxDU9hJoLhR+Btlb9j61LMrIzo6sroSro6lWU+TK29UWyTVTgdn2WhfWoaYZrsPi4jIj6j15FdmB10r2uXYviHK4vlRH7e1H/p5ySoH5b/ADL/AG6VdYvP4vKcqRydlckb28+iya6f5D4MPT7CmkNpkuWwrI3tD2KeLiNZvEfnh7zW32qcynCmNvS8trpZ3J1JMa6wSN+OIab9Rp71RCvanfG2QYOCX17MtZ2vC7ArkmQxeSxj8l5AVUnSOZDzQSfpfTTXodD0r4W9zdWcqz200kMq+DxtoSPJh4EdCK6/JFFNG8UsaSRuOV0kUMrDyIO1SWU4Nhfnmxcghfcm2mJMJPlG+7L6HUelKZaTmHWiOPmtlT7QRTjurYwx37j9Ru8l5i+Mon5IcogjbZRcwqTGeskY3HqNfQVWxTQzxpLDIkkTjVHjYMjDoRtXIbm1u7OZoLqCSGYb8sg01HmpGxHUE197DKZLGPz2k7ICdXibvQyfrQ7e40PWvYrzmHVlHqi52finHe1Dhju3H6e8F1qtHlOJsXjueJG+Jul1HYwsOVD5SyeA9Nz0qQyXE+XyCdkGFrAVAdLYsGk235pD3tD5DT3rR7DQeZCqANSSfooG+tdzX90fVV6PZs/HbPIfk+nVbLJZvKZQkXMukOuq28Wqwjy1GupPUk+1a+OOWaRIYI5JZpPkiiUu7egH061QYvhPJ3vLLelrK2OhCkA3Tjoh2X336VcY/F43GRGOzgWPXTtJD3pZD5ySN3jUEdWWc68hwV+zpipQZ3NYAkbhsH1O/kpTF8GyvyzZaTkXY/CW7949JZh/ZfvVnbWtpaRJBawxwwp8qRAKo67fWvtSm0UDIh4Qsbc0hPcdjK7LhuHJKVjXl9ZWERmu50hj30LnvOfJFHeJ9BUXlOMLufmhxqm3iOxmcA3DD8I3Vf3PpXks7Ih4ivaejrF0/wATcuJ2KryWaxmLU/EzAykapBFo0z/7ddh1JAqGynE+UyPPFEfhbVtR2cLHtHHh/Ul2PsNB61o3dnZ5JHLMxLO8jEsx+pZm3raYvAZbK8rxp2FodNbm4UhWHnCmzN+w60qksyznVYFsq+iqejmd9YIJG87OQ/srVagaDzICgbkk/QAb61RYvhPJ3vJLelrK2O/KwBupB0Q7L779KrsVw9isVo8cfbXQGhuZ9Gl68g+VR6D71uKsQ0AM5OiW3u0bnYsqDD5nbyHr9lpI+F+HI0RPg+blGnM8srMx82PN40rd0q/3Mf8AqFmjdsnPvD1KUpSpVUStbksLjMopFzD/AFQCEni0SdPRtNx0IIrZUrlzQ4YOCkjlfE4PjOBHBc0ynDGVx3PLGDd2o1PaQqe1QfmRDf3GvtWiB8CD4HUEH6jyIrs9aLKcM4vJF5UX4W7bczQKOVz+bH8p9dj1pXNQ3xdFrqPaP/4tjmPyPTopnF8WZCz5Ir0Nd240AYkC4QdHOx9D96t7DJ4/JR9paTq+gBdD3ZY+jodxXNsnhcpimPxMXNBrotzDq0LfqPiD0OnvWBFLPBIk0ErxSpukkbFXX0IqKO1JCdWQYq9a0NUvt76sQCd42Hkuy0qIxfGLryQ5VOYbD4qBRzDrJENvcfarG3ubW6iSe2mjlib5XjIYa+R6+YprFMyUYtKxtuhPTdhK3LjuK/F3ZWV9CYLuCOaM7gON1P8AqRhuD1BqLynB11BzzYx2uItybeUgTqPwPsre+h9avaV5LAyUeILqnpGxSP8AE7Lgdnv6Ll+O4czWRb/6LWturFXnu0ZTsdCI4jo5P2HWrjF8PYrFBXijMt1po1zccrS9Qm2ij0A963FK4hqxxZjMqxe0xYueEnVbwH54+XySleH6+9TmU4rx1lzxWvLd3I1HcbS3jP4pB4+g+4qd8jYxi44JfXrS2X6kLcSqCWWKGN5ZZEjjQau8jKqKPMsdqk8pxjGnPDi0Ej7g3MykRjrHGdCfU6DoalchlMlk5Oe7mLKpJjiXuwx/oQbe51PWsa3t7q7mW3tYJJ5zvyRDUgebk90DqSKUy3nP8MQ9VsqXZ+KEd7bOOG7cPrx8l7c3V3eStPdTSTSt4vIdSB5AeAHQAV9sfjcllH5LKBpAG5ZJmPJbx/rk8Neg1PSqrF8GRryTZaQStsRawMRCOksmzN6DQetV0UUMMaRQxpHGgCokahUUeQVdqIqLnnWly817c7QQwDuqgxI37h9OPkp7FcJY6yKTXhF7dDQjtFAt42/LiPiep19qpAPCvaU1jjbGMGhYyxamtP15nYn3s4JSlKkVdKUpQhP54U/nhSlCE/nhT+eFKUIT+eFP54UpQheMqsrKygqwKsGAIIP0INSuU4Psp+ebGstrN4mEgm2c9AN19tR0qrpUckTJBg8K1WtzVHa8LsPLmFyC8sb/AB8vY3kDwudeUsNUkA+sbjun70s76+x8vbWc7xPtzcu6OB9HQ90j2rrNxbW11E8FzFHLC47ySqGU9dD9ajspwa6882KkLL4m1nbvDpFKf7H70qlpPjOtEcfNbKpp6Cy3urYAJ5tPpzyWbi+L7O45Isiq20x0AlXU27nrruvvqOtVCujqrIQysAyspBVgdwQRtXHJYpoJHhnjkimT545VKuvqDWfjc1lMWwFtLzQa6tby6tC2v1A8QeoIr2K8WnVlUV3s6yQd5UOHy3ciura1qMpn8ViwySydrc6arbw6NJ05z4KPU+xqRyPFuTvF7O1UWURUBzE5adj9dJNBoPQA9fpU4SBqzH66kk+JPmTUk18DKPqq9Hs452D7RwHAbeZ9FuMpxDlMpzxu/YWp1Hw8BIVh+Y3i39ulahQzMkaKzyOeWNI1LO58lVdz9q3eL4Yy2S5JZFNnaNv2kyntpB+VCdD7tp6GrrGYTFYpdLWH+qw0kuJe/PJ6ufAdBoOlV2VpbB1n/dNLGlKejWdzAMSNw2cz/ZUli+D7255Jsm5tYfEW8RU3Lj8bjVV9tT6Va2dhY4+IQWcEcMY3IRd2Pm7HvE9SayqU1hrsi+EZrG3dJWLp/lOXAbPf1Sn88KUqdLk/nhT+eFKUIT+eFP54UpQhP54UpShCUpShCUpShCUpShCUpShCV5tSlCFh5DGY7JRdldwLJp8jjVZYz5o43FRGU4TyNmWlsi15b7nkAAuUHVRs3tv0pSq00DJQS4Zpro/SVio4Njdkdx2e/otZjcLlcq3+Gh5YQxWS5n1WFSNiB/mJHkB7irnFcMYvGlJnHxV4u4nnUaIfyo/lHruetKVXqQMDBIRmmOmtJWDO6sHYNGWW/wCvvBb3avaUpisylKUoQlKUoQlKUoQlKUoQlKUoQv/Z;" parent="1" vertex="1">
          <mxGeometry x="-250.00122834283087" y="388.59" width="32.97226627558648" height="36.51597573938598" as="geometry" />
        </mxCell>
        <mxCell id="TUTVtr3VRNuUsHLydm8b-16" style="edgeStyle=orthogonalEdgeStyle;rounded=0;orthogonalLoop=1;jettySize=auto;html=1;entryX=0;entryY=0.5;entryDx=0;entryDy=0;" edge="1" parent="1" source="TUTVtr3VRNuUsHLydm8b-13" target="eQoUt7WW08yLKn_f3m6--20">
          <mxGeometry relative="1" as="geometry" />
        </mxCell>
        <mxCell id="TUTVtr3VRNuUsHLydm8b-13" value="" style="shape=image;verticalLabelPosition=bottom;labelBackgroundColor=default;verticalAlign=top;aspect=fixed;imageAspect=0;image=data:image/png,iVBORw0KGgoAAAANSUhEUgAAAL0AAABsCAYAAAA/tbO6AAAAAXNSR0IArs4c6QAAAARnQU1BAACxjwv8YQUAAAAJcEhZcwAADsMAAA7DAcdvqGQAABIfSURBVHhe7Z0HeFRV2sf/k94bJJBCAgFdHukYQDoCshRBXVgRFRVEkAVZLJ80EUL5sCyCrCvsInwILIvU0FwFXGQpISBSQyckIQVTSJ00Jpnvvif3JjOTmSRTbhhyz+957nPvKXPuJPN/3/Oec8/MUb2xPUV7Ib0EHI5SUPVZnaB1c1aJSQ6n4dEKx4W04sqEDsE+zmjm5SSmbIcKsy/TPTkc+0MlOGOt7eXpIJ45HPuCxC6D4Akueo59Ql5eJrjoOYqDi56jOLjoOYqDi56jOLjoOYqj1nn6ga09sfHFUIT6OIs5wE+31Rj8TaKYengcntQSwd5OaLfilpjD4dQPk55+0TNB+PeECFzLLINqTjw7Bglid3dSMWN4lCADiX+3jZjiKB2joh/fxQ8zezfBpnO5el79P4KX773mDjtzOI8qRsObb0aHYOjjXnhtW2qtAqd6b0b5iyngSkZpVbhBhvPFiObYczUfL3bwhberA8rKtfj0aBY+PpTBPG96gUbPqCRvbCxk0b1XQWkFbmaXwU3odaS6hu9FCsOozSeCXMVcYN0vOZi0M415/0E6PZaUz2n8GPX0Lf1dkFdSUafgSdiL/5NZFfr4ujkwMUm4CqIkwU/bk87qUM9BPQi9Lja5CG0DXapCJcoL8nTCzsv5LK0L3YvaISOkdlaeyEb7ZtVCJtoGulaVk4C7h7mzNskoyADIIKmMhE33pDCN3jPlUTkZ+aMWtnEsw+LZm57hHjiWWMS8NkEG8sONQj0hl2q0TKAkdmLL+Tzkl5ajf6QHuyZe7uzLzpRXWl6BnxNqGhrd63RKcVU7dE+6ty59hLBLKj+aUMTu/VhTF5Y2xDBMO5lUBFdHB70BO6fxYlT0iTllzGub8nyUT+VUT5e0fE2t4iGRUQ8iXdMgmQRN0JmMRhKihKl7GUID79IlT0C7rB2bcfIRXlMb1HtQXTrmDwxkvRJHGRhVBnlKEu+ASOOil8RLYZAh5MlT8x+IKX0kAUuQh6WQJnpwEMun+xpi6l40XSlBgp/aI4CFLhSuUJiTLxqXMUjwFM5I4Q2FaNQzcJSBUdFTmHDhXgnzgCQQCRLtibdbsTPF5H1bejDBSWUTo/xwJ+dBlbcm7zm6vQ+7JuY+HcjOUmhDYUqGWoNpPQOY15fCE0NowCvF6ATds02TaiMI8XFioZFkbBQq1ebpDccsvSI8uKdXELU+nCJxzerfFC6O1YLQneUggzA2Y0KQQGn25kZWKRMVQbMuNKjVFTe1QXWlWR1T6M62kLiTBOPyc3dkA1UyON2HaFROPdXquPusTWr/b88Fsxkkev/Uo0hpIuF+GXxcHfHegXsmDY/TeJDtm1OS6CXhmUIKNeqaHuVwbIXpGKABIMOgqUhjA1gORy4emujpoRGFJDQVyR8KcRoS/sVwjuJ4qOENh/Mw4KLnKA4ueo7i4KLnKA7VyaQiPpDlKApVThFfdMJRFjy84SgOLnqO4uCi5ygOLnqO4uCi5ygOLnqO4uCi5ygOLnqO4uCi5ygOLnqO4uCi5ygOq9beaMsfoPxBGTtXlGtQBhXuwxFFWhUCHCrgpy1n9RydXaFycoaDozNUDo4sj8N5WFgk+grNA2hK1bhU7ojzWlckwxnZWgeojXQcJHwygG6qEjyNYjgIBuDs7iWWcjgNj0Wiz8jMRJGrM9ZqfZGm1d/RuaRALRhFOVw83ODkqv+rZM+q1MJRiNjEAgzo2ErM5XAaFotEv+ZwPLq39kay+gHOq8uRJJwz1aXIVZegUDjKikuFUMYB3p7u8PNyR6CXK9p6OqK9lzMCPFxxKD4X0c93ElvjcBoWi0Tv/9Y/MbxTCN7q1xKtmrijqSBmJ5XpZooeAHdzS3DkWjYWxlzGrJEdMHtUR7GUw2lYLBL9yOWHcfzab2KqEg8XJ7Rp7o1IwQj8BM9+N7sISVlFuJVRINaoZpYg+NmC8Dmch4FlU5ZGzKSoTIOLyTmIOZeGDcfu4KcrvxkVPEOmPf85nPrwUObpVTLu+8/h1IXsond3cUTXcF+MeTIEMwZFIvq5thj0mA80JWqUlxWjQlMGbUXlfL6t+GrlcnTr2LbqoLQ9kJhwGzOnTUFubo6YIw/09/76yxkxxTHEMtHXw1H3e7wJtr8dhTvLBmPFjH4YOe4phA6LQkHfLtjdPByfl7jh22JHHFRrcLOwEKX5WXhQXABtuUZswXxITBNeeZFdn7l4reoIDAqSXWi2xhIDodeMGjoI365fK+ZwjGGzmF6Xsd1CsW1KFLRtwjBbG4gVWn/s1nohVuuGW1pnpMEJN+CCY1p3fKf1xrKKAPyvtgkulAFl6lxcTsoSW6o/JcXF+MsnS/HCmLGYPvN9MbeSsS+Ph59f9e/oN0ZI8As/mo1Pln+J3w9/VszlGEOW8CbYt3LnvwiVBhEPiqC+n4fspHSkxd9GQuwFXD0Ui+Rfr+K3G0nIS8+EqqAQrbSlCFdV7iRyNdV8r3wvPQ2FBQXo9/RAMcc4Um8ghT50LXlTMpyPZn+AE8eOsrNURwoV6Ez5VE+C8nTb0MXwXnGnToolldBrpTI69u7eWZX/x+dHsPfxTL+eVeGZqfpEy8jW2LBlOyKFM6d2ZBH9ysMJmLv7KjwK1JjqosZf/Yow3b8CowKc0DvIE+2beaOrpwOGe1bgHa8yfOldiHEOhXDWVGB9bDpuZ1WLqr7cv38fXt7ecHN1E3NqQiJ8VwgZqDeQQh+6ph5CV8ifLl2ESZOnsvLtMQew6ovPmCeNbNOGGRYZmMTJ4/9lbRj2JNK93nn3f1g7x+LO4dLFC8jTMY6bN67h0H9jWfnf12/C7h3fsdd1jerG7tu7b39WLvVcpupzzEOemF4oX388GR0WHsHwL09hiWAA8efuIiIvH884aPBhuDfejfDGMB8nOOaWYN3xFLy09hwiZ/2IuTsuyja7k3DrFkJbhGPI0OFijjD2EHoGQyEvXPIJ85wEnaO6P4WLF84zYQ8cPAT798awMhLcrZs30LFTZ5bWRbrXE+3as7SbuzszJF8d49ANu8igqCxXMF5TmFufYxxZYnrd8l+T87D5VAoW7b+B8evO4Q9fn0aPpUfRbv5hRC06gudWnUD0niv4+Vr1Fj1aC+bxAwICmHhLSkvEnJqk3E1G8+bBTIAS1DNQD0E9hSnCI6o3hCaBk9BJ8CTsNo89XmUguhi7lyHSwJNCFQpjEm7X3CldF3Prc4wjS3hjNRZ4+ubBIUy8JERThAme9969dL1QhvDy8mZGY4rkpOqt/HXvQ6FNrz79xBJ9jN2LDEsKb0jAK5d/ho1bd7BwhcKWyNZtWJkxzK3PMY19it4CT08e9Q9CbD1l4ni9AR7x3ZZNzDNTSJAqeOCDP3wvloBdFxYWMDFL7BJiZUmsNHg8eyauaoAs3Yfi/MLCwqrwxRAyoovnz+FK/GWWpvaoXQnDMQgZUW2e29z6HNNYJPrev2smXpnA2pDcwpieBoDkAWmApzvL4e7uwWJhOlb87e965afjYvHRgsV6YUiHjp3w4gvPsnKaBlyweFlVLE2Q8dC4gwRvKnyhkGfV1/9gr6d2qL0BAwdXxfSSsfTt0YWVk0Hoem56PYVO0uxNXfU59ceiBWfEjrhEbBeOg5dSxRzb8bBWYZI3XhI9n3lyMiBTUK+xcN5szHz/Q6PxPMe+sTi8GdOjJb6bMQDXl4/Gmom98Oeh7fBqn9YY1ikUfp6V8/QWY+drczZvWG9yAMuxf6yO6YN83DC2ZyssHN0Zf339KWyZPgDtwyq3s7cYO12FKT0cogHqpCl/EnM5jxoWhze1YWy9vTnw9fYcOZFn9sZaM+Lr7TkyYp9TlnYe03MebexT9NzTc2REFtH7euj/9IfZcE/PkRFZRP/pS1EY1TVcTJnH+D6t+SCWIyuqnKJy2WKJu9lqXE3Lw9XUXCRnF4q5NWkR4Ikw4ejQwg+/C7FyupPDqQNZpiw5HHvGPgeyHI6McNFzFAcXPUdxcNFzFAcXPUdxcNFzFAcXPUdxcNFzFAcXPUdxcNFzFAcXPUdxcNFzFAcXPUdxcNFzFAcXPUdxWLee3kZf69NqK6Bi9mfmW9FqoRXeg81+2tvS7+bSy+gtPOz3YS8I/wb6ExpyQz0VaUG8rguzRS99vvJgTutUz6y3bgb1b5t+Vly2D1fef7ZiMTu8kfMzkEvC5mKOhmV1ZlzwsiDr1wVv3riO5sHB8Pb2EXNqhzooIVgRU3VB9eR56+S5678xRN3uuLSkBJcvXRRTNXm8bdt6/48aM+kFGtzOLsNjTZ3RzMtZzLU9son+9XFjkJGRgazMDIx6YTTmRy8VS0zTGEW/L2YXPlu2uMZGELr4+wfgg9nzMGTYCDFHORxPLMKSI5m4lf0A2UXV26kGezvjyVA3LBgUiDZNrPxJGQNkEX1c7El8ujQau/b/yDwc7bBHu2fURWMUPW2X0659Byz7y0oxpyZzPpjJfueefgdfSaw+dR9zD1Zvu2SKr0YF45XOvmLKeqyesvzH6q/YL/nqHtOnTMTd5CR2TYInDOvQcfjgD6ysoXj7zddwp4F27zj47wPsnJ6WilZ1bJ5A5VRPSUzYkVovwRPT96bjnX33xJT1WC36yVOn470P56Blq0jmzetzBAY1Y+fBQ4aKrcjPqZMncPP69ToFaAuO/HRIb6sdjj5rz+Qg5kqBmKofm8/l4uidIjFlHTZ5OBUcEsp206sPtGFYUFCQmJKHs2dOi1fVbNrwDV56ZbyYMl7HVtAAXpf6BmxKoFSIpr88YXonx32vhWNW/6ZiSp81cbbZPtQmog8NawGNRsMOgkKIC+d+ZdcEhUASCST6Zs3FlO2Jnj8H2/61WUxVkpaagtOnYjFWR/S0+dqij+eKKU5DkZhThtT8yp3hjbE6LgczegYYFX5sUjE0FdaP42wi+jBB9DTllppyl6UPCbH66q+qB25rBdFLnpV5eplEv+LzT1hsPG/hYjGnkm/Xf4OhI0bCx6d6MDTzg1m4diUeq774XMyRD3mG248mibnVMzTG+P56AYZtSMIbXf1qCD+vtBwX75WKKcuxiejdPTyEECcEafUYjJGnD5QhvCGjOhMXiznzo/XETezavpXttq1LSGgYpv35PWzb+k9ZQx2OPtczS8SrSt7q5o+cj9vqHUcnt0JzbyfMFkTfp6WHWLOSuGTr43qbiJ4gEaULYURdUOhDO2nbGtoG08fXF8eOHhFzKtmyaQOe6tUb7TvU3K2QxN6pcxd0MLLNPUcemnk5iVeV0KB25MbkGgcNdMmrZ6jLxZqVtG5i5SZ+AjYVfWpK3aJPvJOAZjKI3sXVFXM+WiiI/Fsc2Bsj5lLsvhkjRj4vpqqJ2bWdbZw8a94CuLjY9uEHxzStjTxoogdUusebUf5o6uGIcVtTcCNTP5zpEmJHog9r0YINGGuDysvKytjSBDmIaBWJ+dFLsG/PLpY+ceyoMNbwZvG8IT8c2MeeEodHtBRzOA2BMdHr8n9jQuHqpMKr21KRZjDg7RbmhkBP/Z7CEmwn+vCIOkWfnJTEBry6W9Lbmp69+2LNuo3smnn5UTW9PEF1evTsJaZsT1ZmJjs/2a07fhIG9hRKmTqovGtUd1a/sePv5ojJ3at3Xzdk3S85GL8tBXkl+mENMaa9bdYn2WwZAj2BfXP8OBw8epKl8/PzqgaU9OSVHkTRVOLuHdvwr517Wb4htlyGkJyUiD+9NQFbdsTUGNjWhbXLEL7ftwcL5s3Cxq07UaRWY+2a6tkrY5BhvPr6RPTpN0DMafxEfnYTOUaEbYoIPxecnxEppqzDpmtv3nj5j5j09jSTHx7Nizs7OWPOx9Fijj62XntD636MDWDrwlrRx1++xP4XBK25acgnz48KZ1NLMHhdopiqHQp3fpwQgU7BbmKOddhU9OTRv161Av2fHsSmMXWh+fP9e3bjwKGfTc7TN6YFZ/RAjp5PECR63eUPum0P+f2wBlkaYa8sP5aFJUeyxJQ+Lfyc8X7fJni9i223ZLL5KsvYE8ewf28MsrMqY1qJJ4WY1fDDN6SxrbK8En8Ze3btQFJigphTTZOmgZg0eaqiBS9B6+h/SS3G2ZQSnE0rRo8WHsLhJhzu8HF1FGvZDlmWFltKY1xazLE/zJ69qb8ozce8tuWzVfqien0hM+XoY+//EbNFT9648VP/j62ypkwf8yP6r7bvtw38Px7mBsCdqNJKAAAAAElFTkSuQmCC;" vertex="1" parent="1">
          <mxGeometry x="-670" y="386.61" width="70.84" height="40.48" as="geometry" />
        </mxCell>
        <mxCell id="TUTVtr3VRNuUsHLydm8b-20" value="" style="endArrow=none;html=1;rounded=0;" edge="1" parent="1">
          <mxGeometry width="50" height="50" relative="1" as="geometry">
            <mxPoint x="-500" y="520" as="sourcePoint" />
            <mxPoint x="-230" y="520" as="targetPoint" />
            <Array as="points" />
          </mxGeometry>
        </mxCell>
        <mxCell id="TUTVtr3VRNuUsHLydm8b-21" value="" style="shape=image;verticalLabelPosition=bottom;labelBackgroundColor=default;verticalAlign=top;aspect=fixed;imageAspect=0;image=data:image/png,iVBORw0KGgoAAAANSUhEUgAAAL0AAABsCAYAAAA/tbO6AAAAAXNSR0IArs4c6QAAAARnQU1BAACxjwv8YQUAAAAJcEhZcwAADsMAAA7DAcdvqGQAABIfSURBVHhe7Z0HeFRV2sf/k94bJJBCAgFdHukYQDoCshRBXVgRFRVEkAVZLJ80EUL5sCyCrCvsInwILIvU0FwFXGQpISBSQyckIQVTSJ00Jpnvvif3JjOTmSRTbhhyz+957nPvKXPuJPN/3/Oec8/MUb2xPUV7Ib0EHI5SUPVZnaB1c1aJSQ6n4dEKx4W04sqEDsE+zmjm5SSmbIcKsy/TPTkc+0MlOGOt7eXpIJ45HPuCxC6D4Akueo59Ql5eJrjoOYqDi56jOLjoOYqDi56jOLjoOYqj1nn6ga09sfHFUIT6OIs5wE+31Rj8TaKYengcntQSwd5OaLfilpjD4dQPk55+0TNB+PeECFzLLINqTjw7Bglid3dSMWN4lCADiX+3jZjiKB2joh/fxQ8zezfBpnO5el79P4KX773mDjtzOI8qRsObb0aHYOjjXnhtW2qtAqd6b0b5iyngSkZpVbhBhvPFiObYczUfL3bwhberA8rKtfj0aBY+PpTBPG96gUbPqCRvbCxk0b1XQWkFbmaXwU3odaS6hu9FCsOozSeCXMVcYN0vOZi0M415/0E6PZaUz2n8GPX0Lf1dkFdSUafgSdiL/5NZFfr4ujkwMUm4CqIkwU/bk87qUM9BPQi9Lja5CG0DXapCJcoL8nTCzsv5LK0L3YvaISOkdlaeyEb7ZtVCJtoGulaVk4C7h7mzNskoyADIIKmMhE33pDCN3jPlUTkZ+aMWtnEsw+LZm57hHjiWWMS8NkEG8sONQj0hl2q0TKAkdmLL+Tzkl5ajf6QHuyZe7uzLzpRXWl6BnxNqGhrd63RKcVU7dE+6ty59hLBLKj+aUMTu/VhTF5Y2xDBMO5lUBFdHB70BO6fxYlT0iTllzGub8nyUT+VUT5e0fE2t4iGRUQ8iXdMgmQRN0JmMRhKihKl7GUID79IlT0C7rB2bcfIRXlMb1HtQXTrmDwxkvRJHGRhVBnlKEu+ASOOil8RLYZAh5MlT8x+IKX0kAUuQh6WQJnpwEMun+xpi6l40XSlBgp/aI4CFLhSuUJiTLxqXMUjwFM5I4Q2FaNQzcJSBUdFTmHDhXgnzgCQQCRLtibdbsTPF5H1bejDBSWUTo/xwJ+dBlbcm7zm6vQ+7JuY+HcjOUmhDYUqGWoNpPQOY15fCE0NowCvF6ATds02TaiMI8XFioZFkbBQq1ebpDccsvSI8uKdXELU+nCJxzerfFC6O1YLQneUggzA2Y0KQQGn25kZWKRMVQbMuNKjVFTe1QXWlWR1T6M62kLiTBOPyc3dkA1UyON2HaFROPdXquPusTWr/b88Fsxkkev/Uo0hpIuF+GXxcHfHegXsmDY/TeJDtm1OS6CXhmUIKNeqaHuVwbIXpGKABIMOgqUhjA1gORy4emujpoRGFJDQVyR8KcRoS/sVwjuJ4qOENh/Mw4KLnKA4ueo7i4KLnKA7VyaQiPpDlKApVThFfdMJRFjy84SgOLnqO4uCi5ygOLnqO4uCi5ygOLnqO4uCi5ygOLnqO4uCi5ygOLnqO4uCi5ygOq9beaMsfoPxBGTtXlGtQBhXuwxFFWhUCHCrgpy1n9RydXaFycoaDozNUDo4sj8N5WFgk+grNA2hK1bhU7ojzWlckwxnZWgeojXQcJHwygG6qEjyNYjgIBuDs7iWWcjgNj0Wiz8jMRJGrM9ZqfZGm1d/RuaRALRhFOVw83ODkqv+rZM+q1MJRiNjEAgzo2ErM5XAaFotEv+ZwPLq39kay+gHOq8uRJJwz1aXIVZegUDjKikuFUMYB3p7u8PNyR6CXK9p6OqK9lzMCPFxxKD4X0c93ElvjcBoWi0Tv/9Y/MbxTCN7q1xKtmrijqSBmJ5XpZooeAHdzS3DkWjYWxlzGrJEdMHtUR7GUw2lYLBL9yOWHcfzab2KqEg8XJ7Rp7o1IwQj8BM9+N7sISVlFuJVRINaoZpYg+NmC8Dmch4FlU5ZGzKSoTIOLyTmIOZeGDcfu4KcrvxkVPEOmPf85nPrwUObpVTLu+8/h1IXsond3cUTXcF+MeTIEMwZFIvq5thj0mA80JWqUlxWjQlMGbUXlfL6t+GrlcnTr2LbqoLQ9kJhwGzOnTUFubo6YIw/09/76yxkxxTHEMtHXw1H3e7wJtr8dhTvLBmPFjH4YOe4phA6LQkHfLtjdPByfl7jh22JHHFRrcLOwEKX5WXhQXABtuUZswXxITBNeeZFdn7l4reoIDAqSXWi2xhIDodeMGjoI365fK+ZwjGGzmF6Xsd1CsW1KFLRtwjBbG4gVWn/s1nohVuuGW1pnpMEJN+CCY1p3fKf1xrKKAPyvtgkulAFl6lxcTsoSW6o/JcXF+MsnS/HCmLGYPvN9MbeSsS+Ph59f9e/oN0ZI8As/mo1Pln+J3w9/VszlGEOW8CbYt3LnvwiVBhEPiqC+n4fspHSkxd9GQuwFXD0Ui+Rfr+K3G0nIS8+EqqAQrbSlCFdV7iRyNdV8r3wvPQ2FBQXo9/RAMcc4Um8ghT50LXlTMpyPZn+AE8eOsrNURwoV6Ez5VE+C8nTb0MXwXnGnToolldBrpTI69u7eWZX/x+dHsPfxTL+eVeGZqfpEy8jW2LBlOyKFM6d2ZBH9ysMJmLv7KjwK1JjqosZf/Yow3b8CowKc0DvIE+2beaOrpwOGe1bgHa8yfOldiHEOhXDWVGB9bDpuZ1WLqr7cv38fXt7ecHN1E3NqQiJ8VwgZqDeQQh+6ph5CV8ifLl2ESZOnsvLtMQew6ovPmCeNbNOGGRYZmMTJ4/9lbRj2JNK93nn3f1g7x+LO4dLFC8jTMY6bN67h0H9jWfnf12/C7h3fsdd1jerG7tu7b39WLvVcpupzzEOemF4oX388GR0WHsHwL09hiWAA8efuIiIvH884aPBhuDfejfDGMB8nOOaWYN3xFLy09hwiZ/2IuTsuyja7k3DrFkJbhGPI0OFijjD2EHoGQyEvXPIJ85wEnaO6P4WLF84zYQ8cPAT798awMhLcrZs30LFTZ5bWRbrXE+3as7SbuzszJF8d49ANu8igqCxXMF5TmFufYxxZYnrd8l+T87D5VAoW7b+B8evO4Q9fn0aPpUfRbv5hRC06gudWnUD0niv4+Vr1Fj1aC+bxAwICmHhLSkvEnJqk3E1G8+bBTIAS1DNQD0E9hSnCI6o3hCaBk9BJ8CTsNo89XmUguhi7lyHSwJNCFQpjEm7X3CldF3Prc4wjS3hjNRZ4+ubBIUy8JERThAme9969dL1QhvDy8mZGY4rkpOqt/HXvQ6FNrz79xBJ9jN2LDEsKb0jAK5d/ho1bd7BwhcKWyNZtWJkxzK3PMY19it4CT08e9Q9CbD1l4ni9AR7x3ZZNzDNTSJAqeOCDP3wvloBdFxYWMDFL7BJiZUmsNHg8eyauaoAs3Yfi/MLCwqrwxRAyoovnz+FK/GWWpvaoXQnDMQgZUW2e29z6HNNYJPrev2smXpnA2pDcwpieBoDkAWmApzvL4e7uwWJhOlb87e965afjYvHRgsV6YUiHjp3w4gvPsnKaBlyweFlVLE2Q8dC4gwRvKnyhkGfV1/9gr6d2qL0BAwdXxfSSsfTt0YWVk0Hoem56PYVO0uxNXfU59ceiBWfEjrhEbBeOg5dSxRzb8bBWYZI3XhI9n3lyMiBTUK+xcN5szHz/Q6PxPMe+sTi8GdOjJb6bMQDXl4/Gmom98Oeh7fBqn9YY1ikUfp6V8/QWY+drczZvWG9yAMuxf6yO6YN83DC2ZyssHN0Zf339KWyZPgDtwyq3s7cYO12FKT0cogHqpCl/EnM5jxoWhze1YWy9vTnw9fYcOZFn9sZaM+Lr7TkyYp9TlnYe03MebexT9NzTc2REFtH7euj/9IfZcE/PkRFZRP/pS1EY1TVcTJnH+D6t+SCWIyuqnKJy2WKJu9lqXE3Lw9XUXCRnF4q5NWkR4Ikw4ejQwg+/C7FyupPDqQNZpiw5HHvGPgeyHI6McNFzFAcXPUdxcNFzFAcXPUdxcNFzFAcXPUdxcNFzFAcXPUdxcNFzFAcXPUdxcNFzFAcXPUdxcNFzFAcXPUdxWLee3kZf69NqK6Bi9mfmW9FqoRXeg81+2tvS7+bSy+gtPOz3YS8I/wb6ExpyQz0VaUG8rguzRS99vvJgTutUz6y3bgb1b5t+Vly2D1fef7ZiMTu8kfMzkEvC5mKOhmV1ZlzwsiDr1wVv3riO5sHB8Pb2EXNqhzooIVgRU3VB9eR56+S5678xRN3uuLSkBJcvXRRTNXm8bdt6/48aM+kFGtzOLsNjTZ3RzMtZzLU9son+9XFjkJGRgazMDIx6YTTmRy8VS0zTGEW/L2YXPlu2uMZGELr4+wfgg9nzMGTYCDFHORxPLMKSI5m4lf0A2UXV26kGezvjyVA3LBgUiDZNrPxJGQNkEX1c7El8ujQau/b/yDwc7bBHu2fURWMUPW2X0659Byz7y0oxpyZzPpjJfueefgdfSaw+dR9zD1Zvu2SKr0YF45XOvmLKeqyesvzH6q/YL/nqHtOnTMTd5CR2TYInDOvQcfjgD6ysoXj7zddwp4F27zj47wPsnJ6WilZ1bJ5A5VRPSUzYkVovwRPT96bjnX33xJT1WC36yVOn470P56Blq0jmzetzBAY1Y+fBQ4aKrcjPqZMncPP69ToFaAuO/HRIb6sdjj5rz+Qg5kqBmKofm8/l4uidIjFlHTZ5OBUcEsp206sPtGFYUFCQmJKHs2dOi1fVbNrwDV56ZbyYMl7HVtAAXpf6BmxKoFSIpr88YXonx32vhWNW/6ZiSp81cbbZPtQmog8NawGNRsMOgkKIC+d+ZdcEhUASCST6Zs3FlO2Jnj8H2/61WUxVkpaagtOnYjFWR/S0+dqij+eKKU5DkZhThtT8yp3hjbE6LgczegYYFX5sUjE0FdaP42wi+jBB9DTllppyl6UPCbH66q+qB25rBdFLnpV5eplEv+LzT1hsPG/hYjGnkm/Xf4OhI0bCx6d6MDTzg1m4diUeq774XMyRD3mG248mibnVMzTG+P56AYZtSMIbXf1qCD+vtBwX75WKKcuxiejdPTyEECcEafUYjJGnD5QhvCGjOhMXiznzo/XETezavpXttq1LSGgYpv35PWzb+k9ZQx2OPtczS8SrSt7q5o+cj9vqHUcnt0JzbyfMFkTfp6WHWLOSuGTr43qbiJ4gEaULYURdUOhDO2nbGtoG08fXF8eOHhFzKtmyaQOe6tUb7TvU3K2QxN6pcxd0MLLNPUcemnk5iVeV0KB25MbkGgcNdMmrZ6jLxZqVtG5i5SZ+AjYVfWpK3aJPvJOAZjKI3sXVFXM+WiiI/Fsc2Bsj5lLsvhkjRj4vpqqJ2bWdbZw8a94CuLjY9uEHxzStjTxoogdUusebUf5o6uGIcVtTcCNTP5zpEmJHog9r0YINGGuDysvKytjSBDmIaBWJ+dFLsG/PLpY+ceyoMNbwZvG8IT8c2MeeEodHtBRzOA2BMdHr8n9jQuHqpMKr21KRZjDg7RbmhkBP/Z7CEmwn+vCIOkWfnJTEBry6W9Lbmp69+2LNuo3smnn5UTW9PEF1evTsJaZsT1ZmJjs/2a07fhIG9hRKmTqovGtUd1a/sePv5ojJ3at3Xzdk3S85GL8tBXkl+mENMaa9bdYn2WwZAj2BfXP8OBw8epKl8/PzqgaU9OSVHkTRVOLuHdvwr517Wb4htlyGkJyUiD+9NQFbdsTUGNjWhbXLEL7ftwcL5s3Cxq07UaRWY+2a6tkrY5BhvPr6RPTpN0DMafxEfnYTOUaEbYoIPxecnxEppqzDpmtv3nj5j5j09jSTHx7Nizs7OWPOx9Fijj62XntD636MDWDrwlrRx1++xP4XBK25acgnz48KZ1NLMHhdopiqHQp3fpwQgU7BbmKOddhU9OTRv161Av2fHsSmMXWh+fP9e3bjwKGfTc7TN6YFZ/RAjp5PECR63eUPum0P+f2wBlkaYa8sP5aFJUeyxJQ+Lfyc8X7fJni9i223ZLL5KsvYE8ewf28MsrMqY1qJJ4WY1fDDN6SxrbK8En8Ze3btQFJigphTTZOmgZg0eaqiBS9B6+h/SS3G2ZQSnE0rRo8WHsLhJhzu8HF1FGvZDlmWFltKY1xazLE/zJ69qb8ozce8tuWzVfqien0hM+XoY+//EbNFT9648VP/j62ypkwf8yP6r7bvtw38Px7mBsCdqNJKAAAAAElFTkSuQmCC;" vertex="1" parent="1">
          <mxGeometry x="-417.71" y="530" width="70.84" height="40.48" as="geometry" />
        </mxCell>
        <mxCell id="TUTVtr3VRNuUsHLydm8b-22" value="WriteLogs" style="text;html=1;align=center;verticalAlign=middle;resizable=0;points=[];autosize=1;strokeColor=none;fillColor=none;" vertex="1" parent="1">
          <mxGeometry x="-425" y="570.48" width="80" height="30" as="geometry" />
        </mxCell>
        <mxCell id="TUTVtr3VRNuUsHLydm8b-31" style="edgeStyle=orthogonalEdgeStyle;rounded=0;orthogonalLoop=1;jettySize=auto;html=1;entryX=1;entryY=0.5;entryDx=0;entryDy=0;" edge="1" parent="1" source="TUTVtr3VRNuUsHLydm8b-25" target="TUTVtr3VRNuUsHLydm8b-28">
          <mxGeometry relative="1" as="geometry" />
        </mxCell>
        <mxCell id="TUTVtr3VRNuUsHLydm8b-25" value="" style="shape=image;verticalLabelPosition=bottom;labelBackgroundColor=default;verticalAlign=top;aspect=fixed;imageAspect=0;image=data:image/png,iVBORw0KGgoAAAANSUhEUgAAAL0AAABsCAYAAAA/tbO6AAAAAXNSR0IArs4c6QAAAARnQU1BAACxjwv8YQUAAAAJcEhZcwAADsMAAA7DAcdvqGQAABIfSURBVHhe7Z0HeFRV2sf/k94bJJBCAgFdHukYQDoCshRBXVgRFRVEkAVZLJ80EUL5sCyCrCvsInwILIvU0FwFXGQpISBSQyckIQVTSJ00Jpnvvif3JjOTmSRTbhhyz+957nPvKXPuJPN/3/Oec8/MUb2xPUV7Ib0EHI5SUPVZnaB1c1aJSQ6n4dEKx4W04sqEDsE+zmjm5SSmbIcKsy/TPTkc+0MlOGOt7eXpIJ45HPuCxC6D4Akueo59Ql5eJrjoOYqDi56jOLjoOYqDi56jOLjoOYqj1nn6ga09sfHFUIT6OIs5wE+31Rj8TaKYengcntQSwd5OaLfilpjD4dQPk55+0TNB+PeECFzLLINqTjw7Bglid3dSMWN4lCADiX+3jZjiKB2joh/fxQ8zezfBpnO5el79P4KX773mDjtzOI8qRsObb0aHYOjjXnhtW2qtAqd6b0b5iyngSkZpVbhBhvPFiObYczUfL3bwhberA8rKtfj0aBY+PpTBPG96gUbPqCRvbCxk0b1XQWkFbmaXwU3odaS6hu9FCsOozSeCXMVcYN0vOZi0M415/0E6PZaUz2n8GPX0Lf1dkFdSUafgSdiL/5NZFfr4ujkwMUm4CqIkwU/bk87qUM9BPQi9Lja5CG0DXapCJcoL8nTCzsv5LK0L3YvaISOkdlaeyEb7ZtVCJtoGulaVk4C7h7mzNskoyADIIKmMhE33pDCN3jPlUTkZ+aMWtnEsw+LZm57hHjiWWMS8NkEG8sONQj0hl2q0TKAkdmLL+Tzkl5ajf6QHuyZe7uzLzpRXWl6BnxNqGhrd63RKcVU7dE+6ty59hLBLKj+aUMTu/VhTF5Y2xDBMO5lUBFdHB70BO6fxYlT0iTllzGub8nyUT+VUT5e0fE2t4iGRUQ8iXdMgmQRN0JmMRhKihKl7GUID79IlT0C7rB2bcfIRXlMb1HtQXTrmDwxkvRJHGRhVBnlKEu+ASOOil8RLYZAh5MlT8x+IKX0kAUuQh6WQJnpwEMun+xpi6l40XSlBgp/aI4CFLhSuUJiTLxqXMUjwFM5I4Q2FaNQzcJSBUdFTmHDhXgnzgCQQCRLtibdbsTPF5H1bejDBSWUTo/xwJ+dBlbcm7zm6vQ+7JuY+HcjOUmhDYUqGWoNpPQOY15fCE0NowCvF6ATds02TaiMI8XFioZFkbBQq1ebpDccsvSI8uKdXELU+nCJxzerfFC6O1YLQneUggzA2Y0KQQGn25kZWKRMVQbMuNKjVFTe1QXWlWR1T6M62kLiTBOPyc3dkA1UyON2HaFROPdXquPusTWr/b88Fsxkkev/Uo0hpIuF+GXxcHfHegXsmDY/TeJDtm1OS6CXhmUIKNeqaHuVwbIXpGKABIMOgqUhjA1gORy4emujpoRGFJDQVyR8KcRoS/sVwjuJ4qOENh/Mw4KLnKA4ueo7i4KLnKA7VyaQiPpDlKApVThFfdMJRFjy84SgOLnqO4uCi5ygOLnqO4uCi5ygOLnqO4uCi5ygOLnqO4uCi5ygOLnqO4uCi5ygOq9beaMsfoPxBGTtXlGtQBhXuwxFFWhUCHCrgpy1n9RydXaFycoaDozNUDo4sj8N5WFgk+grNA2hK1bhU7ojzWlckwxnZWgeojXQcJHwygG6qEjyNYjgIBuDs7iWWcjgNj0Wiz8jMRJGrM9ZqfZGm1d/RuaRALRhFOVw83ODkqv+rZM+q1MJRiNjEAgzo2ErM5XAaFotEv+ZwPLq39kay+gHOq8uRJJwz1aXIVZegUDjKikuFUMYB3p7u8PNyR6CXK9p6OqK9lzMCPFxxKD4X0c93ElvjcBoWi0Tv/9Y/MbxTCN7q1xKtmrijqSBmJ5XpZooeAHdzS3DkWjYWxlzGrJEdMHtUR7GUw2lYLBL9yOWHcfzab2KqEg8XJ7Rp7o1IwQj8BM9+N7sISVlFuJVRINaoZpYg+NmC8Dmch4FlU5ZGzKSoTIOLyTmIOZeGDcfu4KcrvxkVPEOmPf85nPrwUObpVTLu+8/h1IXsond3cUTXcF+MeTIEMwZFIvq5thj0mA80JWqUlxWjQlMGbUXlfL6t+GrlcnTr2LbqoLQ9kJhwGzOnTUFubo6YIw/09/76yxkxxTHEMtHXw1H3e7wJtr8dhTvLBmPFjH4YOe4phA6LQkHfLtjdPByfl7jh22JHHFRrcLOwEKX5WXhQXABtuUZswXxITBNeeZFdn7l4reoIDAqSXWi2xhIDodeMGjoI365fK+ZwjGGzmF6Xsd1CsW1KFLRtwjBbG4gVWn/s1nohVuuGW1pnpMEJN+CCY1p3fKf1xrKKAPyvtgkulAFl6lxcTsoSW6o/JcXF+MsnS/HCmLGYPvN9MbeSsS+Ph59f9e/oN0ZI8As/mo1Pln+J3w9/VszlGEOW8CbYt3LnvwiVBhEPiqC+n4fspHSkxd9GQuwFXD0Ui+Rfr+K3G0nIS8+EqqAQrbSlCFdV7iRyNdV8r3wvPQ2FBQXo9/RAMcc4Um8ghT50LXlTMpyPZn+AE8eOsrNURwoV6Ez5VE+C8nTb0MXwXnGnToolldBrpTI69u7eWZX/x+dHsPfxTL+eVeGZqfpEy8jW2LBlOyKFM6d2ZBH9ysMJmLv7KjwK1JjqosZf/Yow3b8CowKc0DvIE+2beaOrpwOGe1bgHa8yfOldiHEOhXDWVGB9bDpuZ1WLqr7cv38fXt7ecHN1E3NqQiJ8VwgZqDeQQh+6ph5CV8ifLl2ESZOnsvLtMQew6ovPmCeNbNOGGRYZmMTJ4/9lbRj2JNK93nn3f1g7x+LO4dLFC8jTMY6bN67h0H9jWfnf12/C7h3fsdd1jerG7tu7b39WLvVcpupzzEOemF4oX388GR0WHsHwL09hiWAA8efuIiIvH884aPBhuDfejfDGMB8nOOaWYN3xFLy09hwiZ/2IuTsuyja7k3DrFkJbhGPI0OFijjD2EHoGQyEvXPIJ85wEnaO6P4WLF84zYQ8cPAT798awMhLcrZs30LFTZ5bWRbrXE+3as7SbuzszJF8d49ANu8igqCxXMF5TmFufYxxZYnrd8l+T87D5VAoW7b+B8evO4Q9fn0aPpUfRbv5hRC06gudWnUD0niv4+Vr1Fj1aC+bxAwICmHhLSkvEnJqk3E1G8+bBTIAS1DNQD0E9hSnCI6o3hCaBk9BJ8CTsNo89XmUguhi7lyHSwJNCFQpjEm7X3CldF3Prc4wjS3hjNRZ4+ubBIUy8JERThAme9969dL1QhvDy8mZGY4rkpOqt/HXvQ6FNrz79xBJ9jN2LDEsKb0jAK5d/ho1bd7BwhcKWyNZtWJkxzK3PMY19it4CT08e9Q9CbD1l4ni9AR7x3ZZNzDNTSJAqeOCDP3wvloBdFxYWMDFL7BJiZUmsNHg8eyauaoAs3Yfi/MLCwqrwxRAyoovnz+FK/GWWpvaoXQnDMQgZUW2e29z6HNNYJPrev2smXpnA2pDcwpieBoDkAWmApzvL4e7uwWJhOlb87e965afjYvHRgsV6YUiHjp3w4gvPsnKaBlyweFlVLE2Q8dC4gwRvKnyhkGfV1/9gr6d2qL0BAwdXxfSSsfTt0YWVk0Hoem56PYVO0uxNXfU59ceiBWfEjrhEbBeOg5dSxRzb8bBWYZI3XhI9n3lyMiBTUK+xcN5szHz/Q6PxPMe+sTi8GdOjJb6bMQDXl4/Gmom98Oeh7fBqn9YY1ikUfp6V8/QWY+drczZvWG9yAMuxf6yO6YN83DC2ZyssHN0Zf339KWyZPgDtwyq3s7cYO12FKT0cogHqpCl/EnM5jxoWhze1YWy9vTnw9fYcOZFn9sZaM+Lr7TkyYp9TlnYe03MebexT9NzTc2REFtH7euj/9IfZcE/PkRFZRP/pS1EY1TVcTJnH+D6t+SCWIyuqnKJy2WKJu9lqXE3Lw9XUXCRnF4q5NWkR4Ikw4ejQwg+/C7FyupPDqQNZpiw5HHvGPgeyHI6McNFzFAcXPUdxcNFzFAcXPUdxcNFzFAcXPUdxcNFzFAcXPUdxcNFzFAcXPUdxcNFzFAcXPUdxcNFzFAcXPUdxWLee3kZf69NqK6Bi9mfmW9FqoRXeg81+2tvS7+bSy+gtPOz3YS8I/wb6ExpyQz0VaUG8rguzRS99vvJgTutUz6y3bgb1b5t+Vly2D1fef7ZiMTu8kfMzkEvC5mKOhmV1ZlzwsiDr1wVv3riO5sHB8Pb2EXNqhzooIVgRU3VB9eR56+S5678xRN3uuLSkBJcvXRRTNXm8bdt6/48aM+kFGtzOLsNjTZ3RzMtZzLU9son+9XFjkJGRgazMDIx6YTTmRy8VS0zTGEW/L2YXPlu2uMZGELr4+wfgg9nzMGTYCDFHORxPLMKSI5m4lf0A2UXV26kGezvjyVA3LBgUiDZNrPxJGQNkEX1c7El8ujQau/b/yDwc7bBHu2fURWMUPW2X0659Byz7y0oxpyZzPpjJfueefgdfSaw+dR9zD1Zvu2SKr0YF45XOvmLKeqyesvzH6q/YL/nqHtOnTMTd5CR2TYInDOvQcfjgD6ysoXj7zddwp4F27zj47wPsnJ6WilZ1bJ5A5VRPSUzYkVovwRPT96bjnX33xJT1WC36yVOn470P56Blq0jmzetzBAY1Y+fBQ4aKrcjPqZMncPP69ToFaAuO/HRIb6sdjj5rz+Qg5kqBmKofm8/l4uidIjFlHTZ5OBUcEsp206sPtGFYUFCQmJKHs2dOi1fVbNrwDV56ZbyYMl7HVtAAXpf6BmxKoFSIpr88YXonx32vhWNW/6ZiSp81cbbZPtQmog8NawGNRsMOgkKIC+d+ZdcEhUASCST6Zs3FlO2Jnj8H2/61WUxVkpaagtOnYjFWR/S0+dqij+eKKU5DkZhThtT8yp3hjbE6LgczegYYFX5sUjE0FdaP42wi+jBB9DTllppyl6UPCbH66q+qB25rBdFLnpV5eplEv+LzT1hsPG/hYjGnkm/Xf4OhI0bCx6d6MDTzg1m4diUeq774XMyRD3mG248mibnVMzTG+P56AYZtSMIbXf1qCD+vtBwX75WKKcuxiejdPTyEECcEafUYjJGnD5QhvCGjOhMXiznzo/XETezavpXttq1LSGgYpv35PWzb+k9ZQx2OPtczS8SrSt7q5o+cj9vqHUcnt0JzbyfMFkTfp6WHWLOSuGTr43qbiJ4gEaULYURdUOhDO2nbGtoG08fXF8eOHhFzKtmyaQOe6tUb7TvU3K2QxN6pcxd0MLLNPUcemnk5iVeV0KB25MbkGgcNdMmrZ6jLxZqVtG5i5SZ+AjYVfWpK3aJPvJOAZjKI3sXVFXM+WiiI/Fsc2Bsj5lLsvhkjRj4vpqqJ2bWdbZw8a94CuLjY9uEHxzStjTxoogdUusebUf5o6uGIcVtTcCNTP5zpEmJHog9r0YINGGuDysvKytjSBDmIaBWJ+dFLsG/PLpY+ceyoMNbwZvG8IT8c2MeeEodHtBRzOA2BMdHr8n9jQuHqpMKr21KRZjDg7RbmhkBP/Z7CEmwn+vCIOkWfnJTEBry6W9Lbmp69+2LNuo3smnn5UTW9PEF1evTsJaZsT1ZmJjs/2a07fhIG9hRKmTqovGtUd1a/sePv5ojJ3at3Xzdk3S85GL8tBXkl+mENMaa9bdYn2WwZAj2BfXP8OBw8epKl8/PzqgaU9OSVHkTRVOLuHdvwr517Wb4htlyGkJyUiD+9NQFbdsTUGNjWhbXLEL7ftwcL5s3Cxq07UaRWY+2a6tkrY5BhvPr6RPTpN0DMafxEfnYTOUaEbYoIPxecnxEppqzDpmtv3nj5j5j09jSTHx7Nizs7OWPOx9Fijj62XntD636MDWDrwlrRx1++xP4XBK25acgnz48KZ1NLMHhdopiqHQp3fpwQgU7BbmKOddhU9OTRv161Av2fHsSmMXWh+fP9e3bjwKGfTc7TN6YFZ/RAjp5PECR63eUPum0P+f2wBlkaYa8sP5aFJUeyxJQ+Lfyc8X7fJni9i223ZLL5KsvYE8ewf28MsrMqY1qJJ4WY1fDDN6SxrbK8En8Ze3btQFJigphTTZOmgZg0eaqiBS9B6+h/SS3G2ZQSnE0rRo8WHsLhJhzu8HF1FGvZDlmWFltKY1xazLE/zJ69qb8ozce8tuWzVfqien0hM+XoY+//EbNFT9648VP/j62ypkwf8yP6r7bvtw38Px7mBsCdqNJKAAAAAElFTkSuQmCC;" vertex="1" parent="1">
          <mxGeometry x="-520.72" y="580" width="70.84" height="40.48" as="geometry" />
        </mxCell>
        <mxCell id="TUTVtr3VRNuUsHLydm8b-32" style="edgeStyle=orthogonalEdgeStyle;rounded=0;orthogonalLoop=1;jettySize=auto;html=1;" edge="1" parent="1" source="TUTVtr3VRNuUsHLydm8b-28">
          <mxGeometry relative="1" as="geometry">
            <mxPoint x="-760" y="460" as="targetPoint" />
          </mxGeometry>
        </mxCell>
        <mxCell id="TUTVtr3VRNuUsHLydm8b-28" value="" style="shape=image;verticalLabelPosition=bottom;labelBackgroundColor=default;verticalAlign=top;aspect=fixed;imageAspect=0;image=data:image/png,iVBORw0KGgoAAAANSUhEUgAAAMAAAABrCAYAAAAhB40qAAAAAXNSR0IArs4c6QAAAARnQU1BAACxjwv8YQUAAAAJcEhZcwAADsMAAA7DAcdvqGQAAAxrSURBVHhe7d15UBRXHgfw3yABIoKKggcG47WyouKR0jWbUhIxa5X+47HRNd7J6v6jKTUpsCoucd0SE+NRKtnyWKNuPMpFt9z1oFSyWpVY5W15sqKIQUFFgRpFUa7l+3gNPcMMmaG7B8j7faq6ut+bx2jM+3X/3uumn63f2szK7MJSYkw1/ToGka33qsxKm6xgrDGUlFVSrr3uSbhLqD8F+PvJkvkqKolslHi1aseYmqwLL8aaAQ4A1oTIZNyHOQkHAGtCZM/34aCUA4ApjQOAKY0DgCkK6ZaNA4CpCgONStf3Af4yKoISRrSngBaOo5G/nyukj/flylL9pg1sQ6vHdKS/nS6gPx97JGsZa1rcXgHsJRU0fe99si2+JrZl3+eLTn1tQU/Zwjz43vzPo0XgMeY7lZ6nQDiL4+wfEezPHZX9Qng5BvjHxSJ6VFxGb3dtKWuIjn/8JlUmx4jN/sWvxdncHVdtEUxbJnSm9sEtaMl74XRv8a/ovR7BbtszZiavB8F5T8uoU4i/OEYHjQ4PoJFbskWadObeC0qMay8+c+aurXZleVxcLtKsLsk36fvbxV59N2MN1eBZIJyl0UHTbj4THRa2ny+i1kF+dc7U3rQFb9sz1lBeBwDO/rgKRIa+RqGBLeijt9rWpCk7Poik8KoxQq/2AbJ1NW/agrftGWsYLwbBgHwdg2Ccje/bSym/ajyAtEWbKcIW+Pn1OtOe3rQFb9sz1jBeDIIxUMUg9cANuxgMIzW5U1hKs99qUzNodcebtuBte8YayuMbYTgr476AlpNrcF+gT0SgLBFdf/SSYtbcErm6840wd20Bg96RVZ1d/+fU154xM/BvhDF12fhZIKayygoOAKYyvgIwxXEAMKVxADClcQAwpXEAMKXZHheX8X0ApixbZRV5zJhyOAViysKpnwOAKQupDwcAUxIyf7wenQOAKcpWFQBe/kIMY78kPAZgarNxADCF8RWAKY8DgCmNA4ApzZJHIe7evUs3b96UpVqxsbEUEcHvFWWND73+ZXmFNQGwceNGysrKkqVa8fHxNGrUKFlirPGg178qr2xYAFy4cIGePHkiS7VsturXqOArr1y5Qg8fPhRlaNu2LQ0ePFiW6sLP4uc4QJgvGAqAhIQEeWS+L7/8Uh4xZh30evwiAA+CmZKQrPhVbQ26AuTl5dHz588pJyenJnXRNLSMwXFgYCD16NFDfsKYtfAskKFBcEZGRk0HNrqPioqili1rF95gzGrod4ZSIHReM/eM+RL6naEAQARp+6KiIjE7hL1Wj+OLFy+KPbhrp+0Z8zXTrgB37tyhS5cuib1Wj2MEAPbgrp22N+LFixe0cOFC6tWrl8O2cuVK2eLnad9x5swZWWON27dvU1JSkvjzWOMyfAXQb0brzLBz507KzMwU2+XLl8WAfeLEiVRYWChbmAfBlZqaKkuewc+MHj2anj59KmtYYzI8Dep8Ftfv9Wf2+tpZ5fXXX6fVq1fT0KFDKT09XdY2Hu1qhCBlTYPhANCf0Z33+jN7fe2sNmLECDp16lRNyoEUR0uR4uLiREriDs7wWlvtSqKlSps2baLFixc7fEd93/3ZZ5+JjTUdhgNA4+pM7mmd1dq1aydSjpKSEtFBv/rqK7FHmoTjlJQUl/k4Oj8CB6kU2k6ePJm2bNlSc2WZM2cOJScn04kTJ8T9C2++mzUNhscA2l5/Jnd3dve0nZVOnjwpOjKeTYJ+/fpRSEgI5ebmirIGnRadH23R4WHkyJFiTOFuPOHpd7OmAd3OUADo83j9mV1fr+dpO7PhwT10RAQaOjDSFi1N6d+/P+3atavOw324Wvz000/04Ycf1rQdMmSImMItKCiQrWohYDz9btY04LRr+Aqg3zRG6syGjrlnzx5xZg4LC6NOnTo5zBRpGzq3XlBQEMXExFBaWppDOy3dcYarhKffzRof+pzh16JoZ3TnM7i3dc71ZkGqMm3aNNExtU6IATFy85+bFkWHRgrjTQ7v6XezpgDvBTLxCqDnbZ1zvRH6lGXcuHHi8Wr9zAsCAVcD7LV2mNFx1ckx64PgQSqjtdXfWBs/fjxt2LChZrbHm+9mjQ/dztDDcDdu3JBHJO7uYhswYIDYvKmDrl278sNwzGfQ619VXQIMXQHMZOZVgDFPoM81mQCwahzAmHsmPg2qP4NrZefPtTK4+pwxXzM8C6Tt9Wdwrez8uVYG588ZawymzQJpZ3AjdYz5VqU5s0D4CpzFcScU04ZaGVDXsWNHh7O81k6D9pgFCg4OljWMWQu9HrNAhgIAdzlLS0tlyZiePXtSQECALDFmLREA5QZngcyatw8NDeXOz3wOSYmhKwDgLqeRq4Cfnx+1atVKlhjznTKjKRBjzRkvkseUhmkZDgCmLIwBOACY0jgAmNI4AJjSOACY0jgAmNI4AJjSOACYsnALmAOAKQuPQHAAMGUZfi8QY80V0h9+FogpjccATG38LBBTGX4TgAOAKczge4EYa+44AJjSLP2VyHXr1ok3KHfp0kXWqOncuXNitRl35s+fL4/UlV34ik7nvKBcexn9tmtLGvJG9ao8VkGvf1leYU0A2O12euedd8S7fh48eCBWTUEgqCghIYH2798vS+4dOXJEvBpGNVvOFtLaHwvo2sMSWVOtc+hr9IfY1rRidAfytyBPQa83/F4gwILXjx49kqVqWJGldevW4r35+fn59M0339CKFSvkp7WwfKkv4Q0W2npfvnD69GmaOnWq+G+fMGGCrHV07949SkxMFGsKqHYlmJV6n7adL5Il1zq08qcD06NoqMlXBBEA5SYEAP6n4ezlLSwegRTJV2c9rNM1e/ZsOnDggKyxDoJ+9+7dIsARAN999129wY42qgVA+F//R4+Ly2Tp5+2bGkXjY0JkyTj0+tKqK4Dhiws68dixY2nGjBl11sZytW3evFmslH748GGfXvI3btwoUjJfWLNmjTxirny0777bzv92Vf7vyrx/58kjs1R1frNuhEVGRlJOTo4s1Q9LCXXo0EGWzHfs2DERlM6+/fZbmjlzpixVB65VsLokc+34rWLaes592vPjn7rR7/uFylKtXHspfXHcMdU2Au+q9cMmy4YgAJDLatC5tFmPW7duOayrhbJVAYCX9WLA3b17d1lTbceOHWKdr0GDBskaEotfY0E75luZj1/KI9c+2JVDe6e84TIIzt13HCgbZdp7gTDNqb8CYKV0TP0Bcu9NmzaJY8AVAG+LNhtmnpYsWSLyaKRkeljdHfm/HgaeR48eFev4Mt/JyK8/AP55xe42CI5lPqOyClkwgWnvBYqKihIzLJ6shogA0L8a3Szbtm2j4cOH0/Tp02VNtePHj4u/15gxY2RNNYw/Fi1aRElJSbKG+cLlB44BgI5emRzjsKFO+0wPszY/ZBfLkjlMCQAMLsPDwx3SIFeePXsmztSdO3eWNeaJj4+n1NRUke7obd26lebOnStLtZCKrVq1yuVnzDp9IgLlUbWl6fn07ubsOtudglcuc/7fRJm7kqgpAQDO4wBXsrKyqE2bNpYEQJ8+fcSawF9//TUdPHhQ1GVkZNDZs2dp1qxZoqyHuflhw4bRp59+KmuYL/QOdwwA3AA7kVVcs8G/pkXR9gtFIjj04roHU5A/MnfzmBYAzuMAV7Kzsy2dAUKHRgAg0AAzP1i4ukWLFqKsFxsbS8uWLZMl5ivdw+pfB+K/f3yT1v7wuE7nh8GRQfLIPKYFANIgd1cA3PQC3DW2Iv/Xe//998VAGKkWHkGYM2eO/MTRvHnz5JE1CgoKKDo6miIiImj9+vViw+yYqw13jBGQKhgb3YpG9XK/HgTSH1edH2YMaiOPzGPas0DobOnp6ZSSkiICQf8AHPJtDDoXLFggVoNZunSp/MQ66Fjnz5+n7du3yxrfwcAaqRdu9uHfBDf/8HdxB8Go0l1g+8sKav1F9fpynkqMa0/JvzM/ezAtAK5evUpTpkwRzwEhH3cFKconn3wi0hKrIejCwsLE5mv4N8CULB5/wF1hTBAwR5dyS8TZvqikXNa4Z1XnB1OfBl2+fDkdOnSIJk2aJGtqpaWliaWQ9u7dK2t+2RAACAQ8fNetWzcKCan7HEvfvn3F/QiVzf9PHq0/VSBLjuJ7BounQQdHWvcAo6kBAMhnsTkbOHCg2FRaDwxXxevXr4tHwp1hbOCLK2FzcN9eJu4Q33ryigqel1N0RCD1bl+1hVu/cKLpAcBYc2LaLBBjzQ/R/wHfTDAXhT4fLgAAAABJRU5ErkJggg==;" vertex="1" parent="1">
          <mxGeometry x="-670" y="581.5" width="67.25" height="37.48" as="geometry" />
        </mxCell>
        <mxCell id="TUTVtr3VRNuUsHLydm8b-33" value="move source&amp;nbsp;&lt;div&gt;container to archive&lt;/div&gt;" style="text;html=1;align=center;verticalAlign=middle;resizable=0;points=[];autosize=1;strokeColor=none;fillColor=none;" vertex="1" parent="1">
          <mxGeometry x="-546.87" y="633" width="130" height="40" as="geometry" />
        </mxCell>
        <mxCell id="TUTVtr3VRNuUsHLydm8b-35" value="Clear Source&lt;div&gt;&amp;nbsp;Container&lt;/div&gt;" style="text;html=1;align=center;verticalAlign=middle;resizable=0;points=[];autosize=1;strokeColor=none;fillColor=none;" vertex="1" parent="1">
          <mxGeometry x="-681.37" y="633" width="90" height="40" as="geometry" />
        </mxCell>
      </root>
    </mxGraphModel>
  </diagram>
</mxfile>
